<?xml version="1.0" encoding="utf-8"?>
<!-- Generator: Adobe Illustrator 25.0.0, SVG Export Plug-In . SVG Version: 6.00 Build 0)  -->
<svg version="1.1" xmlns="http://www.w3.org/2000/svg" xmlns:xlink="http://www.w3.org/1999/xlink" x="0px" y="0px"
	 viewBox="0 0 749.6 49.4" style="enable-background:new 0 0 749.6 49.4;" xml:space="preserve">
<style type="text/css">
	.st0{fill:none;stroke:url(#line_1_);stroke-width:9;stroke-miterlimit:10;}
	.st1{fill:#FFFFFF;fill-opacity:0.75;}
	.st2{fill:none;stroke:#242021;stroke-width:6;}
</style>
<g id="group_x5F_line">
	
		<linearGradient id="line_1_" gradientUnits="userSpaceOnUse" x1="712.82" y1="27.32" x2="1.818989e-12" y2="27.32" gradientTransform="matrix(1 0 0 -1 0 52)">
		<stop  offset="0" style="stop-color:#FFC7A4;stop-opacity:0.97"/>
		<stop  offset="0.25" style="stop-color:#FF9DCE;stop-opacity:0.65"/>
		<stop  offset="0.75" style="stop-color:#6FEBFC;stop-opacity:0.34"/>
		<stop  offset="1" style="stop-color:#8EB1F4"/>
	</linearGradient>
	<line id="line" class="st0" x1="0" y1="24.7" x2="712.8" y2="24.7"/>
</g>
<g id="group_x5F_arrow">
	<path id="arrow_x5F_fill" class="st1" d="M741.7,21.2c1.9,1.1,2.5,3.6,1.4,5.5c-0.3,0.6-0.8,1-1.4,1.4l-24.4,14.7
		c-1.9,1.1-4.4,0.5-5.5-1.4c-0.6-1-0.7-2.3-0.3-3.5l4.5-11.8c0.3-0.9,0.3-1.9,0-2.8l-4.5-11.8c-0.8-2.1,0.3-4.4,2.3-5.2
		c1.1-0.4,2.4-0.3,3.5,0.3L741.7,21.2z"/>
	<path id="arrow_x5F_stroke" class="st2" d="M708.6,12.5l2.8-1.1L708.6,12.5l4.5,11.8c0.1,0.2,0.1,0.5,0,0.7l-4.5,11.8
		c-1.4,3.6,0.5,7.7,4.1,9c2,0.8,4.2,0.6,6.1-0.5l24.4-14.6c3.3-2,4.4-6.3,2.4-9.6c-0.6-1-1.4-1.8-2.4-2.4L718.8,4
		c-3.3-2-7.6-0.9-9.6,2.4C708,8.2,707.8,10.5,708.6,12.5z"/>
</g>
</svg>
