<?xml version="1.0" encoding="utf-8"?>
<!-- Generator: Adobe Illustrator 25.0.0, SVG Export Plug-In . SVG Version: 6.00 Build 0)  -->
<svg version="1.1" id="Layer_1" xmlns="http://www.w3.org/2000/svg" xmlns:xlink="http://www.w3.org/1999/xlink" x="0px" y="0px"
	 viewBox="0 0 749.6 49.3" style="enable-background:new 0 0 749.6 49.3;" xml:space="preserve">
<style type="text/css">
	.st0{fill:none;stroke:url(#line_1_);stroke-width:9;stroke-miterlimit:10;}
	.st1{fill:#FFFFFF;fill-opacity:0.75;}
	.st2{fill:none;stroke:#242021;stroke-width:6;}
</style>
<g id="Layer_2_1_">
	<g id="group_line">
		
			<linearGradient id="line_1_" gradientUnits="userSpaceOnUse" x1="712.82" y1="172.68" x2="9.094947e-13" y2="172.68" gradientTransform="matrix(1 0 0 1 0 -147.99)">
			<stop  offset="0" style="stop-color:#FFC7A4;stop-opacity:0.97"/>
			<stop  offset="0.25" style="stop-color:#FF9DCE;stop-opacity:0.65"/>
			<stop  offset="0.75" style="stop-color:#6FEBFC;stop-opacity:0.34"/>
			<stop  offset="1" style="stop-color:#8EB1F4"/>
		</linearGradient>
		<line id="line" class="st0" x1="0" y1="24.7" x2="712.8" y2="24.7"/>
	</g>
	<g id="group_arrow">
		<path id="arrow_fill" class="st1" d="M36.9,21.3c1.9,1.1,2.5,3.6,1.4,5.5c-0.3,0.6-0.8,1-1.4,1.4L12.4,42.8
			c-1.9,1.1-4.4,0.5-5.5-1.4c-0.6-1-0.7-2.3-0.3-3.5l4.5-11.8c0.3-0.9,0.3-1.9,0-2.8L6.6,11.5C5.9,9.4,6.9,7.1,9,6.3
			c1.1-0.4,2.4-0.3,3.5,0.3L36.9,21.3z"/>
		<path id="arrow_stroke" class="st2" d="M3.8,12.5l2.8-1.1L3.8,12.5l4.5,11.8c0.1,0.2,0.1,0.5,0,0.7L3.8,36.9
			c-1.4,3.6,0.5,7.7,4.1,9c2,0.8,4.2,0.6,6.1-0.5l24.4-14.6c3.3-2,4.4-6.3,2.4-9.6c-0.6-1-1.4-1.8-2.4-2.4L14,4
			c-3.3-2-7.6-0.9-9.6,2.4C3.3,8.3,3.1,10.5,3.8,12.5L3.8,12.5z"/>
	</g>
</g>
</svg>
