<svg width="20" height="20" viewBox="0 0 20 20" fill="none" xmlns="http://www.w3.org/2000/svg">
<path d="M10.0275 7.20978C8.30715 7.20978 6.90324 8.61368 6.90324 10.334C6.90324 12.0543 8.30715 13.4582 10.0275 13.4582C11.7478 13.4582 13.1517 12.0543 13.1517 10.334C13.1517 8.61368 11.7478 7.20978 10.0275 7.20978ZM19.3978 10.334C19.3978 9.04024 19.4095 7.75821 19.3368 6.46681C19.2642 4.96681 18.922 3.63556 17.8251 2.53868C16.7259 1.43947 15.397 1.09962 13.897 1.02697C12.6032 0.95431 11.3212 0.966029 10.0298 0.966029C8.73605 0.966029 7.45402 0.95431 6.16262 1.02697C4.66261 1.09962 3.33136 1.44181 2.23449 2.53868C1.13527 3.6379 0.795424 4.96681 0.722767 6.46681C0.650111 7.76056 0.66183 9.04259 0.66183 10.334C0.66183 11.6254 0.650111 12.9098 0.722767 14.2012C0.795424 15.7012 1.13761 17.0324 2.23449 18.1293C3.33371 19.2285 4.66261 19.5684 6.16262 19.641C7.45637 19.7137 8.7384 19.702 10.0298 19.702C11.3236 19.702 12.6056 19.7137 13.897 19.641C15.397 19.5684 16.7282 19.2262 17.8251 18.1293C18.9243 17.0301 19.2642 15.7012 19.3368 14.2012C19.4118 12.9098 19.3978 11.6277 19.3978 10.334ZM10.0275 15.141C7.3673 15.141 5.22043 12.9941 5.22043 10.334C5.22043 7.67384 7.3673 5.52696 10.0275 5.52696C12.6876 5.52696 14.8345 7.67384 14.8345 10.334C14.8345 12.9941 12.6876 15.141 10.0275 15.141ZM15.0314 6.45275C14.4103 6.45275 13.9087 5.95118 13.9087 5.33009C13.9087 4.709 14.4103 4.20743 15.0314 4.20743C15.6525 4.20743 16.154 4.709 16.154 5.33009C16.1542 5.47757 16.1253 5.62364 16.0689 5.75993C16.0126 5.89622 15.9299 6.02006 15.8256 6.12434C15.7213 6.22863 15.5975 6.31131 15.4612 6.36767C15.3249 6.42402 15.1789 6.45293 15.0314 6.45275Z" fill="#979797"/>
</svg>
