<svg width="18" height="18" viewBox="0 0 18 18" fill="none" xmlns="http://www.w3.org/2000/svg">
<path d="M4.19484 17.834H0.566719V6.15023H4.19484V17.834ZM2.37859 4.55648C1.21859 4.55648 0.277344 3.59523 0.277344 2.43523C0.277344 1.87795 0.498725 1.34349 0.892786 0.949426C1.28685 0.555365 1.82131 0.333984 2.37859 0.333984C2.93588 0.333984 3.47034 0.555365 3.8644 0.949426C4.25846 1.34349 4.47984 1.87795 4.47984 2.43523C4.47984 3.59523 3.53859 4.55648 2.37859 4.55648ZM17.7736 17.834H14.1536V12.1465C14.1536 10.7909 14.1261 9.05273 12.2673 9.05273C10.3811 9.05273 10.0917 10.5252 10.0917 12.049V17.834H6.46734V6.15023H9.94672V7.74398H9.99734C10.4817 6.82586 11.6648 5.85711 13.4298 5.85711C17.1017 5.85711 17.7767 8.27523 17.7767 11.4159V17.834H17.7736Z" fill="#979797"/>
</svg>
