<svg width="165" height="41" viewBox="0 0 165 41" fill="none" xmlns="http://www.w3.org/2000/svg">
    <path d="M70.2215 19.8424L64.1209 13.7185H62.7483V26.7318H66.1036V20.6079L72.2042 26.7318H73.7293V13.7185H70.2215V19.8424Z" fill="white" />
    <path d="M83.7943 21.5265C83.7943 22.4451 83.0318 23.2106 82.1167 23.2106C81.2016 23.2106 80.439 22.4451 80.439 21.5265V13.7185H76.9312V21.6796C76.9312 24.5884 79.2189 26.8849 82.1167 26.8849C85.0145 26.8849 87.3022 24.5884 87.3022 21.6796V13.7185H83.7943V21.5265Z" fill="white" />
    <path d="M97.3719 18.465L92.0339 13.719H90.5088V26.7323H93.8641V19.996L97.3719 23.2111L100.727 19.996V26.7323H104.235V13.719H102.557L97.3719 18.465Z" fill="white" />
    <path fill-rule="evenodd" clip-rule="evenodd" d="M106.368 26.7318L112.469 13.7185H113.841L119.942 26.7318H116.587L115.824 25.0477H110.486L109.723 26.7318H106.368ZM113.383 19.2323L112.011 22.1411H114.756L113.383 19.2323Z" fill="white" />
    <path fill-rule="evenodd" clip-rule="evenodd" d="M122.384 13.719H127.112C130.772 13.719 133.67 16.6279 133.822 20.1491C133.822 23.8234 130.925 26.7323 127.264 26.7323H122.384V13.719ZM125.891 23.3665H127.264C128.942 23.3665 130.314 21.9886 130.314 20.3045C130.314 18.6205 128.942 17.2426 127.264 17.2426H125.891V23.3665Z" fill="white" />
    <path d="M136.567 13.719H139.922V26.7323H136.567V13.719Z" fill="white" />
    <path d="M151.36 22.4475C150.75 23.0599 149.988 23.3661 149.225 23.3661C147.395 23.3661 146.175 22.1413 146.175 20.3041C146.175 18.467 147.395 17.2422 149.225 17.2422C150.14 17.2422 150.903 17.5484 151.36 18.1608L153.801 15.7112C152.58 14.4864 151.055 13.874 149.225 13.874C145.565 13.874 142.667 16.7829 142.667 20.4572C142.667 24.1316 145.565 27.0404 149.225 27.0404C151.055 27.0404 152.733 26.2749 153.801 25.0502L151.36 22.4475Z" fill="white" />
    <path d="M10.6432 28.801H14.5085C14.7886 28.801 14.9006 28.6895 15.0127 28.4664L21.1748 17.8688C21.2308 17.7573 21.3428 17.59 21.1748 17.3669L19.2701 14.076C19.1581 13.7414 18.6539 13.6298 18.3738 14.076L10.195 28.1317C10.027 28.4106 10.195 28.801 10.6432 28.801Z" fill="white" />
    <path d="M24.7608 21.1594C24.9288 21.4383 25.377 21.4941 25.6011 21.1594L27.5617 17.757C27.6738 17.5897 27.6738 17.4224 27.5617 17.2551L24.5927 12.2352C24.4807 12.0121 24.3126 11.9563 24.1446 11.9563H20.3353C19.9431 11.9563 19.607 12.2352 19.7751 12.7372L24.7608 21.1594Z" fill="white" />
    <path d="M27.9537 15.6934C28.1778 15.9723 28.626 15.9723 28.794 15.6934L30.5866 12.57C30.6426 12.5142 30.6987 11.9564 30.1385 11.9006H26.6093C26.3292 11.9006 25.937 12.1795 26.1611 12.6257L27.9537 15.6934Z" fill="white" />
    <path d="M25.5421 24.9527C25.374 24.6738 24.9259 24.6181 24.7018 24.9527L22.9092 28.0204C22.6851 28.4109 23.0772 28.7455 23.3573 28.7455H26.8865C27.4467 28.6897 27.3907 28.132 27.3347 28.0762L25.5421 24.9527Z" fill="white" />
    <path d="M24.3686 22.8882L22.408 19.5416C22.2399 19.1511 21.7357 19.2069 21.5677 19.4858L16.526 28.1311C16.3019 28.4658 16.582 28.8562 16.9741 28.8562H20.8954C21.0075 28.8562 21.2316 28.8005 21.3436 28.5774L24.3686 23.3344C24.3686 23.2228 24.4246 23.0555 24.3686 22.8882Z" fill="white" />
    <path d="M32.3226 23.2232L34.2273 26.5141C34.3393 26.8487 34.8435 26.9603 35.1236 26.5141L43.1343 12.6815C43.3584 12.3468 43.1343 11.9564 42.6862 11.9006H38.8769C38.5968 11.9006 38.4847 12.068 38.3727 12.2911L32.3226 22.6655C32.2666 22.777 32.1546 22.9444 32.3226 23.2232Z" fill="white" />
    <path d="M28.7387 19.3194C28.5707 19.0405 28.1225 18.9848 27.8985 19.3194L25.9378 22.7218C25.8258 22.8891 25.8258 23.0564 25.9378 23.2238L29.0749 28.5225C29.2429 28.7456 29.3549 28.7456 29.523 28.7456H33.3323C33.6124 28.7456 33.9485 28.411 33.7805 28.0205L28.7387 19.3194Z" fill="white" />
    <path d="M29.1282 17.7572L31.0888 21.1037C31.2569 21.4384 31.7611 21.4384 31.9291 21.1595L36.8588 12.6257C37.0268 12.3468 36.8588 11.9564 36.4106 11.9006H32.5453C32.3773 11.9564 32.2092 12.0122 32.0972 12.1795L29.1282 17.3109C29.0721 17.4225 29.0161 17.5341 29.1282 17.7572Z" fill="white" />
    <path d="M38.3155 25.064C38.1474 24.7852 37.6993 24.7294 37.4752 25.064L35.6826 28.1317C35.4585 28.5222 35.8507 28.8568 36.1308 28.8568H39.66C40.2202 28.8011 40.1641 28.2433 40.1081 28.1875L38.3155 25.064Z" fill="white" />
    <path d="M39.4933 23.2788C39.2132 23.2788 38.8211 23.5577 39.0452 24.0039L40.8378 27.0716C41.0618 27.3505 41.51 27.3505 41.6781 27.0716L43.4707 23.9481C43.5267 23.8923 43.5827 23.3346 43.0225 23.2788L39.4933 23.2788Z" fill="white" />
    <path fill-rule="evenodd" clip-rule="evenodd" d="M162.251 3.11265H2.81381V37.9528H162.251V3.11265ZM0.280273 0.532715V40.5327H164.784V0.532715H0.280273Z" fill="white" />
    <path fill-rule="evenodd" clip-rule="evenodd" d="M52.4964 3.11265H2.86021V37.9528H52.4964V3.11265ZM0.280273 0.532715V40.5327H55.0764V0.532715H0.280273Z" fill="white" />
</svg>