<svg width="52" height="33" viewBox="0 0 52 33" fill="none" xmlns="http://www.w3.org/2000/svg">
<g opacity="0.88">
<path d="M11.2053 24.0491H14.7964C15.0567 24.0491 15.1607 23.9441 15.2648 23.7341L20.9899 13.7612C21.0419 13.6563 21.146 13.4988 20.9899 13.2888L19.2203 10.192C19.1162 9.87706 18.6478 9.77209 18.3876 10.192L10.7889 23.4192C10.6327 23.6816 10.7889 24.0491 11.2053 24.0491Z" fill="white"/>
<path d="M24.3208 16.8574C24.4769 17.1199 24.8933 17.1724 25.1015 16.8574L26.9231 13.6556C27.0272 13.4982 27.0272 13.3407 26.9231 13.1832L24.1646 8.45922C24.0605 8.24927 23.9044 8.19678 23.7483 8.19678H20.2091C19.8448 8.19678 19.5325 8.45922 19.6887 8.93162L24.3208 16.8574Z" fill="white"/>
<path d="M27.2848 11.7147C27.493 11.9772 27.9093 11.9772 28.0655 11.7147L29.7309 8.77537C29.783 8.72289 29.835 8.198 29.3146 8.14551H26.0357C25.7754 8.14551 25.4111 8.40795 25.6193 8.82786L27.2848 11.7147Z" fill="white"/>
<path d="M25.0498 20.4272C24.8937 20.1647 24.4773 20.1122 24.2691 20.4272L22.6037 23.3141C22.3955 23.6815 22.7598 23.9964 23.02 23.9964H26.2989C26.8194 23.9439 26.7673 23.419 26.7153 23.3665L25.0498 20.4272Z" fill="white"/>
<path d="M23.9542 18.485L22.1326 15.3357C21.9765 14.9683 21.508 15.0208 21.3519 15.2832L16.6678 23.419C16.4596 23.7339 16.7198 24.1013 17.0841 24.1013H20.7274C20.8315 24.1013 21.0396 24.0488 21.1437 23.8389L23.9542 18.9049C23.9542 18.8 24.0063 18.6425 23.9542 18.485Z" fill="white"/>
<path d="M31.3432 18.8007L33.1128 21.8976C33.2169 22.2125 33.6853 22.3175 33.9455 21.8976L41.3881 8.88035C41.5962 8.56542 41.3881 8.198 40.9717 8.14551H37.4326C37.1723 8.14551 37.0683 8.30297 36.9642 8.51293L31.3432 18.2759C31.2912 18.3808 31.1871 18.5383 31.3432 18.8007Z" fill="white"/>
<path d="M28.0163 15.1257C27.8602 14.8632 27.4438 14.8107 27.2356 15.1257L25.414 18.3275C25.3099 18.4849 25.3099 18.6424 25.414 18.7999L28.3286 23.7863C28.4847 23.9963 28.5888 23.9963 28.745 23.9963H32.2841C32.5443 23.9963 32.8566 23.6813 32.7005 23.3139L28.0163 15.1257Z" fill="white"/>
<path d="M28.3804 13.6568L30.202 16.8062C30.3582 17.1211 30.8266 17.1211 30.9827 16.8587L35.5628 8.82786C35.7189 8.56542 35.5628 8.198 35.1464 8.14551H31.5552C31.3991 8.198 31.2429 8.25049 31.1389 8.40795L28.3804 13.2369C28.3284 13.3419 28.2763 13.4469 28.3804 13.6568Z" fill="white"/>
<path d="M36.9131 20.5321C36.757 20.2697 36.3406 20.2172 36.1324 20.5321L34.467 23.419C34.2588 23.7865 34.6231 24.1014 34.8833 24.1014H38.1622C38.6827 24.0489 38.6306 23.524 38.5786 23.4715L36.9131 20.5321Z" fill="white"/>
<path d="M38.0044 18.8525C37.7442 18.8525 37.3799 19.115 37.5881 19.5349L39.2535 22.4218C39.4617 22.6842 39.8781 22.6842 40.0342 22.4218L41.6997 19.4824C41.7518 19.4299 41.8038 18.905 41.2833 18.8525L38.0044 18.8525Z" fill="white"/>
<path fill-rule="evenodd" clip-rule="evenodd" d="M0.84668 32.0615V0.0615234H51.6436V32.0615H0.84668ZM50.1335 30.5054V1.63657H2.40723V30.5054H50.1335Z" fill="white"/>
</g>
</svg>
