<svg width="20" height="17" viewBox="0 0 20 17" fill="none" xmlns="http://www.w3.org/2000/svg">
<path d="M6.46213 16.1461C7.93819 16.1554 9.40141 15.8715 10.7669 15.3109C12.1324 14.7503 13.373 13.9242 14.4168 12.8804C15.4605 11.8367 16.2867 10.5961 16.8473 9.23055C17.4078 7.86505 17.6917 6.40183 17.6824 4.92576V4.41019C18.4476 3.8496 19.1099 3.16072 19.6399 2.3741C18.9194 2.68921 18.157 2.8982 17.3766 2.99454C18.2041 2.50149 18.8249 1.72541 19.1243 0.809897C18.3531 1.27255 17.5075 1.5978 16.6251 1.77114C16.0308 1.13791 15.2444 0.718191 14.3875 0.576915C13.5307 0.435639 12.6512 0.580685 11.8851 0.98961C11.1189 1.39853 10.5089 2.04854 10.1495 2.83906C9.78997 3.62958 9.70102 4.51653 9.89638 5.36269C8.32871 5.28574 6.79481 4.87947 5.39459 4.17032C3.99436 3.46117 2.75919 2.46505 1.76952 1.24683C1.27048 2.11297 1.11922 3.13639 1.34636 4.10986C1.5735 5.08334 2.16208 5.93412 2.99292 6.48996C2.38 6.46633 1.78127 6.29868 1.2452 6.00061V6.0443C1.23976 6.94947 1.54469 7.82916 2.10919 8.53677C2.67368 9.24438 3.46364 9.73715 4.34739 9.93296C3.77732 10.0863 3.18018 10.1102 2.59968 10.0029C2.85553 10.7748 3.34393 11.4487 3.99789 11.9322C4.65185 12.4156 5.43936 12.6849 6.2524 12.7031C4.86228 13.8221 3.13456 14.438 1.35007 14.4508C1.03718 14.4417 0.725037 14.4155 0.415039 14.3722C2.22126 15.5229 4.32048 16.1296 6.46213 16.1199" fill="#979797"/>
</svg>
