<svg xmlns="http://www.w3.org/2000/svg" xmlns:xlink="http://www.w3.org/1999/xlink" viewBox="0 0 49.39 750.08">
    <defs>
        <linearGradient id="linear-gradient" x1="363.42" y1="228.73" x2="-349.38" y2="228.73" gradientTransform="matrix(0, 1, 1, 0, -204.09, 349.38)" gradientUnits="userSpaceOnUse">
            <stop offset="0" stop-color="#ffc7a4" stop-opacity="0.97"/>
            <stop offset="0.25" stop-color="#ff9dce" stop-opacity="0.65"/>
            <stop offset="0.75" stop-color="#6febfc" stop-opacity="0.34"/>
            <stop offset="1" stop-color="#8eb1f4"/>
        </linearGradient>
    </defs>
    <g id="Layer_2" data-name="Layer 2">
        <g id="Layer_1-2" data-name="Layer 1">
            <g id="Layer_2-2" data-name="Layer 2">
                <g id="group_line" data-name="group line">
                    <line id="line" x1="24.64" x2="24.64" y2="712.8" vector-effect="non-scaling-stroke" style="fill:none;stroke-miterlimit:10;stroke-width:9px;stroke:url(#linear-gradient)"/>
                </g>
                <g id="group_arrow" data-name="group arrow">
                    <path id="arrow_stroke" data-name="arrow stroke" vector-effect="non-scaling-stroke" d="M36.89,709.08l1.1,2.8-1.1-2.8-11.8,4.5a.85.85,0,0,1-.7,0l-11.9-4.5A7.06,7.06,0,0,0,4,719.28l14.6,24.4a7,7,0,0,0,9.6,2.4,6.89,6.89,0,0,0,2.4-2.4l14.8-24.4a7,7,0,0,0-2.4-9.6,7.29,7.29,0,0,0-6.1-.6Z" style="fill:none;stroke:#242021;stroke-width:6px"/>
                </g>
            </g>
        </g>
    </g>
</svg>