<svg viewBox="0 0 121 121" fill="none" xmlns="http://www.w3.org/2000/svg">
    <path d="M109.35 19.9511C106.552 17.1516 103.23 14.9309 99.5734 13.4158C95.9167 11.9007 91.9975 11.1208 88.0394 11.1208C84.0813 11.1208 80.162 11.9007 76.5054 13.4158C72.8488 14.9309 69.5266 17.1516 66.7285 19.9511L60.9214 25.7582L55.1143 19.9511C49.4623 14.299 41.7965 11.1238 33.8033 11.1238C25.8102 11.1238 18.1444 14.299 12.4924 19.9511C6.84037 25.6031 3.6651 33.2688 3.6651 41.262C3.6651 49.2551 6.84037 56.9209 12.4924 62.5729L18.2995 68.38L60.9214 111.002L103.543 68.38L109.35 62.5729C112.15 59.7748 114.37 56.4526 115.886 52.796C117.401 49.1394 118.181 45.2201 118.181 41.262C118.181 37.3039 117.401 33.3846 115.886 29.728C114.37 26.0714 112.15 22.7492 109.35 19.9511V19.9511Z" stroke="white" stroke-width="3" stroke-linecap="round" stroke-linejoin="round" class="stroke-black"/>
    <path d="M81.2351 43.8179C80.0615 42.6437 78.668 41.7122 77.1343 41.0767C75.6005 40.4412 73.9566 40.1141 72.2964 40.1141C70.6362 40.1141 68.9923 40.4412 67.4586 41.0767C65.9248 41.7122 64.5313 42.6437 63.3577 43.8179L60.9219 46.2537L58.4862 43.8179C56.1155 41.4472 52.9001 40.1154 49.5475 40.1154C46.1948 40.1154 42.9794 41.4472 40.6087 43.8179C38.238 46.1886 36.9062 49.404 36.9062 52.7566C36.9062 56.1093 38.238 59.3247 40.6087 61.6954L43.0445 64.1311L60.9219 82.0086L78.7994 64.1311L81.2351 61.6954C82.4094 60.5217 83.3408 59.1282 83.9763 57.5945C84.6118 56.0607 84.9389 54.4168 84.9389 52.7566C84.9389 51.0965 84.6118 49.4525 83.9763 47.9188C83.3408 46.3851 82.4094 44.9916 81.2351 43.8179V43.8179Z" stroke="url(#paint0_linear_390_20099)" stroke-width="3" stroke-linecap="round" stroke-linejoin="round"/>
    <defs>
        <linearGradient id="paint0_linear_390_20099" x1="36.9062" y1="40.1141" x2="146.104" y2="63.684" gradientUnits="userSpaceOnUse">
            <stop offset="0.0714157" stop-color="#8EB1F4"/>
            <stop offset="0.492343" stop-color="#FF9DCE"/>
            <stop offset="0.493448" stop-color="#6FEBFC"/>
            <stop offset="0.971875" stop-color="#FFC7A4"/>
        </linearGradient>
    </defs>
</svg>