<svg width="18" height="17" viewBox="0 0 18 17" fill="none" xmlns="http://www.w3.org/2000/svg">
<path d="M9.31516 0.433105H0.863141C0.462783 0.433105 0.12915 0.763229 0.12915 1.15938V15.7068C0.12915 16.103 0.462783 16.4331 0.863141 16.4331H9.31516C9.71552 16.4331 10.0492 16.103 10.0492 15.7068V1.15938C10.0492 0.763229 9.71552 0.433105 9.31516 0.433105ZM8.95928 8.17308C8.95928 8.56923 8.62565 8.89935 8.22529 8.89935H1.97525C1.57489 8.89935 1.24126 8.56923 1.24126 8.17308V2.0177C1.24126 1.81963 1.39695 1.64356 1.61937 1.64356H8.22529C8.62565 1.64356 8.95928 1.97368 8.95928 2.36983V8.17308Z" fill="white"/>
<path d="M8.14671 15.882V9.76421C8.14671 9.2469 8.59159 8.84204 9.10671 8.84204C9.62184 8.84204 10.0667 9.26939 10.0667 9.76421V15.882H8.14671Z" fill="white"/>
<path d="M9.08092 10.7628C8.7428 10.7628 8.44977 10.5806 8.26944 10.2845C8.02148 9.82899 8.15673 9.25959 8.60755 9.00906L16.3391 4.49945C16.4744 4.40834 16.6322 4.36279 16.8125 4.36279C17.1506 4.36279 17.4437 4.545 17.624 4.84108C17.8719 5.2966 17.7367 5.866 17.2859 6.11653L9.53174 10.6489C9.39649 10.7172 9.2387 10.7628 9.08092 10.7628Z" fill="white"/>
</svg>
