<svg viewBox="0 0 25 25" fill="none" xmlns="http://www.w3.org/2000/svg">
    <circle cx="12.2073" cy="12.5198" r="11" stroke="white" stroke-width="2" />
    <path d="M13.2879 7.01948H8.72788V18.2195H11.1279V14.4595H13.2879C14.0879 14.4595 14.7919 14.3155 15.3999 14.0115C16.0079 13.7075 16.4879 13.2755 16.8239 12.7155C17.1599 12.1555 17.3359 11.4995 17.3359 10.7475C17.3359 10.0115 17.1599 9.35548 16.8239 8.77948C16.4879 8.21948 16.0079 7.78748 15.3999 7.48348C14.7919 7.17948 14.0879 7.01948 13.2879 7.01948ZM11.1279 12.4595V9.01948H13.0639C13.6239 9.01948 14.0719 9.17948 14.4079 9.48348C14.7279 9.80348 14.9039 10.2195 14.9039 10.7475C14.9039 11.2755 14.7279 11.6915 14.4079 11.9955C14.0719 12.3155 13.6239 12.4595 13.0639 12.4595H11.1279Z" fill="white" />
</svg>