<svg width="34" height="42" viewBox="0 0 34 42" fill="none" xmlns="http://www.w3.org/2000/svg">
<path d="M15.8687 19.1313L23.9097 13.2851C24.5051 12.8549 25.1737 12.5377 25.8809 12.3568C28.0818 11.7961 30.6278 11.509 31.7587 11.0459C33.2307 10.4432 32.4687 7.36008 30.7682 7.64303C29.4333 7.86874 26.5934 8.39642 24.4105 9.03646C23.7736 9.21876 23.1779 9.51491 22.6389 9.90857L14.1906 16.0525L15.8687 19.1313Z" fill="#E2E2E2"/>
<path d="M10.8125 22.9801L17.4895 24.5711L16.0573 33.2135C15.7703 34.7179 14.9684 34.815 13.6372 34.5618L8.77389 33.7415L10.8125 22.9801ZM10.0225 22.2949L9.67034 36.5882L15.2387 37.5181C17.5814 37.8827 18.3101 36.1754 18.5777 34.78L20.3965 24.286L10.0225 22.2949Z" fill="#E2E2E2"/>
<path d="M17.8927 13.2026L20.2102 16.447C20.5212 16.8764 20.4311 17.4724 20.0182 17.799L18.8042 18.7589L19.7436 20.5384C20.4 21.7762 20.6112 23.202 20.3418 24.5769L20.1985 25.3371L15.1595 24.3873C14.6506 24.2955 14.126 24.4089 13.7005 24.7027C13.275 24.9965 12.9831 25.4468 12.8886 25.9552L11.1402 35.0877C10.9354 36.0633 10.6481 36.8112 9.67209 36.5904L5.66825 35.8024C4.72756 35.5903 4.12624 34.6704 4.30949 33.7241L6.42998 22.6701C7.37885 17.7173 9.81271 17.0293 10.5166 16.4686C11.2204 15.908 14.0523 14.8076 14.0523 14.8076L16.489 12.9864C16.9369 12.6525 17.5683 12.7513 17.8927 13.2026Z" fill="white"/>
<path fill-rule="evenodd" clip-rule="evenodd" d="M14.0496 15.2726C14.6682 14.7842 15.5656 14.8898 16.0539 15.5084L18.4424 18.5339C18.9308 19.1525 18.8252 20.0499 18.2066 20.5383C17.588 21.0266 16.6906 20.921 16.2023 20.3024L13.8138 17.2769C13.3254 16.6583 13.431 15.7609 14.0496 15.2726Z" fill="#999999"/>
</svg>
