<svg viewBox="0 0 165 57" fill="none" xmlns="http://www.w3.org/2000/svg">
    <path fill-rule="evenodd" clip-rule="evenodd" d="M26.2635 0.77115C26.2635 0.954866 26.1532 1.10187 26.0155 1.10187C25.8501 1.10187 25.7674 1.26723 25.7674 1.59795C25.7674 1.92867 25.6847 2.09403 25.5194 2.09403C25.354 2.09403 25.2713 2.25939 25.2713 2.59011C25.2713 2.92083 25.1887 3.08619 25.0233 3.08619C24.8869 3.08619 24.7753 3.19781 24.7753 3.33424C24.7753 3.7898 24.307 3.58922 24.1965 3.08619C24.1366 2.81335 24.0376 2.58912 23.9767 2.5878C23.9157 2.58664 23.6984 2.54067 23.4937 2.48594C23.1402 2.39119 23.1217 2.43253 23.1217 3.31489C23.1217 4.03024 23.0646 4.24372 22.8736 4.24372C22.7096 4.24372 22.6256 4.40775 22.6256 4.72806C22.6256 5.36982 22.2337 5.73196 21.539 5.73196C21.1453 5.73196 20.972 5.8077 20.972 5.98C20.972 6.11642 20.8603 6.22804 20.7239 6.22804C20.5862 6.22804 20.4759 6.37505 20.4759 6.55876C20.4759 6.74248 20.3656 6.88948 20.2278 6.88948C20.0441 6.88948 19.9798 7.08246 19.9798 7.6336C19.9798 8.18475 19.9155 8.37773 19.7318 8.37773C19.5595 8.37773 19.4837 8.55102 19.4837 8.94475C19.4837 9.25645 19.3721 9.62322 19.2357 9.75964C19.0993 9.89606 18.9867 10.1805 18.9853 10.3916C18.9817 11.0337 18.7963 11.5196 18.5549 11.5196C18.3948 11.5196 18.3262 11.7377 18.3262 12.246C18.3262 12.7391 18.2465 13.003 18.0782 13.0677C17.936 13.1222 17.8301 13.3691 17.8301 13.6464C17.8301 13.9237 17.7243 14.1706 17.5821 14.2252C17.4121 14.2903 17.334 14.5561 17.334 15.0697C17.334 15.6255 17.27 15.8189 17.086 15.8189C16.9023 15.8189 16.838 16.0119 16.838 16.5631C16.838 17.0828 16.7697 17.3072 16.6114 17.3072C16.4651 17.3072 16.3548 17.5751 16.2995 18.0642C16.1964 18.9801 16.3024 19.4569 16.6093 19.4569C16.7349 19.4569 16.838 19.6057 16.838 19.7876C16.838 19.9713 16.9483 20.1183 17.086 20.1183C17.2224 20.1183 17.334 20.2299 17.334 20.3664C17.334 20.5028 17.4457 20.6144 17.5821 20.6144C17.7474 20.6144 17.8301 20.7798 17.8301 21.1105C17.8301 21.4412 17.7474 21.6066 17.5821 21.6066C17.4167 21.6066 17.334 21.7719 17.334 22.1026C17.334 22.4334 17.2514 22.5987 17.086 22.5987C16.9206 22.5987 16.838 22.7641 16.838 23.0948C16.838 23.4078 16.7533 23.5909 16.6083 23.5909C16.4768 23.5909 16.3323 23.8381 16.2701 24.1696C16.2104 24.488 16.0965 24.7484 16.0168 24.7484C15.9372 24.7484 15.823 24.9716 15.7631 25.2445C15.7033 25.5173 15.5485 25.7406 15.4193 25.7406C15.2705 25.7406 15.1844 25.9158 15.1844 26.2189C15.1844 26.4916 15.0777 26.7383 14.9363 26.7926C14.7913 26.8481 14.6883 27.096 14.6883 27.389C14.6883 27.7244 14.6061 27.8902 14.4402 27.8902C14.3038 27.8902 14.1922 28.0019 14.1922 28.1383C14.1922 28.2747 14.0806 28.3863 13.9442 28.3863C13.8077 28.3863 13.6961 28.4979 13.6961 28.6344C13.6961 28.7708 13.5931 28.8824 13.4674 28.8824C13.3416 28.8824 13.1997 29.0312 13.1521 29.2131C13.1046 29.395 12.947 29.5438 12.8022 29.5438C12.6572 29.5438 12.5386 29.6555 12.5386 29.7919C12.5386 29.9283 12.427 30.0399 12.2905 30.0399C12.1528 30.0399 12.0425 30.1869 12.0425 30.3706C12.0425 30.5544 11.9322 30.7014 11.7945 30.7014C11.6402 30.7014 11.5464 30.8575 11.5464 31.1148C11.5464 31.3721 11.4527 31.5282 11.2984 31.5282C11.162 31.5282 11.0503 31.6467 11.0503 31.7918C11.0503 31.9366 10.9015 32.0942 10.7196 32.1417C10.5377 32.1893 10.3889 32.3312 10.3889 32.457C10.3889 32.5827 10.2773 32.6857 10.1409 32.6857C10.0044 32.6857 9.89282 32.7973 9.89282 32.9337C9.89282 33.0702 9.78121 33.1818 9.64478 33.1818C9.50704 33.1818 9.39674 33.3288 9.39674 33.5125C9.39674 33.6962 9.28645 33.8432 9.1487 33.8432C9.01228 33.8432 8.90066 33.9548 8.90066 34.0913C8.90066 34.2277 8.78904 34.3393 8.65262 34.3393C8.48726 34.3393 8.40458 34.5047 8.40458 34.8354C8.40458 35.2212 8.33116 35.3315 8.07386 35.3315C7.89015 35.3315 7.74314 35.4418 7.74314 35.5795C7.74314 35.7159 7.63152 35.8275 7.4951 35.8275C7.35868 35.8275 7.24706 35.9392 7.24706 36.0756C7.24706 36.212 7.13544 36.3236 6.99902 36.3236C6.8626 36.3236 6.75098 36.4352 6.75098 36.5717C6.75098 36.7081 6.63936 36.8197 6.50294 36.8197C6.36519 36.8197 6.2549 36.9667 6.2549 37.1504C6.2549 37.3341 6.1446 37.4811 6.00686 37.4811C5.87043 37.4811 5.75882 37.5928 5.75882 37.7292C5.75882 37.8656 5.6472 37.9772 5.51078 37.9772C5.37435 37.9772 5.26273 38.0888 5.26273 38.2253C5.26273 38.3617 5.17956 38.4733 5.07786 38.4733C4.83743 38.4733 3.60913 39.7016 3.60913 39.942C3.60913 40.0437 3.49751 40.1269 3.36109 40.1269C3.22467 40.1269 3.11305 40.2385 3.11305 40.375C3.11305 40.5114 3.00143 40.623 2.86501 40.623C2.72859 40.623 2.61697 40.7346 2.61697 40.871C2.61697 41.0075 2.50535 41.1191 2.36893 41.1191C2.23251 41.1191 2.12089 41.2307 2.12089 41.3671C2.12089 41.5035 2.00927 41.6152 1.87285 41.6152C1.73643 41.6152 1.62348 41.7083 1.622 41.8219C1.61852 42.0739 0.904663 42.7727 0.65067 42.7727C0.540871 42.7727 0.467285 43.1044 0.467285 43.5995C0.467285 44.1911 0.531941 44.4263 0.694821 44.4263C0.851748 44.4263 0.946169 44.7133 0.999084 45.351C1.04125 45.8596 1.15055 46.3246 1.242 46.3845C1.33344 46.4443 1.45531 46.7903 1.51269 47.1534C1.57007 47.5165 1.69128 47.8383 1.78223 47.8686C1.87301 47.8988 1.99604 48.2903 2.05541 48.7381C2.15495 49.4883 2.1991 49.5524 2.61449 49.5524H3.06559L3.15522 47.795C3.20466 46.8283 3.31578 45.9911 3.40227 45.9347C3.48875 45.8781 3.60351 45.0381 3.65692 44.0678C3.75548 42.2855 4.00104 41.6152 4.55532 41.6152C4.67157 41.6152 4.76665 41.5035 4.76665 41.3671C4.76665 41.2018 4.93201 41.1191 5.26273 41.1191C5.59346 41.1191 5.75882 41.0364 5.75882 40.871C5.75882 40.7333 5.90582 40.623 6.08954 40.623C6.27325 40.623 6.42026 40.5127 6.42026 40.375C6.42026 40.2096 6.58562 40.1269 6.91634 40.1269C7.22854 40.1269 7.41242 40.0421 7.41242 39.8982C7.41242 39.7724 7.57993 39.6245 7.78448 39.5696C8.34919 39.4183 8.40458 39.4387 8.40458 39.7962C8.40458 39.9799 8.51488 40.1269 8.65262 40.1269C8.85982 40.1269 8.90066 40.4659 8.90066 42.1856C8.90066 43.7789 8.95308 44.2743 9.1325 44.3767C9.3091 44.4774 9.37806 45.0513 9.42188 46.7828C9.47446 48.8599 9.45445 49.0565 9.19004 49.0565C9.03097 49.0564 8.90066 49.168 8.90066 49.3044C8.90066 49.4408 8.78904 49.5524 8.65262 49.5524C8.48726 49.5524 8.40458 49.7178 8.40458 50.0485C8.40458 50.3792 8.48726 50.5446 8.65262 50.5446C8.83997 50.5446 8.90066 50.7467 8.90066 51.3714C8.90066 51.9641 8.96532 52.1982 9.12886 52.1982C9.28975 52.1982 9.37839 52.4942 9.42965 53.2034C9.46967 53.7564 9.58443 54.2594 9.68447 54.3213C9.78468 54.3833 9.91647 54.6323 9.97732 54.8751C10.0382 55.1176 10.193 55.3564 10.3211 55.4055C10.4507 55.4553 10.5543 55.7176 10.5543 55.9964C10.5543 56.3317 10.6364 56.4976 10.8023 56.4976C10.9387 56.4976 11.0503 56.6092 11.0503 56.7456C11.0503 56.9487 11.3351 56.9937 12.6213 56.9937C13.9074 56.9937 14.1922 56.9487 14.1922 56.7456C14.1922 56.6092 14.0806 56.4976 13.9442 56.4976C13.8077 56.4976 13.6961 56.3919 13.6961 56.2626C13.6961 56.1335 13.4729 55.9787 13.2 55.9188C12.9272 55.859 12.7039 55.7042 12.7039 55.575C12.7039 55.4457 12.5551 55.3401 12.3732 55.3401C12.0625 55.3401 12.0425 55.2298 12.0425 53.5211C12.0425 52.0596 12.0886 51.7021 12.2775 51.7021C12.4066 51.7021 12.5614 51.4789 12.6213 51.2061C12.6811 50.9332 12.8359 50.71 12.9651 50.71C13.0944 50.71 13.2 50.5931 13.2 50.4502C13.2 50.3072 13.3116 50.0786 13.4481 49.9422C13.5845 49.8058 13.6961 49.5506 13.6961 49.3753C13.6961 49.1999 13.8077 49.0564 13.9442 49.0564C14.1095 49.0564 14.1922 48.891 14.1922 48.5603C14.1922 48.2296 14.2749 48.0642 14.4402 48.0642C14.5767 48.0642 14.6883 47.9503 14.6883 47.811C14.6883 47.6716 14.7954 47.5167 14.9262 47.4664C15.057 47.4162 15.2118 47.1582 15.27 46.8928C15.4967 45.8609 15.8458 46.6755 15.8458 48.2365C15.8458 48.6722 15.9174 49.0536 16.0049 49.084C16.0922 49.1142 16.2149 50.0469 16.2772 51.1563C16.3592 52.6171 16.4523 53.1973 16.6142 53.2595C16.7373 53.3068 16.838 53.4593 16.838 53.5986C16.838 53.7696 16.9989 53.8518 17.334 53.8518C17.6648 53.8518 17.8301 53.9345 17.8301 54.0999C17.8301 54.2363 17.9417 54.3479 18.0782 54.3479C18.2146 54.3479 18.3262 54.4311 18.3262 54.5328C18.3262 54.7732 19.5545 56.0015 19.7949 56.0015C19.8966 56.0015 19.9798 56.2247 19.9798 56.4976V56.9937H21.5507H23.1217V56.5106C23.1217 56.1085 23.0386 56.0096 22.6256 55.9188C22.3527 55.859 22.1295 55.7042 22.1295 55.575C22.1295 55.4457 22.0179 55.3401 21.8814 55.3401C21.745 55.3401 21.6334 55.2284 21.6334 55.092C21.6334 54.9543 21.4864 54.844 21.3027 54.844C21.1208 54.844 20.972 54.7386 20.972 54.6097C20.972 54.4809 20.879 54.3444 20.7653 54.3066C20.6078 54.2541 20.5586 53.3233 20.5586 50.4007C20.5586 47.1688 20.5976 46.5397 20.8066 46.4103C21.0174 46.2798 21.0546 45.5664 21.0546 41.6507C21.0546 37.4848 21.0823 37.0171 21.344 36.755C21.5033 36.5958 21.6334 36.3669 21.6334 36.2469C21.6334 36.1267 21.745 35.9855 21.8814 35.933C22.0179 35.8808 22.1295 35.724 22.1295 35.5846C22.1295 35.4454 22.2411 35.3315 22.3775 35.3315C22.514 35.3315 22.6256 35.2198 22.6256 35.0834C22.6256 34.947 22.7372 34.8354 22.8736 34.8354C23.0368 34.8354 23.1217 34.6722 23.1217 34.3586C23.1217 34.0208 23.2181 33.8566 23.4524 33.7953C23.6343 33.7478 23.7831 33.5902 23.7831 33.4454C23.7831 33.3003 23.8575 33.1818 23.9485 33.1818C24.0394 33.1818 24.1138 33.0702 24.1138 32.9337C24.1138 32.7973 24.2195 32.6857 24.3488 32.6857C24.4779 32.6857 24.6327 32.4625 24.6926 32.1896C24.7524 31.9168 24.9072 31.6935 25.0364 31.6935C25.1657 31.6935 25.2713 31.5447 25.2713 31.3628C25.2713 31.1791 25.3816 31.0321 25.5194 31.0321C25.6558 31.0321 25.7674 30.9205 25.7674 30.784C25.7674 30.6476 25.8709 30.536 25.9976 30.536C26.1241 30.536 26.2769 30.3397 26.3371 30.1C26.3973 29.86 26.6658 29.4714 26.9337 29.2363C27.2017 29.0011 27.421 28.7518 27.421 28.6822C27.421 28.3281 28.0355 27.8902 28.5326 27.8902C28.9041 27.8902 29.0746 27.8122 29.0746 27.6422C29.0746 27.4755 29.2413 27.3942 29.5831 27.3942H30.0916L30.0378 29.0064L29.9841 30.6187L30.7696 30.5625L31.555 30.5062V31.3479C31.555 31.9859 31.495 32.1896 31.307 32.1896C31.1416 32.1896 31.0589 32.355 31.0589 32.6857C31.0589 32.9987 30.9743 33.1818 30.8293 33.1818C30.6978 33.1818 30.5533 33.429 30.4911 33.7605C30.4314 34.0789 30.3115 34.3393 30.2247 34.3393C30.1379 34.3393 30.0668 34.4509 30.0668 34.5873C30.0668 34.7238 30.1412 34.8354 30.2321 34.8354C30.3231 34.8354 30.3975 34.947 30.3975 35.0834C30.3975 35.2212 30.5445 35.3315 30.7282 35.3315C30.9119 35.3315 31.0589 35.2212 31.0589 35.0834C31.0589 34.9 31.2511 34.8354 31.7956 34.8354C32.5065 34.8354 32.5359 34.8152 32.6408 34.2566C32.703 33.9251 32.8475 33.6779 32.9789 33.6779C33.1498 33.6779 33.2086 33.4202 33.2086 32.674C33.2086 32.0019 33.2906 31.5879 33.4567 31.4218C33.6257 31.2528 33.7047 30.8353 33.7047 30.1109C33.7047 29.2761 33.758 29.0478 33.9528 29.0478C34.1477 29.0478 34.2008 28.8181 34.2008 27.9729C34.2008 27.1278 34.2539 26.8981 34.4488 26.8981C34.6221 26.8981 34.6969 26.7235 34.6969 26.3193C34.6969 25.9152 34.6221 25.7406 34.4488 25.7406C34.3124 25.7406 34.2008 25.6289 34.2008 25.4925C34.2008 25.3272 34.0354 25.2445 33.7047 25.2445C33.374 25.2445 33.2086 25.1618 33.2086 24.9964C33.2086 24.8231 33.034 24.7484 32.6299 24.7484H32.0511V23.4255C32.0511 22.6538 31.9822 22.1026 31.8857 22.1026C31.7948 22.1026 31.7204 21.991 31.7204 21.8546C31.7204 21.7168 31.5734 21.6066 31.3897 21.6066C31.206 21.6066 31.0589 21.4963 31.0589 21.3585C31.0589 21.2221 30.9473 21.1105 30.8109 21.1105C30.6745 21.1105 30.5629 20.9919 30.5629 20.8469C30.5629 20.702 30.414 20.5444 30.2321 20.497C30.0502 20.4494 29.9014 20.3075 29.9014 20.1816C29.9014 20.056 29.7898 19.9529 29.6534 19.9529C29.517 19.9529 29.4053 19.8413 29.4053 19.7049C29.4053 19.5395 29.24 19.4569 28.9093 19.4569C28.5785 19.4569 28.4132 19.3742 28.4132 19.2088C28.4132 19.0724 28.3016 18.9608 28.1651 18.9608C28.0274 18.9608 27.9171 18.8138 27.9171 18.6301C27.9171 18.4464 27.8068 18.2993 27.6691 18.2993C27.5326 18.2993 27.421 18.1877 27.421 18.0513C27.421 17.9149 27.3094 17.8033 27.173 17.8033C27.0366 17.8033 26.9249 17.6916 26.9249 17.5552C26.9249 17.4175 26.7779 17.3072 26.5942 17.3072C26.4105 17.3072 26.2635 17.1969 26.2635 17.0591C26.2635 16.9227 26.1519 16.8111 26.0155 16.8111C25.879 16.8111 25.7674 16.6995 25.7674 16.5631C25.7674 16.4266 25.6558 16.315 25.5194 16.315C25.332 16.315 25.2713 16.113 25.2713 15.4882C25.2713 14.8635 25.2106 14.6614 25.0233 14.6614C24.8396 14.6614 24.7753 14.4684 24.7753 13.9173V13.1732H25.5194C26.0705 13.1732 26.2635 13.2375 26.2635 13.4212C26.2635 13.6086 26.4656 13.6693 27.0903 13.6693C27.715 13.6693 27.9171 13.7299 27.9171 13.9173C27.9171 14.1004 28.1086 14.1653 28.6482 14.1653C29.3258 14.1653 29.387 14.1293 29.488 13.6693C29.5479 13.3964 29.6621 13.1732 29.7417 13.1732C29.8214 13.1732 29.9353 12.9127 29.995 12.5944C30.0572 12.2629 30.2017 12.0157 30.3332 12.0157C30.4595 12.0157 30.5629 11.904 30.5629 11.7676C30.5629 11.6312 30.4512 11.5196 30.3148 11.5196C30.1784 11.5196 30.0668 11.4364 30.0668 11.3347C30.0668 11.0943 28.8385 9.86597 28.5981 9.86597C28.4964 9.86597 28.4132 9.75435 28.4132 9.61793C28.4132 9.48151 28.3016 9.36989 28.1651 9.36989C28.0287 9.36989 27.9171 9.25827 27.9171 9.12185C27.9171 8.98542 27.8055 8.87381 27.6691 8.87381C27.5326 8.87381 27.421 8.76219 27.421 8.62577C27.421 8.48934 27.3177 8.37773 27.1913 8.37773C27.0609 8.37773 26.9158 8.13332 26.8555 7.81104C26.7969 7.49933 26.6584 7.21408 26.5476 7.17704C26.2799 7.08791 26.2785 5.431 26.5463 5.26548C26.6653 5.19189 26.7917 4.50945 26.8586 3.57665C26.9205 2.71579 27.0352 1.98655 27.1134 1.95629C27.1917 1.92586 27.2557 1.57249 27.2557 1.17083C27.2557 0.469533 27.236 0.44043 26.7596 0.44043C26.3738 0.44043 26.2635 0.51385 26.2635 0.77115ZM25.7674 4.98784C25.7674 5.53898 25.7031 5.73196 25.5194 5.73196C25.3357 5.73196 25.2713 5.53898 25.2713 4.98784C25.2713 4.43669 25.3357 4.24372 25.5194 4.24372C25.7031 4.24372 25.7674 4.43669 25.7674 4.98784ZM24.1138 6.23978C24.1138 6.51924 24.0022 6.85939 23.8658 6.99581C23.6845 7.17704 23.6177 7.61922 23.6177 8.63751C23.6177 9.76626 23.5706 10.0313 23.3697 10.0313C23.2333 10.0313 23.1217 9.91971 23.1217 9.78329C23.1217 9.64687 23.01 9.53525 22.8736 9.53525C22.7003 9.53525 22.6256 9.36063 22.6256 8.95649C22.6256 8.55235 22.5508 8.37773 22.3775 8.37773C22.2411 8.37773 22.1295 8.23419 22.1295 8.05875C22.1295 7.88346 22.0179 7.62831 21.8814 7.49189C21.5678 7.1782 21.5597 6.72412 21.8677 6.72412C21.9965 6.72412 22.1283 6.64492 22.1606 6.54801C22.1928 6.45128 22.534 6.3299 22.9186 6.27831C23.3541 6.21977 23.6177 6.09923 23.6177 5.95817C23.6177 5.83382 23.7293 5.73196 23.8658 5.73196C24.0325 5.73196 24.1138 5.89864 24.1138 6.23978ZM25.2135 6.88948C25.268 7.16233 25.415 7.38556 25.54 7.38556C25.6824 7.38556 25.7674 7.57093 25.7674 7.88164C25.7674 8.21237 25.8501 8.37773 26.0155 8.37773C26.1519 8.37773 26.2635 8.48934 26.2635 8.62577C26.2635 8.76219 26.1519 8.87381 26.0155 8.87381C25.879 8.87381 25.7674 8.98542 25.7674 9.12185C25.7674 9.25827 25.6558 9.36989 25.5194 9.36989C25.383 9.36989 25.2713 9.48151 25.2713 9.61793C25.2713 9.75435 25.1574 9.86597 25.0182 9.86597C24.8788 9.86597 24.722 9.97759 24.6698 10.114C24.5102 10.5297 24.2792 10.391 24.2792 9.87969C24.2792 9.61446 24.3719 9.36658 24.4854 9.32871C24.6225 9.28307 24.7113 8.77972 24.7503 7.82675C24.8092 6.3939 25.0264 5.9542 25.2135 6.88948ZM21.468 8.8371C21.468 9.09175 21.6154 9.42247 21.7988 9.57957C21.9807 9.73533 22.1295 10.0123 22.1295 10.195C22.1295 10.3802 22.2393 10.5274 22.3775 10.5274C22.5429 10.5274 22.6256 10.6928 22.6256 11.0235C22.6256 11.3542 22.7083 11.5196 22.8736 11.5196C23.039 11.5196 23.1217 11.6849 23.1217 12.0157C23.1217 12.3464 23.039 12.5117 22.8736 12.5117C22.7359 12.5117 22.6256 12.6587 22.6256 12.8425C22.6256 13.0244 22.5199 13.1732 22.3906 13.1732C22.2614 13.1732 22.1067 13.3964 22.0468 13.6693C21.9869 13.9421 21.8753 14.1653 21.7988 14.1653C21.7222 14.1653 21.6121 14.3823 21.5537 14.6475C21.4955 14.9129 21.3407 15.1709 21.2099 15.2212C21.0791 15.2714 20.972 15.4264 20.972 15.5658C20.972 15.705 20.9035 15.8189 20.8197 15.8189C20.736 15.8189 20.6184 16.0422 20.5586 16.315C20.4987 16.5879 20.3439 16.8111 20.2148 16.8111C20.064 16.8111 19.9798 16.9889 19.9798 17.3072C19.9798 17.6379 19.8971 17.8033 19.7318 17.8033C19.5664 17.8033 19.4837 17.6379 19.4837 17.3072C19.4837 16.9765 19.5664 16.8111 19.7318 16.8111C19.9348 16.8111 19.9798 16.5264 19.9798 15.2402C19.9798 13.9992 20.0287 13.6693 20.2128 13.6693C20.3952 13.6693 20.458 13.2856 20.5022 11.9052C20.5412 10.683 20.6221 10.1201 20.7653 10.0725C20.879 10.0346 20.973 9.80528 20.9743 9.56286C20.9773 8.95467 21.1466 8.37773 21.322 8.37773C21.4022 8.37773 21.468 8.58443 21.468 8.8371ZM26.7596 10.0313C26.7596 10.3409 26.8447 10.5274 26.9858 10.5274C27.1263 10.5274 27.2472 10.7888 27.3046 11.217C27.3555 11.5961 27.5141 11.9718 27.6572 12.0519C27.9538 12.2181 27.9847 12.4836 27.7493 12.8425C27.614 13.0483 27.5617 13.0523 27.4415 12.8658C27.3618 12.7422 26.9526 12.6024 26.532 12.5549C26.0368 12.4992 25.7674 12.3889 25.7674 12.2422C25.7674 12.0922 25.5657 12.0157 25.171 12.0157C24.6951 12.0157 24.5948 11.9627 24.6749 11.7541C24.7301 11.6102 24.7753 11.387 24.7753 11.258C24.7753 11.129 24.8869 11.0235 25.0233 11.0235C25.1597 11.0235 25.2713 10.9119 25.2713 10.7755C25.2713 10.639 25.3679 10.5274 25.4858 10.5274C25.6037 10.5274 25.8828 10.3073 26.1059 10.0383C26.6223 9.41553 26.7596 9.4142 26.7596 10.0313ZM28.9093 11.2715C28.9093 11.408 29.0209 11.5196 29.1573 11.5196C29.2937 11.5196 29.4053 11.6312 29.4053 11.7676C29.4053 11.933 29.24 12.0157 28.9093 12.0157C28.4682 12.0157 28.4132 11.9606 28.4132 11.5196C28.4132 11.1889 28.4959 11.0235 28.6612 11.0235C28.7976 11.0235 28.9093 11.1351 28.9093 11.2715ZM19.4187 12.9387C19.3635 13.0826 19.3184 13.3058 19.3184 13.4348C19.3184 13.5638 19.2439 13.6693 19.153 13.6693C19.0621 13.6693 18.9876 13.446 18.9876 13.1732C18.9876 12.8277 19.0683 12.6771 19.2534 12.6771C19.4278 12.6771 19.4846 12.7671 19.4187 12.9387ZM24.6099 12.8425C24.6099 12.9334 24.5355 13.0078 24.4445 13.0078C24.3536 13.0078 24.2792 12.9334 24.2792 12.8425C24.2792 12.7515 24.3536 12.6771 24.4445 12.6771C24.5355 12.6771 24.6099 12.7515 24.6099 12.8425ZM23.668 13.8723C23.7196 14.2569 23.841 14.5981 23.9377 14.6303C24.0346 14.6626 24.1138 14.9083 24.1138 15.1765C24.1138 15.4573 24.219 15.7043 24.3619 15.7591C24.5032 15.8133 24.6099 16.06 24.6099 16.3327C24.6099 16.7541 24.5507 16.8111 24.1138 16.8111C23.7955 16.8111 23.6177 16.8953 23.6177 17.0461C23.6177 17.1752 23.3945 17.33 23.1217 17.3899C22.8488 17.4497 22.6256 17.5673 22.6256 17.651C22.6256 17.7348 22.5305 17.8033 22.4142 17.8033C22.298 17.8033 22.0756 17.9521 21.9198 18.134C21.764 18.3159 21.5322 18.4647 21.4047 18.4647C21.2771 18.4647 21.1299 18.5763 21.0775 18.7127C21.0252 18.8492 20.8685 18.9608 20.7291 18.9608C20.5898 18.9608 20.4759 19.0724 20.4759 19.2088C20.4759 19.3452 20.3643 19.4569 20.2278 19.4569C20.0914 19.4569 19.9798 19.3452 19.9798 19.2088C19.9798 19.0724 20.0914 18.9608 20.2278 18.9608C20.3937 18.9608 20.4759 18.7949 20.4759 18.4596C20.4759 18.176 20.5792 17.9185 20.7138 17.8669C20.8446 17.8167 20.9994 17.5587 21.0576 17.2933C21.116 17.0281 21.2693 16.8111 21.3984 16.8111C21.5492 16.8111 21.6334 16.6333 21.6334 16.315C21.6334 15.9843 21.7161 15.8189 21.8814 15.8189C22.0192 15.8189 22.1295 15.6719 22.1295 15.4882C22.1295 15.3045 22.2398 15.1575 22.3775 15.1575C22.5429 15.1575 22.6256 14.9921 22.6256 14.6614C22.6256 14.3507 22.7106 14.1653 22.8529 14.1653C22.978 14.1653 23.125 13.9421 23.1795 13.6693C23.3216 12.9589 23.5587 13.0574 23.668 13.8723ZM18.9286 15.4375C18.8694 16.1371 18.7472 16.7554 18.6569 16.8111C18.5666 16.8668 18.4444 17.4851 18.3852 18.1848C18.2859 19.3595 18.2493 19.4569 17.9078 19.4569C17.4863 19.4569 17.3398 19.0888 17.3364 18.0217C17.335 17.6253 17.4397 17.225 17.5821 17.0828C17.7185 16.9464 17.8301 16.6099 17.8301 16.335C17.8301 16.0526 17.9432 15.7721 18.0901 15.6898C18.2331 15.6098 18.3917 15.2341 18.4426 14.8549C18.505 14.3899 18.6167 14.1653 18.7856 14.1653C18.9971 14.1653 19.0194 14.3639 18.9286 15.4375ZM50.6778 17.0591C50.5296 17.2073 50.1253 17.3072 49.6737 17.3072C49.1308 17.3072 48.9179 17.3733 48.9179 17.5422C48.9179 17.6713 48.6946 17.8261 48.4218 17.8859C48.1489 17.9458 47.9257 18.1006 47.9257 18.2297C47.9257 18.359 47.8141 18.4647 47.6777 18.4647C47.5412 18.4647 47.4296 18.5763 47.4296 18.7127C47.4296 18.8492 47.324 18.9608 47.1946 18.9608C47.0655 18.9608 46.9107 19.184 46.8509 19.4569C46.791 19.7297 46.6362 19.9529 46.5071 19.9529C46.3488 19.9529 46.2721 20.142 46.2721 20.5317C46.2721 20.9359 46.1974 21.1105 46.0241 21.1105C45.8086 21.1105 45.776 21.8362 45.776 26.65C45.776 31.4638 45.8086 32.1896 46.0241 32.1896C46.1894 32.1896 46.2721 32.355 46.2721 32.6857C46.2721 33.0164 46.3548 33.1818 46.5201 33.1818C46.6579 33.1818 46.7682 33.3288 46.7682 33.5125C46.7682 33.6962 46.8785 33.8432 47.0162 33.8432C47.1526 33.8432 47.2643 33.9548 47.2643 34.0913C47.2643 34.2277 47.3759 34.3393 47.5123 34.3393C47.6487 34.3393 47.7603 34.4509 47.7603 34.5873C47.7603 34.7251 47.9073 34.8354 48.0911 34.8354C48.2748 34.8354 48.4218 34.9457 48.4218 35.0834C48.4218 35.2906 48.7618 35.3315 50.4888 35.3315C52.2158 35.3315 52.5558 35.2906 52.5558 35.0834C52.5558 34.9457 52.7028 34.8354 52.8865 34.8354C53.0702 34.8354 53.2172 34.7251 53.2172 34.5873C53.2172 34.4509 53.3288 34.3393 53.4653 34.3393C53.6017 34.3393 53.7133 34.2277 53.7133 34.0913C53.7133 33.9548 53.8249 33.8432 53.9614 33.8432C54.1724 33.8432 54.2094 34.275 54.2094 36.737C54.2094 39.1395 54.1692 39.6308 53.9723 39.6308C53.8367 39.6308 53.713 39.8253 53.6829 40.0856C53.6394 40.4644 53.541 40.5489 53.0932 40.5921C52.7603 40.6241 52.5558 40.7343 52.5558 40.8815C52.5558 41.0352 52.3807 41.1191 52.0597 41.1191C51.729 41.1191 51.5636 41.0364 51.5636 40.871C51.5636 40.7057 51.3983 40.623 51.0675 40.623C50.6254 40.623 50.5715 40.5684 50.5715 40.1218C50.5715 39.8288 50.4684 39.5809 50.3234 39.5253C50.1417 39.4555 50.0754 39.1693 50.0754 38.4556V37.4811H47.9257H45.776V39.0521C45.776 40.3382 45.821 40.623 46.0241 40.623C46.2081 40.623 46.2721 40.8165 46.2721 41.3722C46.2721 41.8716 46.3515 42.1521 46.51 42.2129C46.6409 42.2632 46.7956 42.5212 46.8538 42.7866C46.9122 43.0518 47.0655 43.2688 47.1946 43.2688C47.324 43.2688 47.4296 43.3804 47.4296 43.5168C47.4296 43.6532 47.5412 43.7648 47.6777 43.7648C47.8141 43.7648 47.9257 43.8684 47.9257 43.995C47.9257 44.1215 48.1296 44.2763 48.3788 44.3388C48.628 44.4013 48.8777 44.5267 48.9337 44.6173C48.9898 44.7079 49.3625 44.8248 49.7622 44.8771C50.1619 44.9291 50.5419 45.0538 50.6068 45.1539C50.7658 45.3991 54.0144 45.3998 54.174 45.1547C54.239 45.055 54.5854 44.9272 54.9441 44.8704C55.3026 44.8139 55.6598 44.6535 55.7377 44.5143C55.8157 44.3749 55.9873 44.2609 56.1193 44.2609C56.2511 44.2609 56.3591 44.1493 56.3591 44.0129C56.3591 43.8765 56.4707 43.7648 56.6071 43.7648C56.7435 43.7648 56.8552 43.6532 56.8552 43.5168C56.8552 43.3804 56.9668 43.2688 57.1032 43.2688C57.2396 43.2688 57.3512 43.1571 57.3512 43.0207C57.3512 42.8843 57.4569 42.7727 57.5862 42.7727C57.717 42.7727 57.8726 42.5347 57.9376 42.2353C58.0018 41.9398 58.125 41.6527 58.2113 41.5976C58.2978 41.5426 58.4112 41.1705 58.4635 40.7708C58.5155 40.3711 58.6402 39.9911 58.7403 39.9262C58.9974 39.7595 58.9974 22.3047 58.7403 22.138C58.6402 22.073 58.5155 21.693 58.4635 21.2934C58.4112 20.8937 58.2943 20.521 58.2037 20.4649C58.1131 20.4088 57.9877 20.1592 57.9252 19.91C57.8627 19.6608 57.7079 19.4569 57.5814 19.4569C57.4548 19.4569 57.3512 19.3452 57.3512 19.2088C57.3512 19.0724 57.2396 18.9608 57.1032 18.9608C56.9655 18.9608 56.8552 18.8138 56.8552 18.6301C56.8552 18.4482 56.7515 18.2993 56.6248 18.2993C56.4981 18.2993 56.3516 18.1877 56.2992 18.0513C56.247 17.9149 56.0158 17.8033 55.7854 17.8033C55.5237 17.8033 55.3669 17.7103 55.3669 17.5552C55.3669 17.3679 55.1648 17.3072 54.5401 17.3072C53.9154 17.3072 53.7133 17.2465 53.7133 17.0591C53.7133 16.8582 53.4482 16.8111 52.3195 16.8111C51.3012 16.8111 50.859 16.8779 50.6778 17.0591ZM99.5181 17.1418C99.5181 17.2328 99.263 17.3072 98.9511 17.3072C98.6394 17.3072 98.2726 17.4188 98.1362 17.5552C97.9998 17.6916 97.7713 17.8033 97.6282 17.8033C97.4853 17.8033 97.3684 17.9149 97.3684 18.0513C97.3684 18.1877 97.2568 18.2993 97.1204 18.2993C96.984 18.2993 96.8724 18.411 96.8724 18.5474C96.8724 18.6838 96.7607 18.7954 96.6243 18.7954C96.4866 18.7954 96.3763 18.9424 96.3763 19.1261C96.3763 19.308 96.2728 19.4569 96.1461 19.4569C96.0196 19.4569 95.8648 19.6608 95.8023 19.91C95.7398 20.1592 95.6067 20.4136 95.5065 20.4757C95.4064 20.5375 95.2917 21.0405 95.2517 21.5935C95.2118 22.1463 95.1136 22.5987 95.0336 22.5987C94.9517 22.5987 94.888 26.2881 94.888 31.0321C94.888 36.544 94.9453 39.4655 95.0534 39.4655C95.1443 39.4655 95.2188 39.8694 95.2188 40.3632C95.2188 40.9053 95.309 41.3511 95.4466 41.4887C95.572 41.614 95.7267 41.9541 95.7906 42.2447C95.8546 42.5362 96.0117 42.7727 96.1413 42.7727C96.2706 42.7727 96.3763 42.8843 96.3763 43.0207C96.3763 43.1571 96.4879 43.2688 96.6243 43.2688C96.7607 43.2688 96.8724 43.3804 96.8724 43.5168C96.8724 43.6532 96.984 43.7648 97.1204 43.7648C97.2568 43.7648 97.3684 43.8765 97.3684 44.0129C97.3684 44.1493 97.4801 44.2609 97.6165 44.2609C97.7529 44.2609 97.8645 44.3701 97.8645 44.5033C97.8645 44.6692 98.1251 44.7801 98.6913 44.8552C99.1461 44.9156 99.5181 45.0298 99.5181 45.1091C99.5181 45.1883 100.076 45.2531 100.758 45.2531C101.44 45.2531 101.999 45.1884 101.999 45.1092C101.999 45.0302 102.35 44.9258 102.779 44.8774C103.208 44.8291 103.585 44.7102 103.617 44.6131C103.65 44.5161 103.931 44.3889 104.243 44.3304C104.565 44.27 104.81 44.125 104.81 43.9945C104.81 43.8682 104.921 43.7648 105.058 43.7648C105.223 43.7648 105.306 43.5995 105.306 43.2688C105.306 42.938 105.388 42.7727 105.554 42.7727C105.69 42.7727 105.802 42.6647 105.802 42.5329C105.802 42.4009 105.902 42.2336 106.025 42.1608C106.147 42.0881 106.294 41.7369 106.35 41.3805C106.406 41.024 106.537 40.6799 106.641 40.6156C106.764 40.539 106.86 39.5232 106.919 37.6672L107.008 34.8354H105.909H104.81V37.4036C104.81 39.5341 104.767 39.9882 104.562 40.067C104.425 40.1195 104.313 40.3217 104.311 40.5167C104.307 41.1316 104.118 41.6152 103.881 41.6152C103.755 41.6152 103.652 41.7268 103.652 41.8632C103.652 41.9996 103.541 42.1112 103.404 42.1112C103.268 42.1112 103.156 42.2143 103.156 42.3399C103.156 42.5795 102.671 42.7666 102.04 42.7704C101.807 42.7718 101.668 42.8735 101.668 43.0422C101.668 43.2658 101.535 43.2967 100.888 43.2238C100.459 43.1755 100.081 43.0541 100.047 42.9542C100.014 42.8544 99.7862 42.7727 99.5411 42.7727C99.296 42.7727 98.9681 42.6239 98.8124 42.442C98.6566 42.2601 98.4249 42.1112 98.2974 42.1112C98.1699 42.1112 98.0145 41.9073 97.952 41.6581C97.8895 41.4089 97.7513 41.1513 97.6448 41.0855C97.5012 40.9969 97.4394 38.4439 97.406 31.2191C97.367 22.8114 97.3942 21.439 97.6046 21.2287C97.7385 21.0948 97.8971 20.79 97.957 20.5517C98.0168 20.3133 98.1699 20.1183 98.2974 20.1183C98.4249 20.1183 98.6566 19.9695 98.8124 19.7876C98.9695 19.6042 99.3002 19.4569 99.5548 19.4569C99.853 19.4569 100.014 19.3697 100.014 19.2088C100.014 19.0215 100.216 18.9608 100.841 18.9608C101.466 18.9608 101.668 19.0215 101.668 19.2088C101.668 19.3925 101.861 19.4569 102.412 19.4569C102.963 19.4569 103.156 19.5212 103.156 19.7049C103.156 19.8413 103.268 19.9529 103.404 19.9529C103.541 19.9529 103.652 20.0609 103.652 20.1927C103.652 20.3247 103.769 20.4981 103.912 20.5782C104.055 20.6582 104.214 21.0339 104.265 21.4131C104.322 21.8412 104.443 22.1026 104.583 22.1026C104.763 22.1026 104.81 22.5436 104.81 24.2523C104.81 26.0529 104.85 26.402 105.058 26.402C105.194 26.402 105.306 26.4764 105.306 26.5674C105.306 26.6583 105.529 26.7327 105.802 26.7327C106.075 26.7327 106.298 26.6583 106.298 26.5674C106.298 26.4764 106.458 26.402 106.654 26.402C107.007 26.402 107.009 26.3789 106.91 24.0481C106.851 22.6855 106.738 21.6705 106.64 21.638C106.547 21.607 106.423 21.2151 106.363 20.7673C106.293 20.2402 106.175 19.9529 106.029 19.9529C105.904 19.9529 105.802 19.8413 105.802 19.7049C105.802 19.5685 105.69 19.4569 105.554 19.4569C105.388 19.4569 105.306 19.2915 105.306 18.9608C105.306 18.6684 105.219 18.4647 105.094 18.4647C104.978 18.4647 104.756 18.3159 104.6 18.134C104.444 17.9521 104.167 17.8033 103.985 17.8033C103.799 17.8033 103.652 17.6935 103.652 17.5552C103.652 17.3679 103.45 17.3072 102.825 17.3072C102.371 17.3072 101.999 17.2328 101.999 17.1418C101.999 17.0462 101.475 16.9765 100.758 16.9765C100.042 16.9765 99.5181 17.0462 99.5181 17.1418ZM114.235 17.1418C114.235 17.2328 113.868 17.3072 113.42 17.3072C112.916 17.3072 112.51 17.4018 112.357 17.5552C112.221 17.6916 111.992 17.8033 111.849 17.8033C111.706 17.8033 111.589 17.9149 111.589 18.0513C111.589 18.1877 111.478 18.2993 111.341 18.2993C111.204 18.2993 111.093 18.4464 111.093 18.6301C111.093 18.8138 110.983 18.9608 110.845 18.9608C110.709 18.9608 110.597 19.0724 110.597 19.2088C110.597 19.3452 110.494 19.4569 110.367 19.4569C110.241 19.4569 110.086 19.6608 110.023 19.91C109.961 20.1592 109.829 20.4128 109.731 20.4735C109.633 20.5342 109.517 21.0187 109.474 21.55C109.431 22.0813 109.312 22.5691 109.211 22.6339C108.929 22.814 108.951 39.3299 109.233 39.4241C109.364 39.4678 109.44 39.8169 109.44 40.3769C109.44 40.9074 109.531 41.3519 109.668 41.4887C109.793 41.614 109.948 41.9541 110.012 42.2447C110.076 42.5362 110.233 42.7727 110.362 42.7727C110.492 42.7727 110.597 42.8843 110.597 43.0207C110.597 43.1571 110.709 43.2688 110.845 43.2688C110.982 43.2688 111.093 43.3804 111.093 43.5168C111.093 43.6532 111.205 43.7648 111.341 43.7648C111.478 43.7648 111.589 43.8765 111.589 44.0129C111.589 44.1493 111.697 44.2609 111.829 44.2609C111.961 44.2609 112.135 44.378 112.215 44.5209C112.295 44.6639 112.67 44.8225 113.05 44.8734C113.429 44.9243 113.739 45.0305 113.739 45.1095C113.739 45.1884 114.334 45.2531 115.062 45.2531C115.834 45.2531 116.385 45.1841 116.385 45.0877C116.385 44.9968 116.722 44.9224 117.134 44.9224C117.634 44.9224 117.914 44.843 117.975 44.6844C118.025 44.5536 118.283 44.3988 118.548 44.3406C118.814 44.2822 119.031 44.129 119.031 43.9998C119.031 43.8705 119.142 43.7648 119.279 43.7648C119.415 43.7648 119.527 43.6532 119.527 43.5168C119.527 43.3804 119.638 43.2688 119.775 43.2688C119.911 43.2688 120.023 43.1252 120.023 42.9498C120.023 42.7745 120.131 42.523 120.263 42.391C120.395 42.2591 120.555 41.9376 120.619 41.6765C120.683 41.4154 120.817 41.1487 120.916 41.0837C121.184 40.9097 121.172 21.144 120.904 20.9787C120.798 20.913 120.659 20.6552 120.597 20.406C120.534 20.1568 120.423 19.9529 120.349 19.9529C120.275 19.9529 120.165 19.7297 120.105 19.4569C120.046 19.184 119.891 18.9608 119.762 18.9608C119.632 18.9608 119.527 18.8492 119.527 18.7127C119.527 18.5763 119.415 18.4647 119.279 18.4647C119.142 18.4647 119.031 18.359 119.031 18.2297C119.031 18.1006 118.814 17.9473 118.548 17.8889C118.283 17.8307 118.025 17.6759 117.975 17.5451C117.912 17.3818 117.623 17.3072 117.051 17.3072C116.594 17.3072 116.22 17.2328 116.22 17.1418C116.22 17.0499 115.779 16.9765 115.227 16.9765C114.676 16.9765 114.235 17.0499 114.235 17.1418ZM158.056 17.1418C158.056 17.2328 157.684 17.3072 157.229 17.3072C156.604 17.3072 156.402 17.3679 156.402 17.5552C156.402 17.6935 156.255 17.8033 156.07 17.8033C155.887 17.8033 155.61 17.9521 155.454 18.134C155.298 18.3159 155.076 18.4647 154.96 18.4647C154.844 18.4647 154.748 18.5763 154.748 18.7127C154.748 18.8492 154.637 18.9608 154.5 18.9608C154.335 18.9608 154.252 19.1261 154.252 19.4569C154.252 19.7876 154.17 19.9529 154.004 19.9529C153.831 19.9529 153.756 20.1276 153.756 20.5317C153.756 20.9359 153.682 21.1105 153.508 21.1105C153.298 21.1105 153.26 21.5146 153.26 23.7562C153.26 25.9979 153.298 26.402 153.508 26.402C153.674 26.402 153.756 26.5674 153.756 26.8981C153.756 27.2288 153.839 27.3942 154.004 27.3942C154.17 27.3942 154.252 27.5595 154.252 27.8902C154.252 28.221 154.335 28.3863 154.5 28.3863C154.638 28.3863 154.748 28.5333 154.748 28.717C154.748 28.9008 154.859 29.0478 154.997 29.0478C155.133 29.0478 155.245 29.1594 155.245 29.2958C155.245 29.4322 155.356 29.5438 155.493 29.5438C155.629 29.5438 155.741 29.6555 155.741 29.7919C155.741 29.9296 155.888 30.0399 156.071 30.0399C156.255 30.0399 156.402 30.1502 156.402 30.288C156.402 30.4244 156.514 30.536 156.65 30.536C156.787 30.536 156.898 30.6476 156.898 30.784C156.898 30.9205 157.01 31.0321 157.146 31.0321C157.283 31.0321 157.394 31.1378 157.394 31.2671C157.394 31.3962 157.617 31.551 157.89 31.6109C158.163 31.6707 158.386 31.8255 158.386 31.9546C158.386 32.0839 158.535 32.1896 158.717 32.1896C158.901 32.1896 159.048 32.2999 159.048 32.4377C159.048 32.5741 159.159 32.6857 159.296 32.6857C159.432 32.6857 159.544 32.7973 159.544 32.9337C159.544 33.0702 159.639 33.1818 159.755 33.1818C159.872 33.1818 160.094 33.3306 160.25 33.5125C160.405 33.6944 160.645 33.8432 160.782 33.8432C160.92 33.8432 161.032 33.9555 161.032 34.0929C161.032 34.2302 161.181 34.4699 161.363 34.6257C161.545 34.7815 161.694 35.0039 161.694 35.1201C161.694 35.2364 161.805 35.3315 161.942 35.3315C162.107 35.3315 162.19 35.4968 162.19 35.8275C162.19 36.1583 162.272 36.3236 162.438 36.3236C162.645 36.3236 162.686 36.6727 162.686 38.4733C162.686 40.2739 162.645 40.623 162.438 40.623C162.272 40.623 162.19 40.7883 162.19 41.1191C162.19 41.4498 162.107 41.6152 161.942 41.6152C161.805 41.6152 161.694 41.7268 161.694 41.8632C161.694 41.9996 161.591 42.1112 161.465 42.1112C161.339 42.1112 161.197 42.2601 161.15 42.442C161.079 42.7122 160.924 42.7727 160.304 42.7727C159.739 42.7727 159.544 42.8362 159.544 43.0207C159.544 43.193 159.371 43.2688 158.977 43.2688C158.665 43.2688 158.298 43.1571 158.162 43.0207C158.026 42.8843 157.685 42.7727 157.406 42.7727C157.065 42.7727 156.898 42.6913 156.898 42.5246C156.898 42.3882 156.787 42.2766 156.65 42.2766C156.514 42.2766 156.402 42.165 156.402 42.0286C156.402 41.8921 156.29 41.7805 156.154 41.7805C156.016 41.7805 155.906 41.6335 155.906 41.4498C155.906 41.2679 155.805 41.1191 155.682 41.1191C155.453 41.1191 155.245 39.5305 155.245 37.7869C155.245 37.3459 155.179 36.9851 155.099 36.9851C155.018 36.9851 154.914 36.8362 154.866 36.6543C154.795 36.3841 154.64 36.3236 154.02 36.3236H153.26V38.7076C153.26 40.2461 153.323 41.1123 153.436 41.1502C153.533 41.1824 153.654 41.5235 153.706 41.9082C153.765 42.3437 153.885 42.6073 154.026 42.6073C154.151 42.6073 154.252 42.7561 154.252 42.938C154.252 43.1217 154.363 43.2688 154.5 43.2688C154.637 43.2688 154.748 43.3804 154.748 43.5168C154.748 43.6532 154.86 43.7648 154.997 43.7648C155.133 43.7648 155.245 43.8765 155.245 44.0129C155.245 44.1506 155.392 44.2609 155.575 44.2609C155.757 44.2609 155.906 44.3639 155.906 44.4896C155.906 44.7669 156.411 44.9171 157.353 44.92C157.739 44.9214 158.056 44.9968 158.056 45.0877C158.056 45.1797 158.497 45.2531 159.048 45.2531C159.599 45.2531 160.04 45.1797 160.04 45.0877C160.04 44.9968 160.377 44.9224 160.789 44.9224C161.289 44.9224 161.569 44.843 161.63 44.6844C161.68 44.5536 161.938 44.3988 162.204 44.3406C162.469 44.2822 162.686 44.129 162.686 43.9998C162.686 43.8705 162.797 43.7648 162.934 43.7648C163.07 43.7648 163.182 43.6532 163.182 43.5168C163.182 43.3804 163.293 43.2688 163.43 43.2688C163.566 43.2688 163.678 43.1737 163.678 43.0574C163.678 42.9412 163.827 42.7188 164.009 42.563C164.223 42.3796 164.339 42.0752 164.339 41.6995C164.339 41.2939 164.414 41.1191 164.587 41.1191C164.798 41.1191 164.835 40.7149 164.835 38.4733C164.835 36.2317 164.798 35.8275 164.587 35.8275C164.415 35.8275 164.339 35.6542 164.339 35.2605C164.339 34.9488 164.228 34.582 164.091 34.4456C163.955 34.3092 163.843 34.1329 163.843 34.0541C163.843 33.975 163.623 33.7278 163.354 33.5047C163.085 33.2817 162.862 33.0062 162.858 32.8924C162.854 32.7788 162.702 32.6857 162.52 32.6857C162.334 32.6857 162.19 32.5754 162.19 32.4325C162.19 32.2931 162.078 32.1364 161.942 32.0841C161.805 32.0317 161.694 31.8852 161.694 31.7585C161.694 31.6319 161.59 31.5282 161.463 31.5282C161.337 31.5282 161.19 31.4166 161.138 31.2801C161.085 31.1437 160.929 31.0321 160.789 31.0321C160.65 31.0321 160.536 30.9205 160.536 30.784C160.536 30.6187 160.371 30.536 160.04 30.536C159.709 30.536 159.544 30.4533 159.544 30.288C159.544 30.1515 159.432 30.0399 159.296 30.0399C159.159 30.0399 159.048 29.9283 159.048 29.7919C159.048 29.6555 158.936 29.5438 158.8 29.5438C158.663 29.5438 158.552 29.4322 158.552 29.2958C158.552 29.1594 158.457 29.0478 158.34 29.0478C158.224 29.0478 158.002 28.8989 157.846 28.717C157.69 28.5352 157.449 28.3863 157.309 28.3863C157.159 28.3863 157.015 28.1829 156.956 27.8902C156.901 27.6174 156.754 27.3942 156.629 27.3942C156.504 27.3942 156.402 27.2825 156.402 27.1461C156.402 27.0097 156.29 26.8981 156.154 26.8981C155.981 26.8981 155.906 26.7235 155.906 26.3193C155.906 25.9152 155.831 25.7406 155.658 25.7406C155.451 25.7406 155.41 25.4006 155.41 23.6736C155.41 21.9465 155.451 21.6066 155.658 21.6066C155.823 21.6066 155.906 21.4412 155.906 21.1105C155.906 20.7798 155.989 20.6144 156.154 20.6144C156.292 20.6144 156.402 20.4674 156.402 20.2837C156.402 20.1 156.512 19.9529 156.65 19.9529C156.787 19.9529 156.898 19.8413 156.898 19.7049C156.898 19.5316 157.073 19.4569 157.477 19.4569C157.881 19.4569 158.056 19.3821 158.056 19.2088C158.056 19.0159 158.276 18.9608 159.048 18.9608C159.82 18.9608 160.04 19.0159 160.04 19.2088C160.04 19.3821 160.215 19.4569 160.619 19.4569C161.023 19.4569 161.198 19.5316 161.198 19.7049C161.198 19.8413 161.309 19.9529 161.446 19.9529C161.582 19.9529 161.694 20.0646 161.694 20.201C161.694 20.3374 161.805 20.449 161.942 20.449C162.115 20.449 162.19 20.6236 162.19 21.0278C162.19 21.4319 162.264 21.6066 162.438 21.6066C162.641 21.6066 162.686 21.8913 162.686 23.1775V24.7484H163.761H164.835V22.9294C164.835 21.4228 164.793 21.1105 164.587 21.1105C164.414 21.1105 164.339 20.9359 164.339 20.5317C164.339 20.142 164.263 19.9529 164.104 19.9529C163.975 19.9529 163.82 19.7297 163.761 19.4569C163.701 19.184 163.546 18.9608 163.417 18.9608C163.288 18.9608 163.182 18.8492 163.182 18.7127C163.182 18.5763 163.07 18.4647 162.934 18.4647C162.797 18.4647 162.686 18.359 162.686 18.2297C162.686 18.1006 162.463 17.9458 162.19 17.8859C161.917 17.8261 161.694 17.6713 161.694 17.5422C161.694 17.3705 161.471 17.3072 160.867 17.3072C160.412 17.3072 160.04 17.2328 160.04 17.1418C160.04 17.0499 159.599 16.9765 159.048 16.9765C158.497 16.9765 158.056 17.0499 158.056 17.1418ZM61.0262 28.8885C61.0585 37.053 61.1253 40.5046 61.2529 40.5878C61.3526 40.6526 61.4804 40.999 61.5372 41.3577C61.5937 41.7162 61.7541 42.0734 61.8934 42.1513C62.0328 42.2293 62.1467 42.4754 62.1467 42.6983C62.1467 42.9481 62.2418 43.1034 62.3947 43.1034C62.5325 43.1034 62.6428 43.2504 62.6428 43.4341C62.6428 43.6178 62.7531 43.7648 62.8908 43.7648C63.0272 43.7648 63.1389 43.8684 63.1389 43.995C63.1389 44.1215 63.3427 44.2763 63.5919 44.3388C63.8411 44.4013 64.0923 44.5291 64.1502 44.6227C64.2081 44.7163 64.5995 44.8317 65.02 44.8792C65.4405 44.9267 65.7846 45.0302 65.7846 45.1092C65.7846 45.1884 66.3799 45.2531 67.1075 45.2531C67.8351 45.2531 68.4304 45.1884 68.4304 45.1095C68.4304 45.0305 68.7406 44.9243 69.1199 44.8734C69.4991 44.8225 69.8748 44.6639 69.9548 44.5209C70.0349 44.378 70.2083 44.2609 70.3403 44.2609C70.4721 44.2609 70.5801 44.1493 70.5801 44.0129C70.5801 43.8765 70.6917 43.7648 70.8281 43.7648C70.9645 43.7648 71.0761 43.6532 71.0761 43.5168C71.0761 43.3804 71.1878 43.2688 71.3242 43.2688C71.4606 43.2688 71.5722 43.1548 71.5722 43.0156C71.5722 42.8762 71.6751 42.7229 71.8008 42.6746C71.9264 42.6263 72.0787 42.2774 72.1392 41.8992C72.1998 41.5211 72.3387 41.1563 72.4481 41.0888C72.5994 40.9952 72.6577 38.1346 72.6916 29.1366L72.7362 17.3072L72.0301 17.3095C71.6418 17.3107 71.1582 17.3561 70.9553 17.4105L70.5865 17.5094L70.5419 29.2376C70.5088 37.9767 70.4481 40.9964 70.3037 41.0855C70.1973 41.1513 70.059 41.4089 69.9965 41.6581C69.934 41.9073 69.7786 42.1112 69.6511 42.1112C69.5236 42.1112 69.2919 42.2601 69.1361 42.442C68.979 42.6253 68.6483 42.7727 68.3937 42.7727C68.0805 42.7727 67.9343 42.8578 67.9343 43.0406C67.9343 43.2661 67.7754 43.297 66.9291 43.2358C66.3761 43.1958 65.8737 43.0852 65.8129 42.9901C65.7519 42.895 65.5272 42.7626 65.3135 42.6959C64.8804 42.5607 64.2964 42.035 64.2964 41.7805C64.2964 41.6896 64.1934 41.6152 64.0677 41.6152C63.8301 41.6152 63.6411 41.1313 63.6372 40.5127C63.6359 40.3158 63.542 40.1234 63.4282 40.0856C63.2662 40.0317 63.2119 37.5668 63.1769 28.662L63.1321 17.3072H62.0564H60.9806L61.0262 28.8885ZM75.3204 17.4175C75.2598 17.478 75.2102 23.6456 75.2102 31.123V44.7185L75.5822 44.8182C75.7869 44.8729 76.2706 44.9189 76.6571 44.92L77.3598 44.9224L77.3622 33.8846C77.3633 27.8137 77.4093 22.6794 77.464 22.4747C77.6388 21.8225 77.8559 22.0744 77.8559 22.9294C77.8559 23.5188 77.9209 23.7562 78.0821 23.7562C78.2232 23.7562 78.3437 24.0198 78.4023 24.4554C78.4539 24.84 78.5734 25.1805 78.668 25.2121C78.7626 25.2435 78.8886 25.6359 78.948 26.0837C79.0179 26.6109 79.136 26.8981 79.2828 26.8981C79.4412 26.8981 79.5095 27.1221 79.5095 27.6422C79.5095 28.1933 79.5739 28.3863 79.7576 28.3863C79.9449 28.3863 80.0056 28.5884 80.0056 29.2131C80.0056 29.8379 80.0663 30.0399 80.2536 30.0399C80.437 30.0399 80.5017 30.2319 80.5017 30.7758C80.5017 31.2176 80.5908 31.5646 80.7246 31.6439C80.8473 31.7167 80.9935 32.0679 81.0495 32.4243C81.1056 32.7808 81.2365 33.1249 81.3406 33.1892C81.4447 33.2535 81.5686 33.6502 81.6161 34.0708C81.6718 34.566 81.7821 34.8354 81.9287 34.8354C82.087 34.8354 82.1553 35.0598 82.1553 35.5795C82.1553 36.1306 82.2196 36.3236 82.4033 36.3236C82.5766 36.3236 82.6514 36.4982 82.6514 36.9024C82.6514 37.3065 82.7261 37.4811 82.8994 37.4811C83.0868 37.4811 83.1475 37.6832 83.1475 38.3079C83.1475 38.9327 83.2081 39.1347 83.3955 39.1347C83.5792 39.1347 83.6435 39.3277 83.6435 39.8789C83.6435 40.3989 83.7118 40.623 83.8702 40.623C84.0171 40.623 84.1351 40.9102 84.2051 41.4374C84.2645 41.8852 84.3905 42.2776 84.485 42.309C84.5796 42.3406 84.6992 42.6811 84.7508 43.0657C84.8093 43.5013 84.9299 43.7648 85.0709 43.7648C85.2193 43.7648 85.2971 43.9641 85.2971 44.3436V44.9224H86.2757C86.814 44.9224 87.3721 44.8772 87.5159 44.822C87.7516 44.7315 87.7775 43.37 87.7775 31.1148C87.7775 18.8596 87.7516 17.498 87.5159 17.4076C87.3721 17.3523 86.9256 17.3072 86.5238 17.3072H85.7932V28.1383C85.7932 37.6558 85.7631 38.9694 85.5452 38.9694C85.3615 38.9694 85.2971 38.7764 85.2971 38.2253C85.2971 37.6741 85.2328 37.4811 85.0491 37.4811C84.8617 37.4811 84.8011 37.2791 84.8011 36.6543C84.8011 36.0296 84.7404 35.8275 84.553 35.8275C84.3807 35.8275 84.305 35.6542 84.305 35.2605C84.305 34.9488 84.1953 34.584 84.0616 34.4503C83.9276 34.3163 83.7676 33.8831 83.7057 33.4875C83.6439 33.092 83.5246 32.7232 83.4405 32.6682C83.3565 32.6131 83.2463 32.2596 83.1959 31.8827C83.1389 31.4579 83.018 31.1975 82.8776 31.1975C82.7164 31.1975 82.6514 30.96 82.6514 30.3706C82.6514 29.7459 82.5907 29.5438 82.4033 29.5438C82.23 29.5438 82.1553 29.3692 82.1553 28.9651C82.1553 28.5609 82.0805 28.3863 81.9072 28.3863C81.7239 28.3863 81.6592 28.1943 81.6592 27.6505C81.6592 27.2086 81.5701 26.8617 81.4363 26.7823C81.3136 26.7096 81.1674 26.3583 81.1114 26.002C81.0553 25.6455 80.9243 25.3014 80.8203 25.237C80.7162 25.1727 80.5923 24.776 80.5448 24.3555C80.4891 23.8602 80.3788 23.5909 80.2321 23.5909C80.0739 23.5909 80.0056 23.3665 80.0056 22.8468C80.0056 22.2956 79.9413 22.1026 79.7576 22.1026C79.5735 22.1026 79.5095 21.9092 79.5095 21.3534C79.5095 20.8398 79.4315 20.574 79.2615 20.5089C79.0931 20.4442 79.0134 20.1803 79.0134 19.6872C79.0134 19.182 78.9443 18.9608 78.7867 18.9608C78.6396 18.9608 78.5215 18.6707 78.4502 18.134L78.3406 17.3072H76.8856C76.0854 17.3072 75.381 17.3568 75.3204 17.4175ZM90.2993 17.4167C90.1362 17.4825 90.0926 20.3766 90.0926 31.1093V44.7185L90.4646 44.8182C90.9409 44.9457 91.7247 44.9457 92.2009 44.8182L92.573 44.7185V31.1131C92.573 18.8596 92.547 17.498 92.3114 17.4076C92.0043 17.2897 90.5983 17.2961 90.2993 17.4167ZM123.701 31.0734L123.743 44.8397L124.777 44.889L125.81 44.9381V38.812V32.6857H128.125C130.073 32.6857 130.441 32.7251 130.441 32.9337C130.441 33.107 130.615 33.1818 131.019 33.1818C131.423 33.1818 131.598 33.2565 131.598 33.4298C131.598 33.5662 131.693 33.6779 131.809 33.6779C132.122 33.6779 132.54 34.2321 132.669 34.8174C132.731 35.1001 132.887 35.3315 133.017 35.3315C133.214 35.3315 133.252 36.0151 133.252 39.5481C133.252 43.1861 133.286 43.7648 133.5 43.7648C133.673 43.7648 133.748 43.9395 133.748 44.3436V44.9224H134.844H135.94L135.854 44.1577C135.807 43.7372 135.69 43.3452 135.595 43.2866C135.485 43.2185 135.404 41.6696 135.371 39.0015C135.335 36.1616 135.26 34.7851 135.134 34.7051C135.033 34.6404 134.893 34.4048 134.823 34.1817C134.753 33.9585 134.595 33.6742 134.47 33.5497C134.346 33.4254 134.244 33.18 134.244 33.0047C134.244 32.8292 134.132 32.6857 133.996 32.6857C133.859 32.6857 133.748 32.5833 133.748 32.4583C133.748 32.3333 133.524 32.1863 133.252 32.1317C132.863 32.054 132.756 31.9452 132.756 31.628C132.756 31.3132 132.865 31.1996 133.252 31.1148C133.524 31.0549 133.748 30.9001 133.748 30.771C133.748 30.6417 133.859 30.536 133.996 30.536C134.132 30.536 134.244 30.4244 134.244 30.288C134.244 30.1515 134.346 30.0399 134.47 30.0399C134.61 30.0399 134.731 29.7795 134.788 29.3547C134.839 28.9778 134.979 28.6084 135.099 28.5338C135.419 28.3362 135.419 21.1606 135.099 20.963C134.979 20.8884 134.839 20.519 134.788 20.1421C134.731 19.7173 134.61 19.4569 134.47 19.4569C134.346 19.4569 134.244 19.3452 134.244 19.2088C134.244 19.0724 134.132 18.9608 133.996 18.9608C133.859 18.9608 133.748 18.8492 133.748 18.7127C133.748 18.5763 133.636 18.4647 133.5 18.4647C133.363 18.4647 133.252 18.3564 133.252 18.2241C133.252 18.0802 133.019 17.94 132.673 17.875C132.341 17.8129 132.094 17.6683 132.094 17.5369C132.094 17.3469 131.365 17.3072 127.876 17.3072H123.659L123.701 31.0734ZM138.454 17.5139C138.411 17.6277 138.394 23.8224 138.418 31.2801L138.46 44.8397L139.106 44.8926C139.461 44.9215 139.926 44.9015 140.14 44.8481L140.527 44.7507V33.9228C140.527 24.4081 140.558 23.0948 140.776 23.0948C140.94 23.0948 141.024 23.2592 141.024 23.5826C141.024 23.8543 141.139 24.1351 141.284 24.2161C141.429 24.2973 141.587 24.6832 141.641 25.0899C141.695 25.4904 141.838 25.9177 141.96 26.0392C142.082 26.1607 142.181 26.5154 142.181 26.8271C142.181 27.2209 142.257 27.3942 142.429 27.3942C142.616 27.3942 142.677 27.5962 142.677 28.221C142.677 28.8457 142.738 29.0478 142.925 29.0478C143.109 29.0478 143.173 29.2407 143.173 29.7919C143.173 30.3116 143.242 30.536 143.4 30.536C143.546 30.536 143.657 30.8054 143.712 31.3006C143.76 31.7211 143.884 32.1178 143.988 32.1822C144.092 32.2465 144.223 32.5906 144.28 32.9471C144.336 33.3035 144.453 33.6418 144.54 33.6987C144.626 33.7557 144.736 34.1463 144.784 34.5668C144.839 35.0621 144.95 35.3315 145.096 35.3315C145.255 35.3315 145.323 35.5559 145.323 36.0756C145.323 36.6267 145.387 36.8197 145.571 36.8197C145.758 36.8197 145.819 37.0218 145.819 37.6465C145.819 38.2712 145.88 38.4733 146.067 38.4733C146.24 38.4733 146.315 38.6479 146.315 39.0521C146.315 39.4321 146.393 39.6308 146.542 39.6308C146.689 39.6308 146.807 39.9181 146.877 40.4452C146.936 40.893 147.059 41.2844 147.15 41.3147C147.241 41.345 147.363 41.6661 147.422 42.0284C147.481 42.3907 147.628 42.7861 147.749 42.9071C147.87 43.028 147.969 43.3822 147.969 43.6939C147.969 44.0876 148.044 44.2609 148.217 44.2609C148.354 44.2609 148.465 44.4079 148.465 44.5916C148.465 44.8885 148.575 44.9224 149.54 44.9224H150.614V31.1148V17.3072H149.884C148.509 17.3072 148.63 16.3317 148.628 27.3705C148.627 32.795 148.581 37.4004 148.526 37.6052C148.471 37.8099 148.323 37.9772 148.197 37.9772C148.033 37.9772 147.969 37.7441 147.969 37.1504C147.969 36.5257 147.908 36.3236 147.721 36.3236C147.537 36.3236 147.473 36.1306 147.473 35.5795C147.473 35.0598 147.404 34.8354 147.246 34.8354C147.099 34.8354 146.989 34.566 146.933 34.0708C146.886 33.6502 146.762 33.2535 146.658 33.1892C146.554 33.1249 146.423 32.7808 146.367 32.4243C146.311 32.0679 146.165 31.7167 146.042 31.6439C145.919 31.5712 145.819 31.2922 145.819 31.0238C145.819 30.7004 145.735 30.536 145.571 30.536C145.384 30.536 145.323 30.3339 145.323 29.7092C145.323 29.0845 145.262 28.8824 145.075 28.8824C144.891 28.8824 144.827 28.6894 144.827 28.1383C144.827 27.5871 144.763 27.3942 144.579 27.3942C144.395 27.3942 144.331 27.2022 144.331 26.6583C144.331 26.2165 144.242 25.8695 144.108 25.7902C143.985 25.7174 143.839 25.3662 143.783 25.0098C143.727 24.6533 143.596 24.3092 143.492 24.2449C143.388 24.1806 143.264 23.7838 143.216 23.3633C143.161 22.8681 143.05 22.5987 142.904 22.5987C142.745 22.5987 142.677 22.3743 142.677 21.8546C142.677 21.3034 142.613 21.1105 142.429 21.1105C142.242 21.1105 142.181 20.9084 142.181 20.2837C142.181 19.6589 142.12 19.4569 141.933 19.4569C141.767 19.4569 141.685 19.291 141.685 18.9557C141.685 18.6626 141.582 18.4148 141.437 18.3592C141.296 18.305 141.189 18.0583 141.189 17.7856V17.3072H139.861C138.951 17.3072 138.508 17.3722 138.454 17.5139ZM25.7674 17.7206C25.7674 17.857 25.879 17.9686 26.0155 17.9686C26.1519 17.9686 26.2635 18.0802 26.2635 18.2167C26.2635 18.3531 26.3751 18.4647 26.5115 18.4647C26.648 18.4647 26.7596 18.5763 26.7596 18.7127C26.7596 18.8492 26.8712 18.9608 27.0076 18.9608C27.144 18.9608 27.2557 19.0724 27.2557 19.2088C27.2557 19.3452 27.1812 19.4569 27.0903 19.4569C26.9993 19.4569 26.9249 19.5685 26.9249 19.7049C26.9249 19.8427 26.7779 19.9529 26.5942 19.9529C26.4123 19.9529 26.2635 20.0586 26.2635 20.1879C26.2635 20.3171 26.0403 20.4718 25.7674 20.5317C25.4946 20.5916 25.2713 20.7115 25.2713 20.7981C25.2713 20.8846 25.1412 21.0048 24.982 21.065C24.8227 21.1254 24.5942 21.2719 24.4741 21.3906C24.3539 21.5093 24.112 21.6066 23.9367 21.6066C23.7613 21.6066 23.6177 21.7182 23.6177 21.8546C23.6177 21.991 23.5061 22.1026 23.3697 22.1026C23.2333 22.1026 23.1217 22.2143 23.1217 22.3507C23.1217 22.516 22.9563 22.5987 22.6256 22.5987C22.2948 22.5987 22.1295 22.6814 22.1295 22.8468C22.1295 22.985 21.9823 23.0948 21.7971 23.0948C21.6144 23.0948 21.3374 23.2436 21.1816 23.4255C21.0259 23.6074 20.8035 23.7562 20.6872 23.7562C20.571 23.7562 20.4759 23.8679 20.4759 24.0043C20.4759 24.1696 20.3105 24.2523 19.9798 24.2523C19.6491 24.2523 19.4837 24.335 19.4837 24.5004C19.4837 24.6381 19.3367 24.7484 19.153 24.7484C18.9693 24.7484 18.8223 24.8587 18.8223 24.9964C18.8223 25.1507 18.6662 25.2445 18.4089 25.2445C18.1516 25.2445 17.9955 25.1507 17.9955 24.9964C17.9955 24.86 18.1071 24.7484 18.2435 24.7484C18.3799 24.7484 18.4916 24.6368 18.4916 24.5004C18.4916 24.3639 18.6032 24.2523 18.7396 24.2523C18.876 24.2523 18.9876 24.1407 18.9876 24.0043C18.9876 23.8679 19.0993 23.7562 19.2357 23.7562C19.3721 23.7562 19.4837 23.6446 19.4837 23.5082C19.4837 23.3718 19.5953 23.2602 19.7318 23.2602C19.8682 23.2602 19.9798 23.1485 19.9798 23.0121C19.9798 22.8757 20.0914 22.7641 20.2278 22.7641C20.3643 22.7641 20.4759 22.6501 20.4759 22.5109C20.4759 22.3715 20.5875 22.2147 20.7239 22.1625C20.8603 22.1101 20.972 21.9636 20.972 21.8369C20.972 21.7102 21.1208 21.6066 21.3027 21.6066C21.4864 21.6066 21.6334 21.4963 21.6334 21.3585C21.6334 21.2221 21.745 21.1105 21.8814 21.1105C22.0179 21.1105 22.1295 20.9989 22.1295 20.8624C22.1295 20.726 22.2411 20.6144 22.3775 20.6144C22.5153 20.6144 22.6256 20.4674 22.6256 20.2837C22.6256 20.1 22.7359 19.9529 22.8736 19.9529C23.01 19.9529 23.1217 19.8413 23.1217 19.7049C23.1217 19.5685 23.2333 19.4569 23.3697 19.4569C23.5061 19.4569 23.6177 19.3452 23.6177 19.2088C23.6177 19.0724 23.7234 18.9608 23.8527 18.9608C23.9819 18.9608 24.1366 18.7376 24.1965 18.4647C24.2564 18.1919 24.4111 17.9686 24.5403 17.9686C24.6696 17.9686 24.7753 17.857 24.7753 17.7206C24.7753 17.5552 24.9406 17.4725 25.2713 17.4725C25.6021 17.4725 25.7674 17.5552 25.7674 17.7206ZM116.22 19.2088C116.22 19.3821 116.394 19.4569 116.798 19.4569C117.202 19.4569 117.377 19.5316 117.377 19.7049C117.377 19.8413 117.489 19.9529 117.625 19.9529C117.762 19.9529 117.873 20.0646 117.873 20.201C117.873 20.3374 117.976 20.449 118.103 20.449C118.233 20.449 118.378 20.6934 118.439 21.0157C118.497 21.3274 118.636 21.6127 118.747 21.6495C118.901 21.7011 118.959 23.9186 118.993 31.1698C119.032 39.3219 119.006 40.623 118.8 40.623C118.668 40.623 118.513 40.8399 118.455 41.1052C118.397 41.3706 118.242 41.6285 118.111 41.6788C117.98 41.7291 117.873 41.884 117.873 42.0234C117.873 42.1627 117.762 42.2766 117.625 42.2766C117.489 42.2766 117.377 42.3882 117.377 42.5246C117.377 42.6913 117.21 42.7727 116.869 42.7727C116.59 42.7727 116.25 42.8843 116.113 43.0207C115.96 43.1742 115.554 43.2688 115.05 43.2688C114.436 43.2688 114.235 43.2076 114.235 43.0207C114.235 42.8598 114.074 42.7727 113.776 42.7727C113.521 42.7727 113.19 42.6253 113.033 42.442C112.878 42.2601 112.644 42.1112 112.514 42.1112C112.384 42.1112 112.228 41.888 112.168 41.6152C112.108 41.3423 111.954 41.1191 111.824 41.1191C111.624 41.1191 111.589 39.6485 111.589 31.1148C111.589 22.581 111.624 21.1105 111.824 21.1105C111.954 21.1105 112.108 20.8872 112.168 20.6144C112.228 20.3415 112.384 20.1183 112.514 20.1183C112.644 20.1183 112.878 19.9695 113.033 19.7876C113.19 19.6042 113.521 19.4569 113.776 19.4569C114.074 19.4569 114.235 19.3697 114.235 19.2088C114.235 19.0159 114.456 18.9608 115.227 18.9608C115.999 18.9608 116.22 19.0159 116.22 19.2088ZM21.5722 19.8289C21.5175 20.0335 21.4715 20.2569 21.4704 20.325C21.469 20.3931 21.3564 20.449 21.22 20.449C21.0836 20.449 20.972 20.5606 20.972 20.6971C20.972 20.8335 20.8603 20.9451 20.7239 20.9451C20.5875 20.9451 20.4759 21.0567 20.4759 21.1932C20.4759 21.3296 20.3643 21.4412 20.2278 21.4412C20.0901 21.4412 19.9798 21.5882 19.9798 21.7719C19.9798 21.9556 19.8695 22.1026 19.7318 22.1026C19.5953 22.1026 19.4837 22.2143 19.4837 22.3507C19.4837 22.4871 19.3908 22.6 19.277 22.6015C19.025 22.605 18.3262 23.3189 18.3262 23.5729C18.3262 23.6737 18.2146 23.7562 18.0782 23.7562C17.9417 23.7562 17.8301 23.8679 17.8301 24.0043C17.8301 24.1407 17.7185 24.2523 17.5821 24.2523C17.4457 24.2523 17.334 24.3639 17.334 24.5004C17.334 24.6368 17.2224 24.7484 17.086 24.7484C16.9496 24.7484 16.838 24.6368 16.838 24.5004C16.838 24.3639 16.9496 24.2523 17.086 24.2523C17.2224 24.2523 17.334 24.1088 17.334 23.9333C17.334 23.7581 17.4457 23.5029 17.5821 23.3665C17.7185 23.2301 17.8301 23.0015 17.8301 22.8585C17.8301 22.7156 17.9358 22.5987 18.0651 22.5987C18.1942 22.5987 18.349 22.3755 18.4089 22.1026C18.4687 21.8298 18.5863 21.6066 18.67 21.6066C18.7538 21.6066 18.8223 21.4949 18.8223 21.3585C18.8223 21.2208 18.9693 21.1105 19.153 21.1105C19.3349 21.1105 19.4837 21.0048 19.4837 20.8755C19.4837 20.7463 19.707 20.5916 19.9798 20.5317C20.2526 20.4718 20.4759 20.3171 20.4759 20.1879C20.4759 20.0586 20.6247 19.9529 20.8066 19.9529C20.9903 19.9529 21.1373 19.8427 21.1373 19.7049C21.1373 19.5685 21.2575 19.4569 21.4047 19.4569C21.6012 19.4569 21.6456 19.5554 21.5722 19.8289ZM131.598 19.7049C131.598 19.8413 131.71 19.9529 131.846 19.9529C131.982 19.9529 132.094 20.0669 132.094 20.2061C132.094 20.3455 132.199 20.4996 132.327 20.5489C132.455 20.598 132.61 20.8368 132.671 21.0794C132.732 21.3221 132.869 21.5745 132.975 21.6403C133.257 21.8141 133.249 28.2494 132.968 28.3432C132.857 28.3802 132.718 28.6655 132.66 28.9772C132.599 29.2994 132.454 29.5438 132.324 29.5438C132.197 29.5438 132.094 29.6555 132.094 29.7919C132.094 29.9572 131.929 30.0399 131.598 30.0399C131.267 30.0399 131.102 30.1226 131.102 30.288C131.102 30.4981 130.698 30.536 128.456 30.536H125.81V24.9964V19.4569H128.704C131.166 19.4569 131.598 19.4939 131.598 19.7049ZM27.8691 20.7798C27.9168 20.9616 28.0586 21.1105 28.1845 21.1105C28.3538 21.1105 28.4132 21.3681 28.4132 22.1026C28.4132 22.8744 28.3581 23.0948 28.1651 23.0948C28.0287 23.0948 27.9171 22.9832 27.9171 22.8468C27.9171 22.663 27.7241 22.5987 27.173 22.5987C26.6218 22.5987 26.4289 22.5344 26.4289 22.3507C26.4289 22.1774 26.2542 22.1026 25.8501 22.1026C25.446 22.1026 25.2713 22.0279 25.2713 21.8546C25.2713 21.6892 25.4367 21.6066 25.7674 21.6066C26.0981 21.6066 26.2635 21.5239 26.2635 21.3585C26.2635 21.2208 26.4105 21.1105 26.5942 21.1105C26.7761 21.1105 26.9249 21.0043 26.9249 20.8745C26.9249 20.6685 27.1619 20.5344 27.6433 20.4682C27.72 20.4576 27.8217 20.5979 27.8691 20.7798ZM29.9014 21.3585C29.9014 21.4949 30.0044 21.6066 30.1301 21.6066C30.256 21.6066 30.4038 21.7739 30.4587 21.9786C30.61 22.5433 30.5897 22.5987 30.2321 22.5987C30.0484 22.5987 29.9014 22.709 29.9014 22.8468C29.9014 22.9832 29.8356 23.0948 29.7554 23.0948C29.5881 23.0948 29.411 22.5261 29.4077 21.9786C29.4063 21.7739 29.3309 21.6066 29.24 21.6066C29.149 21.6066 29.0746 21.4949 29.0746 21.3585C29.0746 21.2042 29.2307 21.1105 29.488 21.1105C29.7453 21.1105 29.9014 21.2042 29.9014 21.3585ZM53.4057 21.6066C53.5749 21.6066 53.7133 21.7182 53.7133 21.8546C53.7133 21.991 53.8249 22.1026 53.9614 22.1026C54.175 22.1026 54.2094 22.6538 54.2094 26.0713C54.2094 29.4888 54.175 30.0399 53.9614 30.0399C53.8249 30.0399 53.7133 30.135 53.7133 30.2513C53.7133 30.3675 53.5637 30.5907 53.3808 30.7473C52.9341 31.1297 51.0675 31.1593 51.0675 30.784C51.0675 30.6476 50.9629 30.536 50.8349 30.536C50.6594 30.536 50.573 30.1449 50.4828 28.9416C50.3158 26.7137 50.4665 22.2204 50.7109 22.1388C50.816 22.1038 50.9022 21.9748 50.9022 21.8523C50.9022 21.5682 51.449 21.4513 52.3722 21.5383C52.7714 21.5758 53.2364 21.6066 53.4057 21.6066ZM24.1138 22.9101C24.1138 22.9905 24.2626 23.0951 24.4445 23.1427C24.6853 23.2058 24.7753 23.3683 24.7753 23.7407C24.7753 24.0853 24.8563 24.2523 25.0233 24.2523C25.1887 24.2523 25.2713 24.4177 25.2713 24.7484C25.2713 25.0791 25.354 25.2445 25.5194 25.2445C25.6571 25.2445 25.7674 25.3915 25.7674 25.5752C25.7674 25.7589 25.8777 25.9059 26.0155 25.9059C26.1808 25.9059 26.2635 26.0713 26.2635 26.402C26.2635 26.7327 26.3462 26.8981 26.5115 26.8981C26.648 26.8981 26.7596 27.0097 26.7596 27.1461C26.7596 27.3608 26.1258 27.3942 22.0468 27.3942C17.9679 27.3942 17.334 27.4276 17.334 27.6422C17.334 27.7786 17.2224 27.8902 17.086 27.8902C16.9496 27.8902 16.838 27.7786 16.838 27.6422C16.838 27.5058 16.9496 27.3942 17.086 27.3942C17.2224 27.3942 17.334 27.2825 17.334 27.1461C17.334 27.0084 17.481 26.8981 17.6648 26.8981C17.8485 26.8981 17.9955 26.7878 17.9955 26.65C17.9955 26.4949 18.1522 26.402 18.414 26.402C18.6444 26.402 18.8755 26.2904 18.9278 26.154C18.9802 26.0175 19.1267 25.9059 19.2534 25.9059C19.38 25.9059 19.4837 25.8003 19.4837 25.6709C19.4837 25.5418 19.707 25.387 19.9798 25.3272C20.2526 25.2673 20.4759 25.1125 20.4759 24.9834C20.4759 24.8326 20.6536 24.7484 20.972 24.7484C21.3027 24.7484 21.468 24.6657 21.468 24.5004C21.468 24.3626 21.6151 24.2523 21.7988 24.2523C21.9807 24.2523 22.1295 24.1467 22.1295 24.0173C22.1295 23.8882 22.3527 23.7334 22.6256 23.6736C22.8984 23.6137 23.1217 23.4961 23.1217 23.4125C23.1217 23.3286 23.2356 23.2602 23.3748 23.2602C23.5142 23.2602 23.671 23.1485 23.7232 23.0121C23.8258 22.7451 24.1138 22.6698 24.1138 22.9101ZM26.8194 23.5082C26.875 23.6532 27.1229 23.7562 27.4159 23.7562C27.7512 23.7562 27.9171 23.8384 27.9171 24.0043C27.9171 24.1696 28.0825 24.2523 28.4132 24.2523C28.7439 24.2523 28.9093 24.335 28.9093 24.5004C28.9093 24.6368 29.0111 24.7484 29.1358 24.7484C29.3668 24.7484 29.6155 26.0928 29.4597 26.4989C29.3637 26.7491 28.8501 26.893 28.0411 26.8958C27.5295 26.8978 27.421 26.8399 27.421 26.5657C27.421 26.383 27.2722 26.106 27.0903 25.9502C26.9069 25.7931 26.7596 25.4624 26.7596 25.2078C26.7596 24.9096 26.6724 24.7484 26.5115 24.7484C26.3738 24.7484 26.2635 24.6014 26.2635 24.4177C26.2635 24.234 26.1532 24.087 26.0155 24.087C25.8612 24.087 25.7674 23.9309 25.7674 23.6736C25.7674 23.3278 25.8458 23.2602 26.2458 23.2602C26.5185 23.2602 26.7652 23.3668 26.8194 23.5082ZM31.0211 23.8907C31.0571 23.9987 30.9687 24.087 30.8246 24.087C30.6808 24.087 30.5629 23.9691 30.5629 23.8252C30.5629 23.5332 30.9189 23.5839 31.0211 23.8907ZM30.9548 25.1205C31.1305 25.7768 31.0713 26.2366 30.8109 26.2366C30.6272 26.2366 30.5629 26.0437 30.5629 25.4925C30.5629 24.7064 30.7868 24.4937 30.9548 25.1205ZM33.5394 26.8981C33.5394 27.1709 33.4649 27.3942 33.374 27.3942C33.283 27.3942 33.2086 27.6453 33.2086 27.9523C33.2086 28.8503 33.0195 29.5438 32.7746 29.5438C32.6161 29.5438 32.5472 29.3236 32.5472 28.8174C32.5472 28.3243 32.4675 28.0604 32.2991 27.9957C32.1541 27.9402 32.0511 27.6923 32.0511 27.3993C32.0511 26.9368 32.0958 26.8981 32.6299 26.8981C33.034 26.8981 33.2086 26.8233 33.2086 26.65C33.2086 26.5136 33.283 26.402 33.374 26.402C33.4649 26.402 33.5394 26.6252 33.5394 26.8981ZM23.6177 28.4511C23.6177 28.7442 23.5005 28.876 23.1646 28.9603C22.9154 29.0228 22.6643 29.1506 22.6064 29.2442C22.5485 29.3378 22.1571 29.4532 21.7366 29.5007C21.2413 29.5564 20.972 29.6667 20.972 29.8134C20.972 29.9549 20.7856 30.0399 20.4759 30.0399C20.1452 30.0399 19.9798 30.1226 19.9798 30.288C19.9798 30.4717 19.7868 30.536 19.2357 30.536C18.6845 30.536 18.4916 30.6003 18.4916 30.784C18.4916 30.9573 18.3169 31.0321 17.9128 31.0321C17.5333 31.0321 17.334 31.11 17.334 31.2583C17.334 31.3989 17.0726 31.5197 16.6445 31.5771C16.2653 31.628 15.8896 31.7866 15.8096 31.9297C15.7286 32.0744 15.4478 32.1896 15.1761 32.1896C14.8526 32.1896 14.6883 32.2733 14.6883 32.4377C14.6883 32.6214 14.4953 32.6857 13.9442 32.6857C13.393 32.6857 13.2 32.75 13.2 32.9337C13.2 33.107 13.0254 33.1818 12.6213 33.1818C12.2171 33.1818 12.0425 33.2565 12.0425 33.4298C12.0425 33.6135 11.8495 33.6779 11.2984 33.6779C10.7472 33.6779 10.5543 33.6135 10.5543 33.4298C10.5543 33.2934 10.6659 33.1818 10.8023 33.1818C10.9387 33.1818 11.0503 33.0702 11.0503 32.9337C11.0503 32.7973 11.162 32.6857 11.2984 32.6857C11.4348 32.6857 11.5464 32.5741 11.5464 32.4377C11.5464 32.3012 11.658 32.1896 11.7945 32.1896C11.9309 32.1896 12.0425 32.1041 12.0425 31.9996C12.0425 31.8951 12.303 31.5566 12.6213 31.2476C12.9396 30.9383 13.2 30.5401 13.2 30.3627C13.2 30.1851 13.3116 30.0399 13.4481 30.0399C13.5845 30.0399 13.6961 29.9283 13.6961 29.7919C13.6961 29.6555 13.8077 29.5438 13.9442 29.5438C14.0806 29.5438 14.1922 29.4322 14.1922 29.2958C14.1922 29.1594 14.3038 29.0478 14.4402 29.0478C14.5767 29.0478 14.6883 28.9474 14.6883 28.8247C14.6883 28.5466 16.7956 28.3885 20.5172 28.3872C22.1427 28.3867 23.1217 28.3242 23.1217 28.221C23.1217 28.13 23.2333 28.0556 23.3697 28.0556C23.521 28.0556 23.6177 28.2097 23.6177 28.4511ZM25.7674 29.2958C25.7674 29.4322 25.6639 29.5438 25.5372 29.5438C25.4107 29.5438 25.2579 29.7401 25.1977 29.9799C25.1376 30.2198 24.869 30.6084 24.6011 30.8436C24.3331 31.0787 24.1138 31.3661 24.1138 31.4824C24.1138 31.5985 24.0022 31.6935 23.8658 31.6935C23.7004 31.6935 23.6177 31.8589 23.6177 32.1896C23.6177 32.5203 23.5351 32.6857 23.3697 32.6857C23.2333 32.6857 23.1217 32.7973 23.1217 32.9337C23.1217 33.0702 23.01 33.1818 22.8736 33.1818C22.7372 33.1818 22.6256 33.2957 22.6256 33.4349C22.6256 33.5743 22.514 33.7311 22.3775 33.7834C22.2411 33.8358 22.1295 33.9829 22.1295 34.1106C22.1295 34.2381 21.9807 34.4699 21.7988 34.6257C21.6169 34.7815 21.468 35.0039 21.468 35.1201C21.468 35.2364 21.3564 35.3315 21.22 35.3315C21.0823 35.3315 20.972 35.4785 20.972 35.6622C20.972 35.8441 20.899 35.9929 20.8097 35.9929C20.7206 35.9929 20.6009 36.1789 20.5438 36.4063C20.464 36.7245 20.333 36.8197 19.9757 36.8197C19.7202 36.8197 19.4811 36.7291 19.4442 36.6183C19.3989 36.4824 18.8021 36.3956 17.6113 36.3514C16.2478 36.301 15.8458 36.2338 15.8458 36.0569C15.8458 35.8775 15.5038 35.8275 14.2749 35.8275C13.0107 35.8275 12.7039 35.7806 12.7039 35.5871C12.7039 35.4055 12.4334 35.3346 11.601 35.2977C10.9027 35.2666 10.4729 35.1729 10.4296 35.0421C10.3834 34.9025 10.5536 34.8354 10.9539 34.8354C11.3703 34.8354 11.5464 34.7616 11.5464 34.5873C11.5464 34.415 11.7197 34.3393 12.1134 34.3393C12.4252 34.3393 12.7828 34.2368 12.9082 34.1114C13.0335 33.9861 13.3737 33.8313 13.6642 33.7675C13.9557 33.7035 14.1922 33.5464 14.1922 33.4168C14.1922 33.2486 14.4037 33.1818 14.9363 33.1818C15.4875 33.1818 15.6804 33.1175 15.6804 32.9337C15.6804 32.7604 15.8551 32.6857 16.2592 32.6857C16.6633 32.6857 16.838 32.611 16.838 32.4377C16.838 32.2653 17.0113 32.1896 17.405 32.1896C17.7167 32.1896 18.0835 32.078 18.2199 31.9416C18.3563 31.8052 18.6556 31.6935 18.885 31.6935C19.1143 31.6935 19.3675 31.5765 19.4475 31.4336C19.5275 31.2905 19.9032 31.132 20.2824 31.081C20.7105 31.0237 20.972 30.9028 20.972 30.7622C20.972 30.6139 21.1712 30.536 21.5507 30.536C21.9549 30.536 22.1295 30.4613 22.1295 30.288C22.1295 30.1147 22.3041 30.0399 22.7083 30.0399C23.1124 30.0399 23.287 29.9652 23.287 29.7919C23.287 29.6125 23.4714 29.5438 23.9536 29.5438C24.3936 29.5438 24.6526 29.4595 24.7154 29.2958C24.7696 29.1544 25.0163 29.0478 25.289 29.0478C25.604 29.0478 25.7674 29.1324 25.7674 29.2958ZM32.0511 33.5125C32.0511 33.6034 31.9767 33.6779 31.8857 33.6779C31.7948 33.6779 31.7204 33.6034 31.7204 33.5125C31.7204 33.4215 31.7948 33.3471 31.8857 33.3471C31.9767 33.3471 32.0511 33.4215 32.0511 33.5125ZM10.5543 34.0086C10.5543 34.0995 10.4426 34.1739 10.3062 34.1739C10.1698 34.1739 10.0582 34.0995 10.0582 34.0086C10.0582 33.9176 10.1698 33.8432 10.3062 33.8432C10.4426 33.8432 10.5543 33.9176 10.5543 34.0086ZM10.456 36.1331C10.5037 36.2102 11.2293 36.322 12.0686 36.3817C12.9078 36.4412 13.645 36.5717 13.7067 36.6715C13.7707 36.7751 14.575 36.8918 15.5766 36.9429C16.9018 37.0105 17.334 37.0877 17.334 37.2569C17.334 37.4226 17.6143 37.4811 18.4089 37.4811H19.4837V37.9772C19.4837 38.2955 19.3996 38.4733 19.2487 38.4733C19.1196 38.4733 18.9663 38.6903 18.9079 38.9555C18.8497 39.2209 18.695 39.4789 18.5642 39.5291C18.4334 39.5794 18.3262 39.8008 18.3262 40.0214C18.3262 40.2418 18.2146 40.4651 18.0782 40.5175C17.9417 40.5697 17.8301 40.7265 17.8301 40.8659C17.8301 41.0051 17.7185 41.1191 17.5821 41.1191C17.4088 41.1191 17.334 41.2937 17.334 41.6978C17.334 42.102 17.2593 42.2766 17.086 42.2766C16.9206 42.2766 16.838 42.442 16.838 42.7727C16.838 43.1034 16.7553 43.2688 16.5899 43.2688C16.4535 43.2688 16.3419 43.3804 16.3419 43.5168C16.3419 43.6532 16.2303 43.7648 16.0938 43.7648C15.9574 43.7648 15.8458 43.6532 15.8458 43.5168C15.8458 43.3804 15.7633 43.2688 15.6624 43.2688C15.4084 43.2688 14.6946 42.5699 14.6911 42.3179C14.6896 42.2043 14.5767 42.1112 14.4402 42.1112C14.286 42.1112 14.1922 41.9551 14.1922 41.6978C14.1922 41.4405 14.0984 41.2844 13.9442 41.2844C13.8064 41.2844 13.6961 41.1374 13.6961 40.9537C13.6961 40.77 13.5858 40.623 13.4481 40.623C13.3116 40.623 13.2 40.5114 13.2 40.375C13.2 40.2385 13.0884 40.1269 12.952 40.1269C12.8156 40.1269 12.7039 40.0444 12.7039 39.9435C12.7039 39.6895 12.0051 38.9757 11.7531 38.9722C11.6344 38.9705 11.5464 38.7584 11.5464 38.4733C11.5464 38.1426 11.4637 37.9772 11.2984 37.9772C11.162 37.9772 11.0503 37.8656 11.0503 37.7292C11.0503 37.5928 10.9387 37.4811 10.8023 37.4811C10.6659 37.4811 10.5543 37.3672 10.5543 37.228C10.5543 37.0886 10.4426 36.9318 10.3062 36.8796C10.1698 36.8271 10.0582 36.6806 10.0582 36.554C10.0582 36.4273 9.94657 36.3236 9.81014 36.3236C9.67372 36.3236 9.5621 36.2492 9.5621 36.1583C9.5621 35.9577 10.3342 35.9359 10.456 36.1331ZM8.40458 37.4811V38.4733H7.9085C7.57778 38.4733 7.41242 38.556 7.41242 38.7213C7.41242 38.8591 7.26541 38.9694 7.0817 38.9694C6.8998 38.9694 6.75098 39.0751 6.75098 39.2044C6.75098 39.3335 6.52774 39.4883 6.2549 39.5481C5.98205 39.608 5.75882 39.7628 5.75882 39.8919C5.75882 40.0427 5.58105 40.1269 5.26273 40.1269C4.93201 40.1269 4.76665 40.2096 4.76665 40.375C4.76665 40.5114 4.65504 40.623 4.51861 40.623C4.38219 40.623 4.27057 40.5114 4.27057 40.375C4.27057 40.2385 4.38219 40.1269 4.51861 40.1269C4.65504 40.1269 4.76665 40.0153 4.76665 39.8789C4.76665 39.7424 4.87827 39.6308 5.01469 39.6308C5.15112 39.6308 5.26273 39.5192 5.26273 39.3828C5.26273 39.2464 5.37435 39.1347 5.51078 39.1347C5.64852 39.1347 5.75882 38.9877 5.75882 38.804C5.75882 38.6203 5.86911 38.4733 6.00686 38.4733C6.14328 38.4733 6.2549 38.3617 6.2549 38.2253C6.2549 38.0875 6.4019 37.9772 6.58562 37.9772C6.76933 37.9772 6.91634 37.8669 6.91634 37.7292C6.91634 37.5928 7.02796 37.4811 7.16438 37.4811C7.3008 37.4811 7.41242 37.3695 7.41242 37.2331C7.41242 37.0967 7.52404 36.9851 7.66046 36.9851C7.79688 36.9851 7.9085 36.8734 7.9085 36.737C7.9085 36.6006 8.02012 36.489 8.15654 36.489C8.34952 36.489 8.40458 36.7094 8.40458 37.4811ZM9.39674 37.2331C9.39674 37.3695 9.50836 37.4811 9.64478 37.4811C9.78121 37.4811 9.89282 37.5928 9.89282 37.7292C9.89282 37.8656 9.99849 37.9772 10.1278 37.9772C10.2569 37.9772 10.4117 38.2005 10.4716 38.4733C10.5314 38.7462 10.6862 38.9694 10.8154 38.9694C10.9447 38.9694 11.0503 39.1182 11.0503 39.3001C11.0503 39.4838 11.1606 39.6308 11.2984 39.6308C11.4348 39.6308 11.5464 39.7424 11.5464 39.8789C11.5464 40.0153 11.658 40.1269 11.7945 40.1269C11.9309 40.1269 12.0425 40.2385 12.0425 40.375C12.0425 40.5114 12.146 40.623 12.2727 40.623C12.3992 40.623 12.552 40.8193 12.6122 41.059C12.6724 41.299 12.9409 41.6876 13.2088 41.9227C13.4768 42.1579 13.6961 42.4453 13.6961 42.5615C13.6961 42.6776 13.8077 42.7727 13.9442 42.7727C14.0806 42.7727 14.1922 42.8843 14.1922 43.0207C14.1922 43.1571 14.3038 43.2688 14.4402 43.2688C14.5767 43.2688 14.6883 43.3827 14.6883 43.5219C14.6883 43.6613 14.7999 43.8181 14.9363 43.8703C15.462 44.0721 14.9987 45.4184 14.4035 45.4184C14.2873 45.4184 14.1922 45.5301 14.1922 45.6665C14.1922 45.8042 14.0452 45.9145 13.8615 45.9145C13.6778 45.9145 13.5308 46.0248 13.5308 46.1626C13.5308 46.3168 13.3747 46.4106 13.1174 46.4106C12.8601 46.4106 12.7039 46.5044 12.7039 46.6586C12.7039 46.7964 12.5569 46.9067 12.3732 46.9067C12.1895 46.9067 12.0425 47.017 12.0425 47.1547C12.0425 47.2911 11.9309 47.4028 11.7945 47.4028C11.658 47.4028 11.5464 47.5144 11.5464 47.6508C11.5464 47.7872 11.4905 47.8998 11.4224 47.9012C11.3543 47.9023 11.1309 47.9483 10.9263 48.003C10.5759 48.0969 10.5543 48.0535 10.5543 47.2568C10.5543 46.6552 10.4894 46.4106 10.3302 46.4106C10.1584 46.4106 10.0853 45.9243 10.0162 44.3223C9.96657 43.1737 9.85165 42.1876 9.7607 42.1312C9.66992 42.0747 9.54127 41.1171 9.47496 40.0029C9.40848 38.8887 9.28942 37.9772 9.21022 37.9772C9.13084 37.9772 9.06602 37.754 9.06602 37.4811C9.06602 37.2083 9.14043 36.9851 9.23138 36.9851C9.32233 36.9851 9.39674 37.0967 9.39674 37.2331ZM19.9798 39.7962C19.9798 39.9799 20.0901 40.1269 20.2278 40.1269C20.4309 40.1269 20.4759 40.4117 20.4759 41.6978V43.2688H19.7318C19.1806 43.2688 18.9876 43.3331 18.9876 43.5168C18.9876 43.7042 18.7856 43.7648 18.1608 43.7648C17.5361 43.7648 17.334 43.7042 17.334 43.5168C17.334 43.3804 17.4457 43.2688 17.5821 43.2688C17.7185 43.2688 17.8301 43.1252 17.8301 42.9498C17.8301 42.7745 17.9427 42.5183 18.0803 42.3806C18.2181 42.243 18.3761 41.9029 18.4317 41.6247C18.4874 41.3466 18.6353 41.1191 18.7603 41.1191C18.9026 41.1191 18.9876 40.9337 18.9876 40.623C18.9876 40.2923 19.0703 40.1269 19.2357 40.1269C19.3734 40.1269 19.4837 39.9799 19.4837 39.7962C19.4837 39.6125 19.594 39.4655 19.7318 39.4655C19.8695 39.4655 19.9798 39.6125 19.9798 39.7962ZM3.11305 43.2688C3.11305 43.5995 3.03037 43.7648 2.86501 43.7648C2.66525 43.7648 2.61697 44.0221 2.61697 45.0877C2.61697 46.1533 2.56868 46.4106 2.36893 46.4106C2.18521 46.4106 2.12089 46.2176 2.12089 45.6665C2.12089 45.1153 2.05656 44.9224 1.87285 44.9224C1.68549 44.9224 1.62481 44.7203 1.62481 44.0956C1.62481 43.3212 1.65127 43.2688 2.04333 43.2688C2.27368 43.2688 2.50486 43.1571 2.55711 43.0207C2.72975 42.5709 3.11305 42.7419 3.11305 43.2688ZM19.9798 44.5916C19.9798 44.7754 19.8695 44.9224 19.7318 44.9224C19.5664 44.9224 19.4837 45.0877 19.4837 45.4184C19.4837 45.7397 19.3999 45.9145 19.2458 45.9145C19.0912 45.9145 18.9695 46.171 18.898 46.6476C18.8375 47.0507 18.6842 47.4205 18.5572 47.4691C18.43 47.5179 18.3262 47.7381 18.3262 47.9587C18.3262 48.1791 18.2146 48.4024 18.0782 48.4548C17.9331 48.5103 17.8301 48.7582 17.8301 49.0512C17.8301 49.3866 17.7479 49.5524 17.5821 49.5524C17.4088 49.5524 17.334 49.7271 17.334 50.1312C17.334 50.5354 17.2593 50.71 17.086 50.71C16.875 50.71 16.838 50.2807 16.838 47.838V44.9658L17.5232 44.8739C17.9001 44.8235 18.2536 44.7107 18.3087 44.6234C18.4262 44.4372 18.8874 44.3071 19.5251 44.2801C19.876 44.2652 19.9798 44.3365 19.9798 44.5916ZM14.1922 47.1547C14.1922 47.2911 14.0806 47.4028 13.9442 47.4028C13.8059 47.4028 13.6961 47.5499 13.6961 47.7351C13.6961 47.9179 13.5473 48.1948 13.3654 48.3506C13.1835 48.5064 13.0347 48.7208 13.0347 48.8273C13.0347 48.9338 12.9231 49.0638 12.7866 49.1162C12.6502 49.1685 12.5386 49.3997 12.5386 49.63C12.5386 49.8918 12.4457 50.0485 12.2905 50.0485C12.1528 50.0485 12.0425 50.1955 12.0425 50.3792C12.0425 50.563 11.9322 50.71 11.7945 50.71C11.6291 50.71 11.5464 50.8753 11.5464 51.2061C11.5464 51.5244 11.4623 51.7021 11.3115 51.7021C11.1823 51.7021 11.0275 51.9254 10.9677 52.1982C10.8853 52.5732 10.7663 52.6943 10.4802 52.6943C10.1602 52.6943 10.0873 52.5862 10.0079 51.9952C9.95632 51.6105 9.83495 51.2694 9.73821 51.2371C9.24114 51.0714 9.7865 49.5524 10.3429 49.5524C10.4592 49.5524 10.5543 49.4408 10.5543 49.3044C10.5543 49.139 10.7196 49.0564 11.0503 49.0564C11.3811 49.0564 11.5464 48.9737 11.5464 48.8083C11.5464 48.6719 11.658 48.5603 11.7945 48.5603C11.9309 48.5603 12.0425 48.4487 12.0425 48.3122C12.0425 48.1745 12.1895 48.0642 12.3732 48.0642C12.5551 48.0642 12.7039 47.9585 12.7039 47.8292C12.7039 47.7001 12.9272 47.5453 13.2 47.4854C13.4729 47.4256 13.6961 47.2708 13.6961 47.1417C13.6961 47.0123 13.8077 46.9067 13.9442 46.9067C14.0806 46.9067 14.1922 47.0183 14.1922 47.1547ZM19.9798 47.4028C19.9798 47.7335 19.8971 47.8988 19.7318 47.8988C19.5664 47.8988 19.4837 47.7335 19.4837 47.4028C19.4837 47.072 19.5664 46.9067 19.7318 46.9067C19.8971 46.9067 19.9798 47.072 19.9798 47.4028ZM19.4407 49.8365C19.3867 50.898 19.2775 51.633 19.169 51.6692C19.0692 51.7025 18.9876 51.9746 18.9876 52.2739C18.9876 53.0417 18.8072 53.8518 18.6363 53.8518C18.5567 53.8518 18.4916 53.7488 18.4916 53.6231C18.4916 53.4973 18.3427 53.3554 18.1608 53.3078C17.9789 53.2603 17.8301 53.1027 17.8301 52.9579C17.8301 52.8129 17.7185 52.6943 17.5821 52.6943C17.4167 52.6943 17.334 52.5289 17.334 52.1982C17.334 51.8675 17.4167 51.7021 17.5821 51.7021C17.7464 51.7021 17.8301 51.5378 17.8301 51.2143C17.8301 50.9426 17.9454 50.6618 18.0901 50.5808C18.2331 50.5008 18.3917 50.1251 18.4426 49.7459C18.5 49.3178 18.6209 49.0564 18.7614 49.0564C18.9025 49.0564 18.9876 48.8698 18.9876 48.5603C18.9876 48.2102 19.0677 48.0642 19.2595 48.0642C19.5003 48.0642 19.5209 48.2658 19.4407 49.8365ZM19.9798 54.0999C19.9798 54.651 19.9155 54.844 19.7318 54.844C19.548 54.844 19.4837 54.651 19.4837 54.0999C19.4837 53.5487 19.548 53.3557 19.7318 53.3557C19.9155 53.3557 19.9798 53.5487 19.9798 54.0999Z" fill="white"/>
</svg>