<svg viewBox="0 0 107 54" fill="none" xmlns="http://www.w3.org/2000/svg">
<path d="M10.0759 0.0473633C11.1902 0.0473633 12.1373 0.205213 12.9172 0.520912C13.6972 0.836612 14.4586 1.28231 15.2014 1.85799C15.4057 2.02513 15.5821 2.1087 15.7307 2.1087C16.1021 2.1087 16.3435 1.55158 16.4549 0.437345H17.0956C17.0213 1.64443 16.9842 3.78005 16.9842 6.84419H16.3435C16.1392 5.6371 15.9535 4.77357 15.7864 4.25359C15.6192 3.71505 15.3407 3.20436 14.9507 2.72152C14.3936 1.99727 13.6786 1.45873 12.8058 1.10589C11.9516 0.734474 11.023 0.548767 10.0202 0.548767C8.81313 0.548767 7.75461 0.948035 6.84465 1.74657C5.95327 2.5451 5.25687 3.68719 4.75547 5.17284C4.25406 6.63991 4.00336 8.36697 4.00336 10.354C4.00336 12.3782 4.27263 14.1146 4.81118 15.5631C5.34972 17.0116 6.09255 18.1165 7.03964 18.8779C8.00531 19.6207 9.09169 19.9921 10.2988 19.9921C11.2273 19.9921 12.128 19.8157 13.0008 19.4629C13.8736 19.11 14.5607 18.5808 15.0621 17.8751C15.4335 17.3551 15.7028 16.798 15.8699 16.2037C16.0371 15.6095 16.1949 14.6995 16.3435 13.4739H16.9842C16.9842 16.668 17.0213 18.8965 17.0956 20.1593H16.4549C16.3992 19.565 16.3156 19.1472 16.2042 18.9058C16.1114 18.6458 15.9721 18.5158 15.7864 18.5158C15.6378 18.5158 15.4428 18.5901 15.2014 18.7386C14.3657 19.3329 13.5672 19.7879 12.8058 20.1036C12.0444 20.4007 11.1252 20.5493 10.0481 20.5493C8.28387 20.5493 6.73323 20.15 5.39615 19.3515C4.07764 18.5529 3.04697 17.4015 2.30415 15.8973C1.5799 14.3745 1.21777 12.5639 1.21777 10.4654C1.21777 8.42268 1.58918 6.61205 2.33201 5.03356C3.0934 3.45506 4.14264 2.2294 5.47972 1.35659C6.83537 0.483771 8.36744 0.0473633 10.0759 0.0473633Z" fill="white"/>
<path d="M34.5745 0.520912C35.4102 0.520912 36.1066 0.493056 36.6637 0.437345V0.994462C35.7351 1.21731 35.0016 2.02513 34.4631 3.41792L27.9169 20.2986H27.6941H27.4712L20.6744 2.77724C20.2287 1.62586 19.588 1.0316 18.7524 0.994462V0.437345C19.4952 0.493056 20.4887 0.520912 21.7329 0.520912C23.33 0.520912 24.5185 0.493056 25.2985 0.437345V0.994462C24.5928 1.0316 24.0821 1.12445 23.7664 1.27302C23.4693 1.40301 23.3207 1.65372 23.3207 2.02513C23.3207 2.34083 23.4322 2.77724 23.655 3.33435L28.6969 16.733L33.2374 4.94999C33.6088 3.94718 33.7945 3.18579 33.7945 2.66581C33.7945 2.09012 33.5902 1.67229 33.1817 1.4123C32.7917 1.15231 32.1882 1.01303 31.3711 0.994462V0.437345C32.4296 0.493056 33.4974 0.520912 34.5745 0.520912Z" fill="white"/>
<path d="M59.6415 0.520912C60.4772 0.520912 61.1735 0.493056 61.7307 0.437345V0.994462C60.6907 1.23588 59.9572 2.0437 59.5301 3.41792L54.2653 20.2986H54.0425H53.8196L48.9727 5.9528L44.5436 20.2986H44.3208H44.0979L38.1925 2.77724C37.8025 1.62586 37.1618 1.0316 36.2704 0.994462V0.437345C37.0318 0.493056 38.0253 0.520912 39.251 0.520912C40.5881 0.520912 41.5909 0.493056 42.2594 0.437345V0.994462C41.758 1.0316 41.4052 1.12445 41.2009 1.27302C40.9966 1.42158 40.8945 1.65372 40.8945 1.96942C40.8945 2.26655 40.9966 2.72152 41.2009 3.33435L45.2679 15.7581L48.6663 4.97785L47.9142 2.77724C47.5428 1.62586 46.9949 1.0316 46.2707 0.994462V0.437345C46.9392 0.493056 47.8399 0.520912 48.9727 0.520912C50.5698 0.520912 51.7583 0.493056 52.5382 0.437345V0.994462C51.8326 1.0316 51.3404 1.11517 51.0619 1.24516C50.7833 1.35659 50.644 1.60729 50.644 1.99727C50.644 2.33154 50.7369 2.77724 50.9226 3.33435L54.9338 15.7302L58.3601 4.94999C58.6572 4.04003 58.8058 3.28793 58.8058 2.69367C58.8058 2.08084 58.6201 1.65372 58.2487 1.4123C57.8773 1.15231 57.2737 1.01303 56.4381 0.994462V0.437345C57.4966 0.493056 58.5644 0.520912 59.6415 0.520912Z" fill="white"/>
<path d="M5.75805 44.6907V49.7048C5.75805 50.4104 5.83233 50.9211 5.98089 51.2368C6.12946 51.5525 6.38945 51.7661 6.76086 51.8775C7.13227 51.9889 7.73581 52.0632 8.57149 52.1004V52.6575C7.60582 52.6018 6.24088 52.5739 4.47668 52.5739C2.87961 52.5739 1.6911 52.6018 0.911133 52.6575V52.1004C1.57967 52.0632 2.06251 51.9889 2.35964 51.8775C2.67534 51.7661 2.8889 51.5525 3.00032 51.2368C3.11174 50.9211 3.16745 50.4104 3.16745 49.7048V35.8883C3.16745 35.1826 3.11174 34.6719 3.00032 34.3562C2.8889 34.0405 2.67534 33.8269 2.35964 33.7155C2.06251 33.6041 1.57967 33.5298 0.911133 33.4927V32.9355C1.6911 32.9913 2.8239 33.0191 4.30954 33.0191L7.31797 32.9913C7.67081 32.9727 8.07008 32.9634 8.51577 32.9634C10.6885 32.9634 12.3506 33.4648 13.502 34.4676C14.6533 35.4519 15.229 36.7797 15.229 38.451C15.229 39.4724 14.9969 40.4566 14.5326 41.4037C14.0869 42.3322 13.3163 43.1122 12.2206 43.7436C11.1435 44.375 9.70429 44.6907 7.90295 44.6907H5.75805ZM7.81938 33.4927C7.24369 33.4927 6.80728 33.5577 6.51015 33.6877C6.2316 33.8176 6.03661 34.0498 5.92518 34.3841C5.81376 34.7183 5.75805 35.2197 5.75805 35.8883V44.1336H7.62439C9.4443 44.1336 10.6978 43.6508 11.3849 42.6851C12.0906 41.7008 12.4434 40.3916 12.4434 38.7574C12.4434 36.9561 12.0813 35.6283 11.3571 34.774C10.6514 33.9198 9.47216 33.4927 7.81938 33.4927Z" fill="white"/>
<path d="M20.3858 52.8525C19.2159 52.8525 18.3431 52.5646 17.7674 51.9889C17.2103 51.3947 16.9317 50.5776 16.9317 49.5376C16.9317 48.7019 17.1546 48.0148 17.6003 47.4763C18.0645 46.9377 18.6031 46.5106 19.2159 46.1949C19.8473 45.8792 20.6737 45.545 21.6951 45.1921C22.735 44.8393 23.5057 44.5143 24.0071 44.2172C24.5085 43.92 24.7592 43.5208 24.7592 43.0194V41.2923C24.7592 40.2152 24.5271 39.4817 24.0628 39.0917C23.6171 38.6831 22.9857 38.4789 22.1686 38.4789C20.8687 38.4789 19.9494 38.8131 19.4109 39.4817C19.7823 39.5745 20.0887 39.7695 20.3301 40.0666C20.5901 40.3638 20.7201 40.7352 20.7201 41.1809C20.7201 41.6451 20.5715 42.0165 20.2744 42.2951C19.9773 42.5551 19.5966 42.6851 19.1323 42.6851C18.6124 42.6851 18.2224 42.5272 17.9624 42.2115C17.7024 41.8773 17.5724 41.478 17.5724 41.0137C17.5724 40.568 17.6745 40.1966 17.8788 39.8995C18.1017 39.6024 18.4266 39.3052 18.8538 39.0081C19.2995 38.6924 19.8659 38.4324 20.553 38.2282C21.2401 38.0239 21.9922 37.9217 22.8093 37.9217C24.2578 37.9217 25.3535 38.2653 26.0963 38.9524C26.5605 39.3795 26.867 39.8995 27.0155 40.5123C27.1827 41.1066 27.2662 41.8958 27.2662 42.8801V50.624C27.2662 51.0883 27.3312 51.4225 27.4612 51.6268C27.5912 51.8311 27.8141 51.9332 28.1298 51.9332C28.3526 51.9332 28.5569 51.8868 28.7426 51.7939C28.9469 51.6825 29.1604 51.534 29.3833 51.3483L29.6897 51.8218C29.2069 52.1932 28.789 52.4625 28.4362 52.6296C28.1019 52.7782 27.6748 52.8525 27.1548 52.8525C26.2634 52.8525 25.6413 52.6296 25.2885 52.1839C24.9356 51.7382 24.7592 51.1347 24.7592 50.3733C24.2021 51.3018 23.5614 51.9518 22.8372 52.3232C22.1129 52.676 21.2958 52.8525 20.3858 52.8525ZM21.6115 51.7382C22.8372 51.7382 23.8864 51.0326 24.7592 49.6212V44.1614C24.5921 44.4214 24.3599 44.635 24.0628 44.8021C23.7657 44.9693 23.3107 45.1921 22.6979 45.4707C21.9922 45.7678 21.4165 46.0556 20.9708 46.3342C20.5437 46.5942 20.1723 46.9563 19.8566 47.4206C19.5409 47.8848 19.383 48.4791 19.383 49.2034C19.383 50.039 19.5873 50.6704 19.9959 51.0975C20.4044 51.5247 20.943 51.7382 21.6115 51.7382Z" fill="white"/>
<path d="M39.1898 37.9217C39.9327 37.9217 40.5362 38.1353 41.0005 38.5624C41.4833 38.9895 41.7247 39.5095 41.7247 40.1224C41.7247 40.6052 41.5761 41.023 41.279 41.3759C41.0005 41.7101 40.6198 41.8773 40.1369 41.8773C39.7284 41.8773 39.3755 41.7473 39.0784 41.4873C38.7998 41.2273 38.6606 40.8745 38.6606 40.4288C38.6606 39.8159 38.9763 39.3145 39.6077 38.9246C39.4777 38.7388 39.2827 38.646 39.0227 38.646C38.2984 38.646 37.6392 38.9338 37.0449 39.5095C36.4507 40.0666 35.9864 40.7538 35.6521 41.5709C35.3179 42.388 35.1507 43.1586 35.1507 43.8829V49.7883C35.1507 50.6426 35.3922 51.2368 35.875 51.5711C36.3764 51.9054 37.1192 52.0725 38.1035 52.0725V52.6575L37.4349 52.6296C35.5407 52.5739 34.3336 52.5461 33.8137 52.5461C33.3308 52.5461 32.2352 52.5832 30.5267 52.6575V52.0725C31.3066 52.0725 31.8545 51.9332 32.1702 51.6547C32.4859 51.3575 32.6437 50.8283 32.6437 50.0669V41.348C32.6437 40.4938 32.4859 39.8716 32.1702 39.4817C31.8545 39.0917 31.3066 38.8967 30.5267 38.8967V38.3117C31.1209 38.3674 31.6966 38.3953 32.2537 38.3953C33.4237 38.3953 34.3893 38.2653 35.1507 38.0053V41.4873C35.485 40.5588 36.0143 39.7324 36.7385 39.0081C37.4813 38.2839 38.2984 37.9217 39.1898 37.9217Z" fill="white"/>
<path d="M47.416 38.3396H51.5387V38.8967H47.416V49.6769C47.416 50.5126 47.5646 51.1161 47.8617 51.4875C48.1774 51.8589 48.6231 52.0446 49.1988 52.0446C49.7745 52.0446 50.2666 51.8125 50.6751 51.3483C51.0837 50.884 51.4272 50.1226 51.7058 49.0641L52.2629 49.2034C51.7987 51.7661 50.5916 53.0475 48.6417 53.0475C48.0103 53.0475 47.4903 52.9732 47.0817 52.8246C46.6732 52.676 46.3111 52.4439 45.9954 52.1282C45.5868 51.7197 45.299 51.2183 45.1318 50.624C44.9833 50.0297 44.909 49.2312 44.909 48.2284V38.8967H42.2348V38.3396H44.909V34.0776C45.9489 34.0405 46.7846 33.9105 47.416 33.6877V38.3396Z" fill="white"/>
<path d="M62.1382 37.9217C63.4382 37.9217 64.4224 38.2746 65.091 38.9803C65.4438 39.3517 65.6945 39.8159 65.8431 40.3731C65.9916 40.9302 66.0659 41.6823 66.0659 42.6294V50.0669C66.0659 50.8283 66.2238 51.3575 66.5395 51.6547C66.8552 51.9332 67.403 52.0725 68.183 52.0725V52.6575C66.4745 52.5832 65.3602 52.5461 64.8403 52.5461C64.3203 52.5461 63.2803 52.5832 61.7204 52.6575V52.0725C62.4075 52.0725 62.8811 51.9332 63.1411 51.6547C63.4196 51.3575 63.5589 50.8283 63.5589 50.0669V42.0165C63.5589 40.9766 63.4103 40.1873 63.1132 39.6488C62.8161 39.0917 62.2125 38.8131 61.3026 38.8131C60.5412 38.8131 59.8634 39.036 59.2691 39.4817C58.6748 39.9274 58.2106 40.5402 57.8763 41.3202C57.5606 42.0815 57.4028 42.9358 57.4028 43.8829V50.0669C57.4028 50.8283 57.5327 51.3575 57.7927 51.6547C58.0713 51.9332 58.5541 52.0725 59.2412 52.0725V52.6575C57.6813 52.5832 56.6414 52.5461 56.1214 52.5461C55.6014 52.5461 54.4872 52.5832 52.7787 52.6575V52.0725C53.5587 52.0725 54.1065 51.9332 54.4222 51.6547C54.7379 51.3575 54.8957 50.8283 54.8957 50.0669V41.348C54.8957 40.4938 54.7379 39.8716 54.4222 39.4817C54.1065 39.0917 53.5587 38.8967 52.7787 38.8967V38.3117C53.3729 38.3674 53.9486 38.3953 54.5058 38.3953C55.6757 38.3953 56.6414 38.2653 57.4028 38.0053V41.2923C57.867 40.1038 58.5077 39.2495 59.3248 38.7296C60.1605 38.191 61.0983 37.9217 62.1382 37.9217Z" fill="white"/>
<path d="M81.4891 49.3148C81.1548 50.3362 80.5235 51.2183 79.5949 51.9611C78.685 52.6853 77.58 53.0475 76.2801 53.0475C74.9616 53.0475 73.8195 52.7503 72.8538 52.1561C71.8882 51.5432 71.1453 50.6983 70.6254 49.6212C70.1239 48.5255 69.8732 47.2627 69.8732 45.8328C69.8732 44.2172 70.1332 42.8151 70.6532 41.6266C71.1732 40.4381 71.9067 39.5281 72.8538 38.8967C73.8009 38.2467 74.9059 37.9217 76.1687 37.9217C77.84 37.9217 79.1214 38.4324 80.0128 39.4538C80.9227 40.4566 81.3777 41.9887 81.3777 44.05H72.6588C72.6031 44.57 72.5753 45.1643 72.5753 45.8328C72.5753 47.0585 72.7702 48.1263 73.1602 49.0362C73.5688 49.9462 74.098 50.6519 74.748 51.1533C75.4166 51.6361 76.113 51.8775 76.8372 51.8775C77.7286 51.8775 78.5178 51.664 79.2049 51.2368C79.8921 50.8097 80.4677 50.0947 80.932 49.0919L81.4891 49.3148ZM76.0572 38.451C75.1844 38.451 74.4323 38.8781 73.8009 39.7324C73.1695 40.5866 72.7795 41.8494 72.631 43.5208H78.7035C78.7407 42.0723 78.5271 40.8652 78.0629 39.8995C77.6172 38.9338 76.9486 38.451 76.0572 38.451Z" fill="white"/>
<path d="M92.154 37.9217C92.8968 37.9217 93.5004 38.1353 93.9646 38.5624C94.4474 38.9895 94.6889 39.5095 94.6889 40.1224C94.6889 40.6052 94.5403 41.023 94.2432 41.3759C93.9646 41.7101 93.5839 41.8773 93.1011 41.8773C92.6925 41.8773 92.3397 41.7473 92.0426 41.4873C91.764 41.2273 91.6247 40.8745 91.6247 40.4288C91.6247 39.8159 91.9404 39.3145 92.5718 38.9246C92.4418 38.7388 92.2468 38.646 91.9868 38.646C91.2626 38.646 90.6033 38.9338 90.0091 39.5095C89.4148 40.0666 88.9506 40.7538 88.6163 41.5709C88.282 42.388 88.1149 43.1586 88.1149 43.8829V49.7883C88.1149 50.6426 88.3563 51.2368 88.8391 51.5711C89.3405 51.9054 90.0834 52.0725 91.0676 52.0725V52.6575L90.3991 52.6296C88.5049 52.5739 87.2978 52.5461 86.7778 52.5461C86.295 52.5461 85.1993 52.5832 83.4908 52.6575V52.0725C84.2708 52.0725 84.8186 51.9332 85.1343 51.6547C85.45 51.3575 85.6079 50.8283 85.6079 50.0669V41.348C85.6079 40.4938 85.45 39.8716 85.1343 39.4817C84.8186 39.0917 84.2708 38.8967 83.4908 38.8967V38.3117C84.0851 38.3674 84.6608 38.3953 85.2179 38.3953C86.3878 38.3953 87.3535 38.2653 88.1149 38.0053V41.4873C88.4492 40.5588 88.9784 39.7324 89.7027 39.0081C90.4455 38.2839 91.2626 37.9217 92.154 37.9217Z" fill="white"/>
<path d="M100.882 37.9217C101.55 37.9217 102.144 38.0239 102.664 38.2282C103.184 38.4324 103.602 38.6738 103.918 38.9524C104.122 39.101 104.289 39.1753 104.419 39.1753C104.754 39.1753 104.958 38.7667 105.032 37.9496H105.673C105.598 38.8596 105.561 40.4381 105.561 42.6851H104.921C104.716 41.4594 104.317 40.4473 103.723 39.6488C103.147 38.8503 102.284 38.451 101.132 38.451C100.464 38.451 99.9159 38.646 99.4888 39.036C99.0617 39.4074 98.8481 39.9274 98.8481 40.5959C98.8481 41.2459 99.0709 41.7937 99.5166 42.2394C99.9623 42.6665 100.677 43.1865 101.662 43.7993C101.829 43.8922 102.079 44.05 102.414 44.2729C103.268 44.83 103.955 45.3221 104.475 45.7492C104.995 46.1764 105.413 46.6685 105.728 47.2256C106.063 47.7827 106.23 48.4234 106.23 49.1476C106.23 50.3733 105.766 51.3297 104.837 52.0168C103.927 52.7039 102.804 53.0475 101.467 53.0475C100.631 53.0475 99.8973 52.9175 99.2659 52.6575C98.8574 52.4532 98.4767 52.2025 98.1238 51.9054C98.0496 51.8311 97.966 51.7939 97.8731 51.7939C97.7431 51.7939 97.6224 51.8868 97.511 52.0725C97.4182 52.2582 97.3439 52.5182 97.2882 52.8525H96.6475C96.7218 51.7939 96.7589 49.9369 96.7589 47.2813H97.3996C97.6039 49.0269 97.9753 50.3362 98.5138 51.209C99.0524 52.0632 99.9716 52.4903 101.272 52.4903C101.922 52.4903 102.497 52.2768 102.999 51.8497C103.5 51.4225 103.751 50.754 103.751 49.844C103.751 49.1198 103.5 48.507 102.999 48.0056C102.516 47.5041 101.717 46.9006 100.603 46.1949C99.693 45.6192 98.9874 45.1457 98.486 44.7743C98.0031 44.4029 97.5946 43.9479 97.2603 43.4093C96.926 42.8708 96.7589 42.2394 96.7589 41.5151C96.7589 40.3452 97.1489 39.4538 97.9288 38.841C98.7088 38.2282 99.693 37.9217 100.882 37.9217Z" fill="white"/>
<path d="M72.8625 6.23096L74.1654 10.2409H78.3818L74.9707 12.7192L76.2736 16.7292L72.8625 14.2509L69.4514 16.7292L70.7544 12.7192L67.3433 10.2409H71.5596L72.8625 6.23096Z" fill="white"/>
<path d="M86.7903 6.23096L88.0932 10.2409H92.3095L88.8984 12.7192L90.2014 16.7292L86.7903 14.2509L83.3792 16.7292L84.6821 12.7192L81.271 10.2409H85.4873L86.7903 6.23096Z" fill="white"/>
<path d="M100.719 6.23096L102.022 10.2409H106.239L102.828 12.7192L104.131 16.7292L100.719 14.2509L97.3084 16.7292L98.6113 12.7192L95.2002 10.2409H99.4165L100.719 6.23096Z" fill="white"/>
</svg>
