<svg  viewBox="0 0 137 91" fill="none" xmlns="http://www.w3.org/2000/svg">
    <path d="M21.0759 17.0474C22.1902 17.0474 23.1373 17.2052 23.9172 17.5209C24.6972 17.8366 25.4586 18.2823 26.2014 18.858C26.4057 19.0251 26.5821 19.1087 26.7307 19.1087C27.1021 19.1087 27.3435 18.5516 27.4549 17.4373H28.0956C28.0213 18.6444 27.9842 20.78 27.9842 23.8442H27.3435C27.1392 22.6371 26.9535 21.7736 26.7864 21.2536C26.6192 20.715 26.3407 20.2044 25.9507 19.7215C25.3936 18.9973 24.6786 18.4587 23.8058 18.1059C22.9516 17.7345 22.023 17.5488 21.0202 17.5488C19.8131 17.5488 18.7546 17.948 17.8447 18.7466C16.9533 19.5451 16.2569 20.6872 15.7555 22.1728C15.2541 23.6399 15.0034 25.367 15.0034 27.354C15.0034 29.3782 15.2726 31.1146 15.8112 32.5631C16.3497 34.0116 17.0925 35.1165 18.0396 35.8779C19.0053 36.6207 20.0917 36.9921 21.2988 36.9921C22.2273 36.9921 23.128 36.8157 24.0008 36.4629C24.8736 36.11 25.5607 35.5808 26.0621 34.8751C26.4335 34.3551 26.7028 33.798 26.8699 33.2037C27.0371 32.6095 27.1949 31.6995 27.3435 30.4739H27.9842C27.9842 33.668 28.0213 35.8965 28.0956 37.1593H27.4549C27.3992 36.565 27.3156 36.1472 27.2042 35.9058C27.1114 35.6458 26.9721 35.5158 26.7864 35.5158C26.6378 35.5158 26.4428 35.5901 26.2014 35.7386C25.3657 36.3329 24.5672 36.7879 23.8058 37.1036C23.0444 37.4007 22.1252 37.5493 21.0481 37.5493C19.2839 37.5493 17.7332 37.15 16.3961 36.3515C15.0776 35.5529 14.047 34.4015 13.3042 32.8973C12.5799 31.3745 12.2178 29.5639 12.2178 27.4654C12.2178 25.4227 12.5892 23.6121 13.332 22.0336C14.0934 20.4551 15.1426 19.2294 16.4797 18.3566C17.8354 17.4838 19.3674 17.0474 21.0759 17.0474Z" fill="white"/>
    <path d="M45.5745 17.5209C46.4102 17.5209 47.1066 17.4931 47.6637 17.4373V17.9945C46.7351 18.2173 46.0016 19.0251 45.4631 20.4179L38.9169 37.2986H38.6941H38.4712L31.6744 19.7772C31.2287 18.6259 30.588 18.0316 29.7524 17.9945V17.4373C30.4952 17.4931 31.4887 17.5209 32.7329 17.5209C34.33 17.5209 35.5185 17.4931 36.2985 17.4373V17.9945C35.5928 18.0316 35.0821 18.1245 34.7664 18.273C34.4693 18.403 34.3207 18.6537 34.3207 19.0251C34.3207 19.3408 34.4322 19.7772 34.655 20.3344L39.6969 33.733L44.2374 21.95C44.6088 20.9472 44.7945 20.1858 44.7945 19.6658C44.7945 19.0901 44.5902 18.6723 44.1817 18.4123C43.7917 18.1523 43.1882 18.013 42.3711 17.9945V17.4373C43.4296 17.4931 44.4974 17.5209 45.5745 17.5209Z" fill="white"/>
    <path d="M70.6415 17.5209C71.4772 17.5209 72.1735 17.4931 72.7307 17.4373V17.9945C71.6907 18.2359 70.9572 19.0437 70.5301 20.4179L65.2653 37.2986H65.0425H64.8196L59.9727 22.9528L55.5436 37.2986H55.3208H55.0979L49.1925 19.7772C48.8025 18.6259 48.1618 18.0316 47.2704 17.9945V17.4373C48.0318 17.4931 49.0253 17.5209 50.251 17.5209C51.5881 17.5209 52.5909 17.4931 53.2594 17.4373V17.9945C52.758 18.0316 52.4052 18.1245 52.2009 18.273C51.9966 18.4216 51.8945 18.6537 51.8945 18.9694C51.8945 19.2665 51.9966 19.7215 52.2009 20.3344L56.2679 32.7581L59.6663 21.9778L58.9142 19.7772C58.5428 18.6259 57.9949 18.0316 57.2707 17.9945V17.4373C57.9392 17.4931 58.8399 17.5209 59.9727 17.5209C61.5698 17.5209 62.7583 17.4931 63.5382 17.4373V17.9945C62.8326 18.0316 62.3404 18.1152 62.0619 18.2452C61.7833 18.3566 61.644 18.6073 61.644 18.9973C61.644 19.3315 61.7369 19.7772 61.9226 20.3344L65.9338 32.7302L69.3601 21.95C69.6572 21.04 69.8058 20.2879 69.8058 19.6937C69.8058 19.0808 69.6201 18.6537 69.2487 18.4123C68.8773 18.1523 68.2737 18.013 67.4381 17.9945V17.4373C68.4966 17.4931 69.5644 17.5209 70.6415 17.5209Z" fill="white"/>
    <path d="M16.758 61.6907V66.7048C16.758 67.4104 16.8323 67.9211 16.9809 68.2368C17.1295 68.5525 17.3894 68.7661 17.7609 68.8775C18.1323 68.9889 18.7358 69.0632 19.5715 69.1004V69.6575C18.6058 69.6018 17.2409 69.5739 15.4767 69.5739C13.8796 69.5739 12.6911 69.6018 11.9111 69.6575V69.1004C12.5797 69.0632 13.0625 68.9889 13.3596 68.8775C13.6753 68.7661 13.8889 68.5525 14.0003 68.2368C14.1117 67.9211 14.1675 67.4104 14.1675 66.7048V52.8883C14.1675 52.1826 14.1117 51.6719 14.0003 51.3562C13.8889 51.0405 13.6753 50.8269 13.3596 50.7155C13.0625 50.6041 12.5797 50.5298 11.9111 50.4927V49.9355C12.6911 49.9913 13.8239 50.0191 15.3095 50.0191L18.318 49.9913C18.6708 49.9727 19.0701 49.9634 19.5158 49.9634C21.6885 49.9634 23.3506 50.4648 24.502 51.4676C25.6533 52.4519 26.229 53.7797 26.229 55.451C26.229 56.4724 25.9969 57.4566 25.5326 58.4037C25.0869 59.3322 24.3163 60.1122 23.2206 60.7436C22.1435 61.375 20.7043 61.6907 18.9029 61.6907H16.758ZM18.8194 50.4927C18.2437 50.4927 17.8073 50.5577 17.5102 50.6877C17.2316 50.8176 17.0366 51.0498 16.9252 51.3841C16.8138 51.7183 16.758 52.2197 16.758 52.8883V61.1336H18.6244C20.4443 61.1336 21.6978 60.6508 22.3849 59.6851C23.0906 58.7008 23.4434 57.3916 23.4434 55.7574C23.4434 53.9561 23.0813 52.6283 22.3571 51.774C21.6514 50.9198 20.4722 50.4927 18.8194 50.4927Z" fill="white"/>
    <path d="M31.3858 69.8525C30.2159 69.8525 29.3431 69.5646 28.7674 68.9889C28.2103 68.3947 27.9317 67.5776 27.9317 66.5376C27.9317 65.7019 28.1546 65.0148 28.6003 64.4763C29.0645 63.9377 29.6031 63.5106 30.2159 63.1949C30.8473 62.8792 31.6737 62.545 32.6951 62.1921C33.735 61.8393 34.5057 61.5143 35.0071 61.2172C35.5085 60.92 35.7592 60.5208 35.7592 60.0194V58.2923C35.7592 57.2152 35.5271 56.4817 35.0628 56.0917C34.6171 55.6831 33.9857 55.4789 33.1686 55.4789C31.8687 55.4789 30.9494 55.8131 30.4109 56.4817C30.7823 56.5745 31.0887 56.7695 31.3301 57.0666C31.5901 57.3638 31.7201 57.7352 31.7201 58.1809C31.7201 58.6451 31.5715 59.0165 31.2744 59.2951C30.9773 59.5551 30.5966 59.6851 30.1323 59.6851C29.6124 59.6851 29.2224 59.5272 28.9624 59.2115C28.7024 58.8773 28.5724 58.478 28.5724 58.0137C28.5724 57.568 28.6745 57.1966 28.8788 56.8995C29.1017 56.6024 29.4266 56.3052 29.8538 56.0081C30.2995 55.6924 30.8659 55.4324 31.553 55.2282C32.2401 55.0239 32.9922 54.9217 33.8093 54.9217C35.2578 54.9217 36.3535 55.2653 37.0963 55.9524C37.5605 56.3795 37.867 56.8995 38.0155 57.5123C38.1827 58.1066 38.2662 58.8958 38.2662 59.8801V67.624C38.2662 68.0883 38.3312 68.4225 38.4612 68.6268C38.5912 68.8311 38.8141 68.9332 39.1298 68.9332C39.3526 68.9332 39.5569 68.8868 39.7426 68.7939C39.9469 68.6825 40.1604 68.534 40.3833 68.3483L40.6897 68.8218C40.2069 69.1932 39.789 69.4625 39.4362 69.6296C39.1019 69.7782 38.6748 69.8525 38.1548 69.8525C37.2634 69.8525 36.6413 69.6296 36.2885 69.1839C35.9356 68.7382 35.7592 68.1347 35.7592 67.3733C35.2021 68.3018 34.5614 68.9518 33.8372 69.3232C33.1129 69.676 32.2958 69.8525 31.3858 69.8525ZM32.6115 68.7382C33.8372 68.7382 34.8864 68.0326 35.7592 66.6212V61.1614C35.5921 61.4214 35.3599 61.635 35.0628 61.8021C34.7657 61.9693 34.3107 62.1921 33.6979 62.4707C32.9922 62.7678 32.4165 63.0556 31.9708 63.3342C31.5437 63.5942 31.1723 63.9563 30.8566 64.4206C30.5409 64.8848 30.383 65.4791 30.383 66.2034C30.383 67.039 30.5873 67.6704 30.9959 68.0975C31.4044 68.5247 31.943 68.7382 32.6115 68.7382Z" fill="white"/>
    <path d="M50.1898 54.9217C50.9327 54.9217 51.5362 55.1353 52.0005 55.5624C52.4833 55.9895 52.7247 56.5095 52.7247 57.1224C52.7247 57.6052 52.5761 58.023 52.279 58.3759C52.0005 58.7101 51.6198 58.8773 51.1369 58.8773C50.7284 58.8773 50.3755 58.7473 50.0784 58.4873C49.7998 58.2273 49.6606 57.8745 49.6606 57.4288C49.6606 56.8159 49.9763 56.3145 50.6077 55.9246C50.4777 55.7388 50.2827 55.646 50.0227 55.646C49.2984 55.646 48.6392 55.9338 48.0449 56.5095C47.4507 57.0666 46.9864 57.7538 46.6521 58.5709C46.3179 59.388 46.1507 60.1586 46.1507 60.8829V66.7883C46.1507 67.6426 46.3922 68.2368 46.875 68.5711C47.3764 68.9054 48.1192 69.0725 49.1035 69.0725V69.6575L48.4349 69.6296C46.5407 69.5739 45.3336 69.5461 44.8137 69.5461C44.3308 69.5461 43.2352 69.5832 41.5267 69.6575V69.0725C42.3066 69.0725 42.8545 68.9332 43.1702 68.6547C43.4859 68.3575 43.6437 67.8283 43.6437 67.0669V58.348C43.6437 57.4938 43.4859 56.8716 43.1702 56.4817C42.8545 56.0917 42.3066 55.8967 41.5267 55.8967V55.3117C42.1209 55.3674 42.6966 55.3953 43.2537 55.3953C44.4237 55.3953 45.3893 55.2653 46.1507 55.0053V58.4873C46.485 57.5588 47.0143 56.7324 47.7385 56.0081C48.4813 55.2839 49.2984 54.9217 50.1898 54.9217Z" fill="white"/>
    <path d="M58.416 55.3396H62.5387V55.8967H58.416V66.6769C58.416 67.5126 58.5646 68.1161 58.8617 68.4875C59.1774 68.8589 59.6231 69.0446 60.1988 69.0446C60.7745 69.0446 61.2666 68.8125 61.6751 68.3483C62.0837 67.884 62.4272 67.1226 62.7058 66.0641L63.2629 66.2034C62.7987 68.7661 61.5916 70.0475 59.6417 70.0475C59.0103 70.0475 58.4903 69.9732 58.0817 69.8246C57.6732 69.676 57.3111 69.4439 56.9954 69.1282C56.5868 68.7197 56.299 68.2183 56.1318 67.624C55.9833 67.0297 55.909 66.2312 55.909 65.2284V55.8967H53.2348V55.3396H55.909V51.0776C56.9489 51.0405 57.7846 50.9105 58.416 50.6877V55.3396Z" fill="white"/>
    <path d="M73.1382 54.9217C74.4382 54.9217 75.4224 55.2746 76.091 55.9803C76.4438 56.3517 76.6945 56.8159 76.8431 57.3731C76.9916 57.9302 77.0659 58.6823 77.0659 59.6294V67.0669C77.0659 67.8283 77.2238 68.3575 77.5395 68.6547C77.8552 68.9332 78.403 69.0725 79.183 69.0725V69.6575C77.4745 69.5832 76.3602 69.5461 75.8403 69.5461C75.3203 69.5461 74.2803 69.5832 72.7204 69.6575V69.0725C73.4075 69.0725 73.8811 68.9332 74.1411 68.6547C74.4196 68.3575 74.5589 67.8283 74.5589 67.0669V59.0165C74.5589 57.9766 74.4103 57.1873 74.1132 56.6488C73.8161 56.0917 73.2125 55.8131 72.3026 55.8131C71.5412 55.8131 70.8634 56.036 70.2691 56.4817C69.6748 56.9274 69.2106 57.5402 68.8763 58.3202C68.5606 59.0815 68.4028 59.9358 68.4028 60.8829V67.0669C68.4028 67.8283 68.5327 68.3575 68.7927 68.6547C69.0713 68.9332 69.5541 69.0725 70.2412 69.0725V69.6575C68.6813 69.5832 67.6414 69.5461 67.1214 69.5461C66.6014 69.5461 65.4872 69.5832 63.7787 69.6575V69.0725C64.5587 69.0725 65.1065 68.9332 65.4222 68.6547C65.7379 68.3575 65.8957 67.8283 65.8957 67.0669V58.348C65.8957 57.4938 65.7379 56.8716 65.4222 56.4817C65.1065 56.0917 64.5587 55.8967 63.7787 55.8967V55.3117C64.3729 55.3674 64.9486 55.3953 65.5058 55.3953C66.6757 55.3953 67.6414 55.2653 68.4028 55.0053V58.2923C68.867 57.1038 69.5077 56.2495 70.3248 55.7296C71.1605 55.191 72.0983 54.9217 73.1382 54.9217Z" fill="white"/>
    <path d="M92.4891 66.3148C92.1548 67.3362 91.5235 68.2183 90.5949 68.9611C89.685 69.6853 88.58 70.0475 87.2801 70.0475C85.9616 70.0475 84.8195 69.7503 83.8538 69.1561C82.8882 68.5432 82.1453 67.6983 81.6254 66.6212C81.1239 65.5255 80.8732 64.2627 80.8732 62.8328C80.8732 61.2172 81.1332 59.8151 81.6532 58.6266C82.1732 57.4381 82.9067 56.5281 83.8538 55.8967C84.8009 55.2467 85.9059 54.9217 87.1687 54.9217C88.84 54.9217 90.1214 55.4324 91.0128 56.4538C91.9227 57.4566 92.3777 58.9887 92.3777 61.05H83.6588C83.6031 61.57 83.5753 62.1643 83.5753 62.8328C83.5753 64.0585 83.7702 65.1263 84.1602 66.0362C84.5688 66.9462 85.098 67.6519 85.748 68.1533C86.4166 68.6361 87.113 68.8775 87.8372 68.8775C88.7286 68.8775 89.5178 68.664 90.2049 68.2368C90.8921 67.8097 91.4677 67.0947 91.932 66.0919L92.4891 66.3148ZM87.0572 55.451C86.1844 55.451 85.4323 55.8781 84.8009 56.7324C84.1695 57.5866 83.7795 58.8494 83.631 60.5208H89.7035C89.7407 59.0723 89.5271 57.8652 89.0629 56.8995C88.6172 55.9338 87.9486 55.451 87.0572 55.451Z" fill="white"/>
    <path d="M103.154 54.9217C103.897 54.9217 104.5 55.1353 104.965 55.5624C105.447 55.9895 105.689 56.5095 105.689 57.1224C105.689 57.6052 105.54 58.023 105.243 58.3759C104.965 58.7101 104.584 58.8773 104.101 58.8773C103.693 58.8773 103.34 58.7473 103.043 58.4873C102.764 58.2273 102.625 57.8745 102.625 57.4288C102.625 56.8159 102.94 56.3145 103.572 55.9246C103.442 55.7388 103.247 55.646 102.987 55.646C102.263 55.646 101.603 55.9338 101.009 56.5095C100.415 57.0666 99.9506 57.7538 99.6163 58.5709C99.282 59.388 99.1149 60.1586 99.1149 60.8829V66.7883C99.1149 67.6426 99.3563 68.2368 99.8391 68.5711C100.341 68.9054 101.083 69.0725 102.068 69.0725V69.6575L101.399 69.6296C99.5049 69.5739 98.2978 69.5461 97.7778 69.5461C97.295 69.5461 96.1993 69.5832 94.4908 69.6575V69.0725C95.2708 69.0725 95.8186 68.9332 96.1343 68.6547C96.45 68.3575 96.6079 67.8283 96.6079 67.0669V58.348C96.6079 57.4938 96.45 56.8716 96.1343 56.4817C95.8186 56.0917 95.2708 55.8967 94.4908 55.8967V55.3117C95.0851 55.3674 95.6608 55.3953 96.2179 55.3953C97.3878 55.3953 98.3535 55.2653 99.1149 55.0053V58.4873C99.4492 57.5588 99.9784 56.7324 100.703 56.0081C101.445 55.2839 102.263 54.9217 103.154 54.9217Z" fill="white"/>
    <path d="M111.882 54.9217C112.55 54.9217 113.144 55.0239 113.664 55.2282C114.184 55.4324 114.602 55.6738 114.918 55.9524C115.122 56.101 115.289 56.1753 115.419 56.1753C115.754 56.1753 115.958 55.7667 116.032 54.9496H116.673C116.598 55.8596 116.561 57.4381 116.561 59.6851H115.921C115.716 58.4594 115.317 57.4473 114.723 56.6488C114.147 55.8503 113.284 55.451 112.132 55.451C111.464 55.451 110.916 55.646 110.489 56.036C110.062 56.4074 109.848 56.9274 109.848 57.5959C109.848 58.2459 110.071 58.7937 110.517 59.2394C110.962 59.6665 111.677 60.1865 112.662 60.7993C112.829 60.8922 113.079 61.05 113.414 61.2729C114.268 61.83 114.955 62.3221 115.475 62.7492C115.995 63.1764 116.413 63.6685 116.728 64.2256C117.063 64.7827 117.23 65.4234 117.23 66.1476C117.23 67.3733 116.766 68.3297 115.837 69.0168C114.927 69.7039 113.804 70.0475 112.467 70.0475C111.631 70.0475 110.897 69.9175 110.266 69.6575C109.857 69.4532 109.477 69.2025 109.124 68.9054C109.05 68.8311 108.966 68.7939 108.873 68.7939C108.743 68.7939 108.622 68.8868 108.511 69.0725C108.418 69.2582 108.344 69.5182 108.288 69.8525H107.647C107.722 68.7939 107.759 66.9369 107.759 64.2813H108.4C108.604 66.0269 108.975 67.3362 109.514 68.209C110.052 69.0632 110.972 69.4903 112.272 69.4903C112.922 69.4903 113.497 69.2768 113.999 68.8497C114.5 68.4225 114.751 67.754 114.751 66.844C114.751 66.1198 114.5 65.507 113.999 65.0056C113.516 64.5041 112.717 63.9006 111.603 63.1949C110.693 62.6192 109.987 62.1457 109.486 61.7743C109.003 61.4029 108.595 60.9479 108.26 60.4093C107.926 59.8708 107.759 59.2394 107.759 58.5151C107.759 57.3452 108.149 56.4538 108.929 55.841C109.709 55.2282 110.693 54.9217 111.882 54.9217Z" fill="white"/>
    <path d="M83.8625 23.231L85.1654 27.2409H89.3818L85.9707 29.7192L87.2736 33.7292L83.8625 31.2509L80.4514 33.7292L81.7544 29.7192L78.3433 27.2409H82.5596L83.8625 23.231Z" fill="white"/>
    <path d="M97.7903 23.231L99.0932 27.2409H103.31L99.8984 29.7192L101.201 33.7292L97.7903 31.2509L94.3792 33.7292L95.6821 29.7192L92.271 27.2409H96.4873L97.7903 23.231Z" fill="white"/>
    <path d="M111.719 23.231L113.022 27.2409H117.239L113.828 29.7192L115.131 33.7292L111.719 31.2509L108.308 33.7292L109.611 29.7192L106.2 27.2409H110.417L111.719 23.231Z" fill="white"/>
</svg>