<svg viewBox="0 0 166 53" fill="none" xmlns="http://www.w3.org/2000/svg">
    <path fill-rule="evenodd" clip-rule="evenodd" d="M4.20605 8.80002C6.30289 13.2966 9.03525 19.1812 10.2779 21.8772L12.5373 26.7787L6.6038 39.5831C3.34029 46.6254 0.670359 52.4835 0.670359 52.6008C0.670359 52.7184 7.10555 52.8145 14.971 52.8145H29.2717L31.0739 51.7383L32.8761 50.6618L38.9472 38.7734L45.0188 26.8848L40.5278 17.9663C38.058 13.0611 35.1985 7.4553 34.1735 5.50909C31.4101 0.262367 32.8351 0.624722 14.9614 0.624722H0.393555L4.20605 8.80002ZM30.0099 18.7712L34.0556 26.6777L30.079 34.6263L26.102 42.5747H21.6543C17.5561 42.5747 17.2238 42.5295 17.4243 41.9967C17.5438 41.6786 19.0788 38.1515 20.8354 34.1583L24.0286 26.8983L23.0439 24.5792C22.5025 23.3038 20.9629 19.778 19.6228 16.7444C18.2824 13.7105 17.1861 11.1466 17.1861 11.0465C17.1861 10.9464 19.1611 10.8645 21.575 10.8645H25.9639L30.0099 18.7712ZM59.215 25.9275L59.3013 39.3393L64.2527 39.2894C69.6599 39.2349 70.4537 39.0139 71.8185 37.183C72.4901 36.2822 72.5138 35.9024 72.5138 26.1174C72.5138 16.5271 72.4778 15.9226 71.842 14.8283C70.6925 12.85 69.5638 12.517 64.0046 12.5167L59.1288 12.5161L59.215 25.9275ZM75.9858 13.4244C76.1503 13.9242 77.0976 16.934 78.0909 20.1133C79.0838 23.2926 80.085 26.3397 80.3156 26.8848C80.5699 27.4859 80.8067 30.1311 80.9184 33.6119L81.102 39.3482L83.0017 39.3925L84.901 39.4367V34.7145C84.9007 30.6229 85.0083 29.6528 85.707 27.4476C86.1506 26.0481 87.3873 22.153 88.4549 18.792L90.3964 12.6812L88.436 12.5818C87.3579 12.5273 86.4122 12.5458 86.3349 12.6234C86.2573 12.7007 85.5378 15.1794 84.7355 18.1314C83.9332 21.0834 83.2101 23.5654 83.1285 23.6473C82.9726 23.8032 82.6525 22.7525 80.921 16.3973L79.8637 12.5161H77.7748H75.6862L75.9858 13.4244ZM94.2284 25.915L94.3146 39.3465L96.2087 39.3918L98.1027 39.4367L98.1906 31.3803L98.2784 23.3243L101.291 31.2152L104.303 39.1064L106.015 39.2825C106.956 39.3789 107.793 39.3915 107.874 39.3099C107.956 39.2283 108.023 33.1664 108.023 25.8386V12.5161H106.047H104.071L103.982 20.361L103.894 28.206L102.108 23.5816C101.126 21.0382 99.7652 17.5451 99.0844 15.8192L97.847 12.6812L95.9943 12.5821L94.1419 12.483L94.2284 25.915ZM117.12 12.929C116.979 13.3749 116.547 15.588 113.976 29.0318C113.055 33.8461 112.228 38.1198 112.138 38.5284C111.982 39.2336 112.073 39.2716 113.926 39.2716C116.116 39.2716 116.037 39.372 116.47 36.051L116.696 34.3168H119.251H121.805L122.205 36.7942L122.604 39.2716H124.589H126.573L126.388 38.3632C126.285 37.8634 125.902 35.8941 125.535 33.9865C125.167 32.079 124.363 27.917 123.747 24.7377C123.131 21.5584 122.358 17.5078 122.03 15.7366L121.432 12.5161H119.342C117.959 12.5161 117.206 12.6558 117.12 12.929ZM130.563 25.9315L130.649 39.3465L132.543 39.3918L134.436 39.4367L134.525 32.0046L134.613 24.5726L135.907 29.6924C137.946 37.7614 137.643 37.0129 138.819 36.8963L139.845 36.7942L141.358 30.7088L142.871 24.6234L142.96 31.9174L143.049 39.2111L144.887 39.3241C145.899 39.3859 146.788 39.3746 146.863 39.299C146.938 39.2233 147 33.1664 147 25.8386V12.5161H145.031H143.062L142.69 13.8968C141.005 20.1523 138.804 27.4152 138.665 27.1768C138.572 27.0162 137.724 24.1349 136.781 20.7739C134.165 11.4534 134.724 12.5161 132.437 12.5161H130.477L130.563 25.9315ZM152.615 13.1767C151.978 13.8135 151.955 14.2776 151.955 26.0078C151.955 37.4429 151.992 38.2116 152.568 38.7328C153.101 39.2154 153.927 39.2759 158.917 39.1969L164.653 39.1064L165.077 38.2806C165.403 37.6441 165.481 34.7063 165.417 25.4542C165.336 14.0078 165.303 13.4317 164.691 12.9848C164.2 12.6254 162.793 12.5161 158.663 12.5161C153.716 12.5161 153.222 12.5702 152.615 13.1767ZM67.6506 16.3335C68.379 16.8435 68.3849 16.9201 68.3849 25.8938C68.3849 34.8675 68.379 34.9441 67.6506 35.4541C67.1921 35.7755 66.2009 35.9684 65.0081 35.9684H63.0999V25.8938V15.8192H65.0081C66.2009 15.8192 67.1921 16.0121 67.6506 16.3335ZM161.534 25.8938V35.9684H158.726H155.918V25.8938V15.8192H158.726H161.534V25.8938ZM120.196 24.49C120.622 27.2607 121.046 29.8619 121.139 30.2705C121.299 30.9793 121.212 31.0137 119.263 31.0137H117.219L117.393 30.1053C117.489 29.6056 117.905 27.0043 118.319 24.3248C118.733 21.6453 119.15 19.4527 119.246 19.4527C119.343 19.4527 119.77 21.7193 120.196 24.49Z" fill="white"/>
</svg>