<svg width="64" height="82" viewBox="0 0 64 82" fill="none" xmlns="http://www.w3.org/2000/svg">
<g clip-path="url(#clip0_2_410)">
<path d="M0.775696 0.455078H0.780082C0.779351 0.45654 0.777158 0.458732 0.775696 0.459463V0.455078Z" fill="#CC0113"/>
<path d="M4.32919 19.7652C4.33082 16.301 4.31773 12.8367 4.33573 9.37253C5.65684 9.39073 6.97959 9.3444 8.29988 9.40149C9.03447 9.36178 9.77151 9.35764 10.5053 9.40232C11.518 9.36591 12.5283 9.41142 13.541 9.37419C14.386 9.34688 15.2302 9.44369 16.0744 9.37667C17.0012 9.37419 17.9272 9.37667 18.8532 9.40894C19.0447 9.40645 19.2353 9.39735 19.4259 9.37832C20.2979 9.3775 21.1707 9.37088 22.0435 9.37998C22.6661 9.45113 23.2894 9.3262 23.9127 9.39818C24.4633 9.40894 25.0138 9.35102 25.5651 9.40149C26.465 9.31958 27.3664 9.45113 28.2654 9.37501C28.9739 9.43458 29.6823 9.33613 30.3899 9.39239C30.9396 9.43789 31.4885 9.35185 32.0374 9.39818C32.5503 9.3353 33.0632 9.43376 33.5761 9.38329C34.1454 9.36922 34.7164 9.36591 35.2857 9.39983C35.6702 9.38494 36.0563 9.35598 36.4408 9.39239C37.042 9.44203 37.6433 9.36095 38.2454 9.37419C38.5718 9.36839 38.8981 9.42217 39.2254 9.39818C39.7702 9.34275 40.315 9.43376 40.8606 9.40563C42.3306 9.32206 43.8022 9.43458 45.2714 9.38329C45.7876 9.42217 46.3046 9.40811 46.8207 9.37998C47.4792 9.43045 48.1386 9.34026 48.7987 9.38329C49.3157 9.43707 49.8335 9.33695 50.3505 9.40397C51.1129 9.38081 51.8778 9.3535 52.641 9.38991C52.9616 9.42548 53.2823 9.36839 53.6038 9.37501C54.3187 9.40894 55.0345 9.34192 55.7495 9.39818C56.7008 9.35516 57.6538 9.38163 58.606 9.3775C59.0854 9.41473 59.5672 9.41721 60.0466 9.36426C60.1529 9.89461 60.0048 10.4324 60.0924 10.9661C60.1071 12.5918 60.094 14.2185 60.0989 15.8443C60.0858 16.7502 60.13 17.6579 60.0629 18.5622C60.0457 18.9684 60.1096 19.3722 60.1055 19.7784C59.6097 19.8876 59.1075 19.7619 58.6085 19.8107C58.1463 19.8661 57.6833 19.7735 57.2211 19.8214C56.4309 19.7619 55.639 19.8885 54.8497 19.7941C54.1691 19.8554 53.4868 19.8206 52.8054 19.8281C48.6858 19.8297 44.5671 19.8214 40.4483 19.8248C38.8409 19.7693 37.2318 19.8032 35.6236 19.7941C25.1921 19.7784 14.7607 19.7693 4.32919 19.7652ZM6.93623 10.4076C6.51822 10.8196 6.53458 11.5088 6.78899 12.0044C6.65811 12.0077 6.52804 12.011 6.39716 12.0152C6.39388 12.3362 6.39143 12.6572 6.3947 12.9782C6.58612 12.9766 6.77754 12.9757 6.96977 12.9774C6.98368 14.1283 6.97305 15.2792 6.97632 16.43C6.9575 16.6923 7.24708 16.7717 7.41151 16.9066C7.63728 17.0514 7.86224 17.1962 8.09129 17.3344C8.10683 15.8691 8.09374 14.403 8.09865 12.9369C8.98621 12.946 9.87704 12.9112 10.763 12.9666C10.1903 13.1189 9.58091 12.9278 9.00829 13.0808C8.80297 13.214 8.68272 13.4598 8.67209 13.703C8.68845 13.8892 8.77925 14.0571 8.84224 14.23L8.90113 14.2185C8.94449 14.2904 8.98866 14.3624 9.03284 14.4336C8.86269 14.6553 8.64264 14.8837 8.64673 15.184C8.62955 15.4107 8.71544 15.625 8.78906 15.8343C9.20217 16.4242 9.80587 16.828 10.4341 17.149C10.6075 17.2301 10.7711 17.3559 10.9642 17.3815C11.1204 17.3484 11.2358 17.1987 11.2219 17.0348C11.1417 16.9157 11.0697 16.7924 11.0002 16.6675C10.5429 16.4441 10.0701 16.1769 9.82387 15.7053C9.82387 15.5721 9.82305 15.4397 9.82223 15.3073C9.90894 15.2295 9.99647 15.1526 10.0848 15.0765C10.4938 14.9979 10.9159 14.9664 11.3192 15.098C11.0607 15.3073 10.6272 15.2295 10.4996 15.5952C10.4791 15.6655 10.4595 15.7367 10.4415 15.8079C10.6092 16.0081 10.7777 16.2075 10.938 16.4135C11.1458 16.4011 11.365 16.3688 11.5286 16.2265C11.8403 15.9667 12.1732 15.6192 12.1225 15.1749C12.1332 14.7331 11.7119 14.4915 11.4231 14.2367C10.8153 13.9777 10.1314 14.2201 9.50484 14.0356C10.2337 13.9885 10.9675 14.0216 11.6988 13.9967C11.698 13.6583 11.6988 13.3199 11.6971 12.9815C12.1479 12.9774 12.6011 12.9964 13.0502 12.9418C14.152 12.9269 15.2547 12.9294 16.355 13.0055C16.3075 13.0386 16.2135 13.1056 16.166 13.1387C15.8576 13.1379 15.5492 13.1288 15.2417 13.1437C15.0101 13.1396 14.8335 13.3075 14.6535 13.43C14.6429 13.4838 14.6224 13.5913 14.6118 13.6451C14.0064 13.6832 13.3995 13.6492 12.7941 13.6633C12.6289 13.6583 12.48 13.7386 12.3344 13.8073C12.3066 13.9603 12.233 14.1217 12.2927 14.2772C12.4604 14.748 12.7802 15.165 13.181 15.4554C13.3716 15.6068 13.6023 15.4877 13.8077 15.4422C13.8674 15.1848 13.887 14.9201 13.8935 14.6561C14.0285 14.6619 14.1643 14.6611 14.2993 14.6785C14.4212 14.9341 14.4752 15.2254 14.6568 15.4504C14.8506 15.7334 15.1419 15.9195 15.4257 16.0983C15.8445 16.2811 16.3075 16.2505 16.7517 16.2249C16.7959 16.2819 16.8826 16.3969 16.926 16.454C16.4065 16.478 15.919 16.6799 15.4822 16.9546C15.5042 16.9579 15.5484 16.9629 15.5705 16.9662C15.7218 17.2094 15.901 17.4345 16.0728 17.6637C16.2699 17.6206 16.4646 17.5669 16.6617 17.523C16.7624 17.4411 16.8638 17.3592 16.9644 17.2781C17.047 17.2773 17.2123 17.2756 17.2949 17.2756C17.2884 17.3865 17.281 17.4982 17.2728 17.6099C17.1935 17.6843 17.1157 17.7605 17.038 17.8374C16.2437 18.1319 15.3194 17.9532 14.6249 17.4833C14.3999 17.365 14.3876 17.0837 14.3042 16.8702C14.1242 17.0274 13.9361 17.1738 13.7488 17.3203C13.7504 17.389 13.752 17.4568 13.7537 17.5255C14.0719 18.06 14.6584 18.3131 15.1729 18.6069C15.9967 18.9825 17.0266 19.143 17.8193 18.606C18.261 18.3098 18.4107 17.7456 18.3207 17.2384C18.261 17.1366 18.2029 17.0349 18.1432 16.9331C18.1448 16.8917 18.1473 16.8081 18.1489 16.766C17.8732 16.4813 17.6221 16.1736 17.3538 15.8815C17.4225 15.7938 17.4904 15.7053 17.5583 15.6167C17.5894 15.5282 17.6221 15.4413 17.6565 15.3545C17.7195 15.0334 17.5935 14.7364 17.4037 14.4857C17.1779 14.3864 16.9219 14.2623 16.6797 14.3897C16.328 14.508 16.2331 14.9102 16.1873 15.2386C15.8478 15.2452 15.51 15.1923 15.2089 15.0285C15.1852 14.7695 15.2237 14.5114 15.294 14.2623C15.3415 14.2325 15.4355 14.1721 15.4822 14.1415C16.0989 14.1382 16.7149 14.1423 17.3317 14.1399C17.3333 13.7527 17.3333 13.3663 17.3325 12.9799C17.8634 12.9791 18.3935 12.9782 18.9244 12.9807C18.926 13.2289 18.9252 13.4771 18.9252 13.7254C18.6815 13.7212 18.4491 13.7924 18.2422 13.9206C18.1195 14.3839 18.3281 14.8291 18.6037 15.1881C19.1011 15.9022 19.6958 16.5409 20.3126 17.1499C20.5727 17.0166 20.8304 16.8793 21.0914 16.7469C20.3829 16.3432 19.8733 15.6945 19.3449 15.088C19.4676 14.978 19.5895 14.8655 19.7023 14.7438C19.7923 14.7223 19.8856 14.7099 19.9707 14.7587C20.2103 14.8704 20.4672 14.9317 20.7265 14.9788C21.0644 15.8178 21.6435 16.5194 22.2006 17.2169C22.226 17.2111 22.2783 17.1995 22.3037 17.1937C22.4035 17.1209 22.5041 17.0489 22.6063 16.9786C22.5785 16.7924 22.5401 16.6088 22.4885 16.4284C22.2701 16.1711 22.0746 15.8939 21.902 15.6035C21.6967 15.2444 21.5192 14.81 21.7 14.403C22.2366 14.3368 22.7781 14.3955 23.3156 14.3376C23.3278 15.0922 23.3246 15.8459 23.3205 16.6005C23.678 16.8462 24.0493 17.0729 24.3962 17.3344C24.4633 17.01 24.442 16.6791 24.4444 16.3514C24.4428 15.2279 24.4444 14.1051 24.4469 12.9824C24.6661 12.9807 24.8845 12.9815 25.1046 12.9849C25.103 14.1945 25.098 15.4033 25.1062 16.6129C25.4735 16.847 25.8441 17.0787 26.1868 17.3501C26.2956 15.8807 26.1598 14.4046 26.2466 12.9344C27.1537 12.9261 28.0577 13.0064 28.9657 12.9815C28.9665 13.2091 28.9665 13.4366 28.9673 13.665C28.3472 13.6641 27.7264 13.655 27.1063 13.6666C26.9198 13.6567 26.7832 13.7965 26.6556 13.9115C26.6057 14.4228 26.9533 14.8398 27.2585 15.2055C27.4409 15.3826 27.6544 15.5299 27.9137 15.5563C27.9693 15.5307 28.0814 15.4794 28.137 15.4537C28.2851 15.2179 28.254 14.9292 28.2777 14.6636C28.5051 14.6636 28.7325 14.6644 28.9599 14.6628C28.9624 14.7521 28.9649 14.8407 28.9681 14.93C28.9943 15.5059 28.8978 16.0958 29.0295 16.6609C29.3927 16.8719 29.7322 17.1234 30.088 17.3468C30.0986 15.8914 30.0896 14.4361 30.0929 12.9807C30.3498 12.9766 30.6075 12.9757 30.8651 12.9774C30.8684 12.6671 30.8692 12.3569 30.8692 12.0474C24.8739 12.0474 18.8778 12.0483 12.8825 12.0466C12.3941 11.9994 11.9033 12.021 11.4133 12.0036C11.2145 11.7479 10.9814 11.5229 10.7491 11.2987C10.2934 10.9114 9.8165 10.5457 9.28233 10.2752C8.89377 10.1039 8.4823 9.98479 8.05529 9.98313C7.64792 9.979 7.21436 10.0866 6.93623 10.4076ZM33.1278 10.0857C33.1728 10.2371 33.217 10.3902 33.2636 10.5416C33.3233 10.7882 33.3928 11.0322 33.464 11.2755C33.6374 11.2242 33.8108 11.1729 33.9818 11.1133C34.147 11.0753 34.3131 11.0364 34.4792 11.0025C34.7606 11.3301 35.0182 11.6776 35.3054 12.0011C35.2547 12.0036 35.154 12.0069 35.1033 12.0094C34.372 12.0491 33.6407 12.0416 32.9094 12.0632C32.9126 12.3412 32.9118 12.6192 32.911 12.8971C32.9863 12.9278 33.0623 12.9584 33.1392 12.9882C33.2006 12.984 33.3241 12.9757 33.3855 12.9716C33.4337 13.5268 33.2399 14.1672 33.6129 14.6421C33.8828 15.04 34.2411 15.3685 34.6518 15.6126C34.9634 15.6928 35.2866 15.6722 35.6031 15.6333C35.6481 15.9237 35.635 16.2174 35.6007 16.5086C35.622 16.5475 35.6628 16.6245 35.6841 16.6634C36.0441 16.8752 36.3925 17.1077 36.7394 17.3402C36.7574 15.8881 36.7394 14.4344 36.7467 12.9815C37.6441 12.9733 38.5382 12.9145 39.4364 12.9336C39.447 13.0825 39.4536 13.2322 39.4577 13.382C39.0593 13.5284 38.6568 13.6641 38.2503 13.7849C38.0081 13.8958 37.7766 14.0273 37.5492 14.1647C37.3701 14.3815 37.3177 14.6619 37.312 14.9366C37.4421 15.6242 37.9501 16.1694 38.5726 16.4449C38.4752 16.6675 38.3689 16.8867 38.2568 17.1019C38.1145 17.3732 37.9746 17.6446 37.8339 17.9168C37.7856 18.0128 37.7382 18.1088 37.6916 18.2056C38.0948 18.1832 38.4957 18.1253 38.8998 18.0997C39.0356 17.7522 39.1853 17.4105 39.3579 17.0804C39.4143 17.2227 39.4716 17.365 39.5288 17.5081C39.6025 17.6794 39.672 17.8531 39.7366 18.0285C40.1407 18.0831 40.5448 18.1468 40.9538 18.1328C40.8925 18.0327 40.8336 17.9326 40.7771 17.8308C40.58 17.4154 40.369 17.0075 40.1669 16.5947C40.5808 16.5211 40.9579 16.3299 41.3457 16.176C41.1395 15.7723 40.8982 15.3892 40.6929 14.9863C40.5358 15.1699 40.3902 15.3884 40.1497 15.4653C39.5534 15.7053 38.8172 15.7549 38.2715 15.3627C38.2274 15.1683 38.274 14.9954 38.4531 14.8961C38.7288 14.7877 39.0069 14.6868 39.2883 14.5957C39.6303 14.4907 39.9673 14.3674 40.2912 14.2135C40.3305 14.1862 40.4082 14.1308 40.4467 14.1035C40.4778 14.0662 40.5399 13.9918 40.5702 13.9545C40.58 13.6302 40.5784 13.3059 40.5775 12.9807C40.8508 12.9799 41.1248 12.9799 41.3988 12.9815C41.4046 13.5483 41.3882 14.1167 41.4299 14.6835C41.3768 15.3139 41.4152 15.9477 41.3948 16.5798C41.542 16.6956 41.6966 16.8015 41.8553 16.9025C41.9347 16.9629 42.0148 17.0233 42.095 17.0853C42.2357 17.159 42.378 17.2309 42.5228 17.2988C42.5351 15.8592 42.5204 14.4203 42.531 12.9807C42.7715 12.9791 43.0128 12.9807 43.2541 12.9906C43.2631 13.358 43.1969 13.7254 43.2329 14.0927C43.3024 14.9441 43.1249 15.8012 43.2705 16.6485C43.6345 16.8685 43.9895 17.1035 44.3356 17.3526C44.3536 15.8956 44.3364 14.4385 44.3429 12.9815C44.4419 12.9815 44.5409 12.9815 44.6407 12.9824C45.125 12.9774 45.6068 12.9054 46.0919 12.9393C46.7316 13.0039 47.3745 12.9691 48.0159 12.9849C48.0126 13.0908 48.0085 13.1967 48.006 13.3026C47.5725 13.2976 47.1144 13.3075 46.7471 13.5739C46.6138 13.4664 46.4763 13.3638 46.3389 13.262C45.8326 13.0701 45.1888 13.248 44.8861 13.7113C44.6824 14.0282 44.7249 14.4212 44.7585 14.7786C45.1331 15.6788 45.7336 16.4838 46.4714 17.1126C46.5491 17.1184 46.6277 17.1242 46.7062 17.1317C46.7692 17.0315 46.9189 16.9455 46.8633 16.8081C46.7512 16.3183 46.3037 16.0304 46.0976 15.5911C45.8931 15.2345 45.8391 14.8167 45.8702 14.4121C45.9168 14.369 46.0084 14.283 46.0551 14.24C46.1679 14.2358 46.2816 14.2317 46.3954 14.2276C46.4632 14.5709 46.4412 14.9217 46.4493 15.2692C46.8101 15.4868 47.1717 15.7028 47.5316 15.922C47.5659 15.3958 47.4866 14.8613 47.5929 14.3417C47.6968 14.312 47.8015 14.2805 47.9054 14.2474C47.9332 14.2665 47.988 14.3045 48.015 14.3235C48.0118 15.0847 48.0191 15.8467 48.015 16.6079C48.3733 16.8561 48.7464 17.0812 49.0965 17.3418C49.1316 15.8881 49.0719 14.4336 49.1496 12.9807C49.5218 12.9799 49.894 12.9799 50.2671 12.9766C50.3579 12.9791 50.4495 12.9824 50.5419 12.9857C50.5746 13.1396 50.609 13.2935 50.6385 13.449C50.6049 13.4945 50.5387 13.5855 50.5051 13.631C50.2041 13.7278 49.89 13.7634 49.5758 13.7502C49.4981 14.4725 49.8924 15.1501 50.4029 15.6225C50.9313 16.0892 51.7084 16.1504 52.3391 15.8691C52.3391 16.1165 52.3399 16.3655 52.3416 16.6137C52.7056 16.8528 53.0688 17.0952 53.4353 17.3319C53.4377 17.0795 53.4426 16.8272 53.4394 16.574L53.4795 16.5244C53.4754 16.0246 53.4067 15.5265 53.4598 15.0276C53.5236 14.3467 53.3854 13.6633 53.4754 12.984C53.6733 12.9807 53.8713 12.9791 54.0701 12.9741L54.0611 12.9865C54.1273 12.984 54.259 12.9799 54.3245 12.9774C54.331 13.2521 54.3302 13.5284 54.3744 13.8006C54.2124 13.8594 54.0529 13.9214 53.895 13.9893C53.886 14.2367 53.8165 14.5196 53.976 14.7356C54.2598 15.1385 54.6828 15.5423 55.212 15.486C55.3904 15.3247 55.4116 15.0839 55.4525 14.8605C55.666 14.8713 55.8812 14.8762 56.0955 14.8837C56.093 15.4695 56.0751 16.0561 56.1086 16.641C56.4808 16.8545 56.8325 17.1019 57.1835 17.3501C57.2538 15.8947 57.2244 14.4385 57.2342 12.9815C57.4902 12.9782 57.7471 12.9757 58.0031 12.9799C58.0031 12.6713 58.0015 12.3635 58.0064 12.0557C55.1016 12.0359 52.196 12.0549 49.2903 12.0466C48.7611 12.0003 48.2302 12.021 47.7001 12.0094C47.4203 11.7322 47.1594 11.4335 46.8584 11.1795C46.1287 10.5731 45.2779 9.98065 44.2947 9.98231C43.7319 9.95997 43.1159 10.2504 42.9359 10.8221C42.8926 11.2168 42.8664 11.6395 43.039 12.0085C42.9212 12.0102 42.8034 12.011 42.6872 12.0119C42.351 11.436 41.9494 10.8957 41.4823 10.4225C41.3669 10.3182 41.2467 10.1784 41.079 10.1817C40.6782 10.1643 40.2806 10.2388 39.8814 10.2678C39.9648 10.6674 40.0794 11.0595 40.1833 11.4542C40.5391 11.3913 40.8745 11.2259 41.241 11.2275C41.443 11.4906 41.6459 11.7537 41.8668 12.0028C41.7481 12.0061 41.6303 12.0094 41.5134 12.0152C41.0226 12.0143 40.5317 12.0094 40.0417 12.0185C38.7231 12.1045 37.4028 11.9994 36.0833 12.0127C35.7389 11.4054 35.3283 10.8395 34.8661 10.3199C34.7115 10.1635 34.5348 10.0319 34.3385 9.93432C33.9393 10.0253 33.5262 9.99306 33.1278 10.0857Z" fill="#CC0113"/>
<path d="M7.60213 11.287C7.93834 10.9428 8.44715 10.9478 8.88562 11.0256C9.47214 11.1455 9.94578 11.5568 10.3204 12.0085C9.43778 12.0424 8.55759 12.0159 7.67494 12.0077C7.5825 11.7777 7.5735 11.5303 7.60213 11.287Z" fill="#CC0113"/>
<path d="M44.0485 11.0976C44.5794 10.9122 45.1921 10.9495 45.6837 11.2316C46.033 11.4244 46.3267 11.7016 46.5901 12.0011C45.7058 12.035 44.8223 12.0176 43.938 12.0127C43.8456 11.8066 43.8145 11.5824 43.8325 11.3582C43.9053 11.2722 43.9773 11.1853 44.0485 11.0976Z" fill="#CC0113"/>
<path d="M20.1114 12.9765C20.6995 12.9832 21.2893 12.9948 21.8758 12.9352C22.3568 12.9724 22.8395 12.984 23.3229 12.9823C23.3237 13.1007 23.3254 13.2181 23.327 13.3356C22.7847 13.348 22.2415 13.3323 21.7 13.3439C21.4398 13.3497 21.2124 13.4879 20.9915 13.6111C20.9057 13.7328 20.8198 13.8536 20.7347 13.976C20.5089 14.005 20.2823 14.0174 20.0557 14.0075C20.1253 13.6682 20.1236 13.3207 20.1114 12.9765Z" fill="#CC0113"/>
<path d="M51.4246 12.9798C51.7305 12.9765 52.0365 12.9798 52.3432 12.9856C52.34 13.5317 52.34 14.0786 52.3424 14.6247C52.0218 14.781 51.7101 15.0127 51.3371 14.9895C51.0769 15.0077 50.8381 14.896 50.6164 14.7752C50.7424 14.7165 50.8741 14.6586 51.0017 14.5982C51.1113 14.5171 51.2209 14.436 51.3313 14.3541C51.36 14.3152 51.4181 14.2383 51.4467 14.2002C51.625 13.8105 51.5841 13.367 51.4246 12.9798Z" fill="#CC0113"/>
<path d="M34.4898 13.6079C34.4571 13.3986 34.4735 13.1876 34.4997 12.9799C34.8686 12.9766 35.2367 12.9775 35.6056 12.9791C35.6064 13.4681 35.6204 13.9571 35.5958 14.446C35.2637 14.614 34.8972 14.6909 34.5266 14.6322C34.4841 14.2922 34.4972 13.9496 34.4898 13.6079Z" fill="#CC0113"/>
<path d="M55.401 12.9832C55.6317 12.9782 55.8624 12.9799 56.0939 12.9873C56.098 13.2976 56.0964 13.6095 56.0407 13.9156L55.9393 13.8362C55.7724 13.8544 55.6055 13.871 55.4403 13.8859C55.401 13.5863 55.4002 13.2843 55.401 12.9832Z" fill="#CC0113"/>
<path d="M20.9499 33.0834C22.77 33.0718 24.5909 33.0702 26.411 33.0843C26.4053 33.9456 26.4053 34.8069 26.4135 35.6681C26.0609 35.6772 25.7083 35.6789 25.3558 35.6723C25.3427 35.7194 25.3165 35.8138 25.3026 35.8609C25.3566 36.6254 25.328 37.3924 25.2936 38.1569C26.5198 38.2016 27.746 38.1892 28.9731 38.1908C28.9935 37.3667 28.9796 36.5435 28.9821 35.7194C28.6295 35.6499 28.2696 35.6814 27.9129 35.6748C27.9105 34.8135 27.9096 33.953 27.9146 33.0925C27.9571 33.0892 28.0438 33.0818 28.0872 33.0785C29.7257 33.0735 31.3633 33.0768 33.0019 33.076C33.1237 33.0768 33.2456 33.0768 33.3683 33.0785C33.3634 33.9431 33.3585 34.8077 33.37 35.6731C33.01 35.6731 32.6501 35.6764 32.2902 35.6723C32.2288 38.2049 32.2722 40.7391 32.2607 43.2726C32.628 43.275 32.9961 43.2734 33.3642 43.2759C33.3651 44.1876 33.3626 45.0994 33.3651 46.0103C31.5474 46.0145 29.7306 46.0079 27.9137 46.0029C27.9096 45.0936 27.9113 44.1835 27.9129 43.2742C28.2843 43.2742 28.6557 43.2792 29.0271 43.2668C29.0279 42.7844 28.951 42.3045 28.9886 41.8222C29.0173 41.5318 29.0222 41.2397 29.0238 40.9476C28.169 40.9352 27.3149 40.8732 26.4609 40.9137C26.0724 40.946 25.6822 40.9278 25.2936 40.9418C25.3762 41.5938 25.2854 42.2483 25.2985 42.9019C25.2977 43.0235 25.2977 43.146 25.2977 43.2684C25.6683 43.2767 26.0388 43.2742 26.4094 43.2767C26.4077 44.1876 26.4086 45.0977 26.4069 46.0079C25.8229 45.993 25.2421 46.0732 24.658 46.0534C23.8416 46.0534 23.0252 46.0542 22.208 46.0542C21.7908 46.0128 21.372 46.0103 20.9523 46.0095C20.9548 45.0986 20.9531 44.1868 20.9523 43.275C21.3098 43.2742 21.6681 43.2734 22.0256 43.28C22.0812 41.7477 22.0362 40.2129 22.0509 38.6798C22.0632 37.6952 22.01 36.7098 22.055 35.7261C21.6869 35.6863 21.318 35.6723 20.9482 35.6632C20.9564 34.8035 20.9556 33.9431 20.9499 33.0834Z" fill="#CC0113"/>
<path d="M34.5111 33.0959C36.9005 33.0934 39.29 33.095 41.6794 33.095C42.2782 33.0404 42.8557 33.2365 43.403 33.4591C43.5167 33.5104 43.6321 33.5592 43.7482 33.608C44.464 33.9837 45.1029 34.5769 45.3736 35.3621C45.5863 35.9694 45.6673 36.6279 45.6068 37.2692C45.5544 37.778 45.3352 38.2446 45.1274 38.7038L45.1004 38.7253C44.7863 39.2549 44.3773 39.7207 43.8987 40.1037C43.4889 40.3793 43.0447 40.596 42.5842 40.7681C41.9657 40.9328 41.3252 40.8509 40.697 40.9253C40.0843 40.9377 39.4716 40.9369 38.8597 40.9535C38.8646 41.7304 38.863 42.5073 38.8589 43.285C39.2155 43.2916 39.5722 43.2891 39.9297 43.2908C40.0417 43.8493 39.9076 44.4111 39.9542 44.972C39.937 45.322 39.919 45.6745 39.9755 46.0228C38.5259 46.0633 37.0748 46.0029 35.626 46.0592C35.2538 46.0608 34.8824 46.0584 34.5102 46.0608C34.5037 45.1367 34.5021 44.2117 34.5119 43.2875C34.8718 43.2883 35.2317 43.29 35.5925 43.2875C35.5966 40.7656 35.599 38.243 35.5909 35.7211C35.2285 35.717 34.8644 35.7286 34.5045 35.6839C34.5127 34.821 34.4972 33.958 34.5111 33.0959ZM38.8589 35.7195C38.8638 36.5857 38.8662 37.4528 38.8572 38.3191C39.7162 38.3406 40.5743 38.3224 41.4332 38.3315C41.6132 38.3514 41.7735 38.2661 41.9289 38.1867C42.1686 37.9815 42.387 37.7482 42.5269 37.4603C42.5613 37.0623 42.5645 36.6561 42.441 36.2722C42.2488 36.0901 42.0492 35.9172 41.834 35.765C41.6737 35.7319 41.5101 35.7096 41.3465 35.7137C40.517 35.7187 39.6875 35.7112 38.8589 35.7195Z" fill="#CC0113"/>
<path d="M0.780604 0.455078H63.6001V81.4551H0.775696V0.460042C0.777332 0.459215 0.779786 0.456733 0.780604 0.455078ZM2.19906 1.87237C2.2007 27.9148 2.19661 53.9573 2.20151 79.9989C22.1982 79.9989 42.1948 79.9972 62.1914 79.9997C62.2078 71.798 62.1939 63.5954 62.1988 55.3928C62.1955 37.5529 62.2045 19.7122 62.1939 1.87237C42.1956 1.87237 22.1973 1.87072 2.19906 1.87237Z" fill="#010269"/>
<path d="M27.5309 26.4288C30.7866 25.7388 34.1896 25.7686 37.4298 26.5331C40.6447 27.2802 43.682 28.7653 46.2809 30.8155C48.6041 32.6589 50.5796 34.9532 52.0463 37.5471C54.2591 41.4382 55.3053 46.0037 54.9904 50.4814C51.2078 50.2845 47.3672 50.9117 43.8718 52.4009C40.9948 53.6395 38.3918 55.5681 36.4719 58.0751C34.332 60.8319 33.0575 64.1935 32.462 67.6255C32.2615 68.7068 32.156 69.8023 32.0333 70.8936C31.945 68.9426 31.6055 67.0049 31.0926 65.1235C30.2148 61.9083 28.6221 58.8594 26.2957 56.4758C24.1778 54.2816 21.4898 52.6946 18.6251 51.7233C16.6929 51.0589 14.6748 50.6676 12.6428 50.493C11.5949 50.4252 10.5413 50.3648 9.49261 50.45C9.40917 48.6471 9.46561 46.8319 9.78055 45.053C10.471 40.9608 12.2903 37.0722 14.9807 33.9372C18.2005 30.1346 22.6849 27.4506 27.5309 26.4288ZM25.0057 28.1638C21.0734 29.5505 17.56 32.1187 15.0126 35.4488C12.6927 38.4415 11.1876 42.0563 10.637 45.815C11.8812 45.8911 13.1246 46.0194 14.3517 46.2461C17.4864 46.8004 20.5433 47.9521 23.1651 49.7947C25.8646 51.6828 28.0912 54.2501 29.6054 57.1947C31.0206 59.9242 31.7912 62.9665 32.0243 66.0319C32.6591 61.7718 33.9941 57.5207 36.5447 54.0218C38.391 51.4544 40.9089 49.3967 43.7654 48.0853C46.9198 46.6068 50.4119 46.0152 53.8673 45.9275C53.4844 43.1227 52.5543 40.3982 51.1522 37.9483C49.6561 35.3264 47.6143 33.0271 45.2084 31.2268C42.266 29.0243 38.7649 27.5838 35.132 27.113C33.7782 26.9103 32.4063 26.9178 31.0419 26.9542C28.9862 27.0584 26.946 27.4721 25.0057 28.1638Z" fill="#010269"/>
<path d="M51.4876 51.4173C52.6238 51.3047 53.765 51.2973 54.9045 51.3271C54.8865 52.0792 54.7286 52.8205 54.5936 53.5585C53.5057 59.1367 50.254 64.2358 45.7099 67.5759C44.5246 68.4686 43.2394 69.2191 41.9085 69.8652C39.079 71.1932 35.9827 71.9428 32.8628 72.0164C33.0125 68.5762 33.6358 65.1078 35.1075 61.982C36.4163 59.1706 38.4614 56.7034 41.0169 54.9708C44.1041 52.8461 47.7934 51.7515 51.4876 51.4173ZM41.8529 58.3606C40.2577 59.2418 38.8532 60.4588 37.7178 61.8918C35.6498 64.5121 34.4637 67.7314 33.8002 70.988C36.8498 70.7721 39.8545 69.9041 42.5458 68.4355C47.1717 65.9451 50.8487 61.7082 52.6844 56.7423C49.0319 56.2036 45.1307 56.5346 41.8529 58.3606Z" fill="#010269"/>
<path d="M9.56049 51.3096C13.0698 51.1706 16.6233 51.7605 19.8668 53.1365C22.7062 54.3544 25.2739 56.2772 27.121 58.7883C29.0696 61.3879 30.2197 64.522 30.7932 67.7115C31.0459 69.1305 31.1915 70.5668 31.2545 72.0056C27.8524 71.86 24.4829 70.9341 21.4848 69.2976C18.8647 67.8844 16.5292 65.9368 14.6412 63.6201C11.7945 60.1435 10.0063 55.8006 9.56049 51.3096ZM11.815 56.7182C13.4273 61.1653 16.5489 65.0201 20.4893 67.5692C23.3483 69.4225 26.6433 70.5957 30.0259 70.9242C29.8631 68.7259 29.4385 66.5102 28.4618 64.5245C27.719 62.9988 26.6073 61.6816 25.3165 60.6027C24.1762 59.6628 23.0056 58.7411 21.6959 58.0519C20.2095 57.251 18.5661 56.7496 16.89 56.5817C15.2008 56.3707 13.4968 56.5196 11.815 56.7182Z" fill="#010269"/>
<path d="M2.19903 1.87232C22.1973 1.87066 42.1956 1.87232 62.1939 1.87232C62.2045 19.7122 62.1955 37.5528 62.1988 55.3927C62.1939 63.5953 62.2078 71.7979 62.1914 79.9996C42.1948 79.9972 22.1981 79.9988 2.20149 79.9988C2.19658 53.9572 2.20067 27.9148 2.19903 1.87232ZM4.32917 19.7651C14.7606 19.7693 25.1921 19.7784 35.6236 19.7941C37.2318 19.8032 38.8409 19.7693 40.4483 19.8247C44.5671 19.8214 48.6858 19.8297 52.8054 19.828C53.4868 19.8206 54.169 19.8553 54.8496 19.7941C55.639 19.8884 56.4309 19.7618 57.2211 19.8214C57.6833 19.7734 58.1463 19.8661 58.6085 19.8106C59.1075 19.7618 59.6097 19.8876 60.1055 19.7784C60.1095 19.3721 60.0457 18.9684 60.0629 18.5621C60.13 17.6578 60.0858 16.7502 60.0989 15.8442C60.094 14.2184 60.1071 12.5918 60.0924 10.966C60.0048 10.4323 60.1529 9.89454 60.0466 9.36419C59.5672 9.41715 59.0854 9.41466 58.606 9.37743C57.6538 9.38157 56.7008 9.35509 55.7495 9.39812C55.0345 9.34186 54.3187 9.40887 53.6038 9.37495C53.2823 9.36833 52.9616 9.42542 52.641 9.38984C51.8778 9.35344 51.1129 9.38074 50.3505 9.40391C49.8335 9.33689 49.3157 9.437 48.7987 9.38322C48.1385 9.3402 47.4792 9.43039 46.8207 9.37992C46.3045 9.40805 45.7875 9.42211 45.2714 9.38322C43.8022 9.43452 42.3306 9.322 40.8606 9.40556C40.315 9.43369 39.7701 9.34268 39.2253 9.39812C38.8981 9.42211 38.5717 9.36833 38.2453 9.37412C37.6433 9.36089 37.042 9.44197 36.4408 9.39233C36.0563 9.35592 35.6702 9.38488 35.2857 9.39977C34.7164 9.36585 34.1454 9.36916 33.5761 9.38322C33.0632 9.43369 32.5503 9.33524 32.0373 9.39812C31.4885 9.35178 30.9396 9.43783 30.3898 9.39233C29.6823 9.33606 28.9738 9.43452 28.2654 9.37495C27.3664 9.45107 26.465 9.31952 25.5651 9.40143C25.0138 9.35096 24.4632 9.40887 23.9127 9.39812C23.2894 9.32614 22.666 9.45107 22.0435 9.37992C21.1707 9.37081 20.2979 9.37743 19.4258 9.37826C19.2352 9.39729 19.0446 9.40639 18.8532 9.40887C17.9272 9.37661 17.0012 9.37412 16.0744 9.37661C15.2302 9.44362 14.386 9.34682 13.541 9.37412C12.5282 9.41136 11.518 9.36585 10.5053 9.40225C9.7715 9.35758 9.03446 9.36171 8.29987 9.40143C6.97958 9.34434 5.65683 9.39067 4.33572 9.37247C4.31772 12.8367 4.33081 16.3009 4.32917 19.7651ZM27.5308 26.4288C22.6849 27.4506 18.2004 30.1346 14.9807 33.9372C12.2902 37.0721 10.4709 40.9608 9.7805 45.053C9.46556 46.8319 9.40911 48.6471 9.49255 50.45C10.5413 50.3647 11.5949 50.4251 12.6428 50.493C14.6747 50.6676 16.6928 51.0589 18.625 51.7233C21.4897 52.6946 24.1778 54.2815 26.2956 56.4757C28.6221 58.8594 30.2148 61.9083 31.0925 65.1235C31.6054 67.0049 31.9449 68.9426 32.0333 70.8936C32.156 69.8023 32.2615 68.7068 32.4619 67.6254C33.0574 64.1935 34.3319 60.8319 36.4719 58.075C38.3918 55.5681 40.9947 53.6395 43.8717 52.4009C47.3672 50.9116 51.2078 50.2845 54.9903 50.4814C55.3053 46.0037 54.259 41.4382 52.0463 37.5471C50.5795 34.9532 48.604 32.6589 46.2808 30.8155C43.6819 28.7653 40.6446 27.2802 37.4298 26.533C34.1896 25.7686 30.7866 25.7388 27.5308 26.4288ZM51.4875 51.4172C47.7933 51.7514 44.104 52.846 41.0168 54.9707C38.4613 56.7033 36.4162 59.1705 35.1074 61.9819C33.6358 65.1077 33.0124 68.5761 32.8627 72.0163C35.9827 71.9427 39.0789 71.1931 41.9085 69.8651C43.2394 69.219 44.5245 68.4685 45.7098 67.5758C50.254 64.2357 53.5056 59.1366 54.5936 53.5584C54.7286 52.8204 54.8864 52.0791 54.9044 51.327C53.7649 51.2972 52.6238 51.3046 51.4875 51.4172ZM9.56045 51.3096C10.0063 55.8006 11.7945 60.1435 14.6412 63.6201C16.5292 65.9368 18.8647 67.8844 21.4848 69.2976C24.4829 70.9341 27.8523 71.8599 31.2545 72.0056C31.1915 70.5667 31.0459 69.1304 30.7931 67.7115C30.2197 64.522 29.0695 61.3879 27.121 58.7882C25.2739 56.2772 22.7061 54.3543 19.8668 53.1364C16.6233 51.7605 13.0698 51.1706 9.56045 51.3096Z" fill="#FDFDFD"/>
<path d="M6.93621 10.4075C7.21433 10.0864 7.64789 9.97889 8.05526 9.98302C8.48227 9.98468 8.89374 10.1038 9.2823 10.2751C9.81648 10.5456 10.2934 10.9113 10.749 11.2985C10.9813 11.5228 11.2145 11.7478 11.4133 12.0035C11.9033 12.0208 12.3941 11.9993 12.8824 12.0465C18.8777 12.0482 24.8739 12.0473 30.8692 12.0473C30.8692 12.3568 30.8684 12.667 30.8651 12.9773C30.6074 12.9756 30.3497 12.9765 30.0929 12.9806C30.0896 14.436 30.0986 15.8913 30.088 17.3467C29.7321 17.1233 29.3927 16.8717 29.0295 16.6608C28.8978 16.0957 28.9943 15.5057 28.9681 14.9299C28.9648 14.8405 28.9624 14.752 28.9599 14.6627C28.7325 14.6643 28.5051 14.6635 28.2777 14.6635C28.254 14.9291 28.285 15.2178 28.137 15.4536C28.0814 15.4793 27.9693 15.5306 27.9137 15.5562C27.6544 15.5297 27.4408 15.3825 27.2584 15.2054C26.9533 14.8397 26.6056 14.4227 26.6555 13.9114C26.7832 13.7964 26.9198 13.6566 27.1063 13.6665C27.7263 13.6549 28.3472 13.664 28.9673 13.6648C28.9665 13.4365 28.9665 13.209 28.9656 12.9814C28.0576 13.0063 27.1537 12.926 26.2465 12.9343C26.1598 14.4045 26.2956 15.8806 26.1868 17.35C25.8441 17.0786 25.4735 16.8469 25.1062 16.6128C25.098 15.4032 25.1029 14.1944 25.1046 12.9847C24.8845 12.9814 24.6661 12.9806 24.4469 12.9823C24.4444 14.105 24.4428 15.2278 24.4444 16.3513C24.442 16.679 24.4632 17.0099 24.3962 17.3342C24.0493 17.0728 23.6779 16.8461 23.3204 16.6004C23.3245 15.8458 23.3278 15.0921 23.3155 14.3375C22.7781 14.3954 22.2366 14.3367 21.6999 14.4029C21.5192 14.8099 21.6967 15.2443 21.902 15.6034C22.0746 15.8938 22.2701 16.171 22.4885 16.4283C22.5401 16.6086 22.5785 16.7923 22.6063 16.9785C22.5041 17.0488 22.4034 17.1208 22.3036 17.1936C22.2783 17.1994 22.2259 17.211 22.2006 17.2168C21.6435 16.5193 21.0643 15.8177 20.7265 14.9787C20.4672 14.9316 20.2103 14.8703 19.9706 14.7586C19.8856 14.7098 19.7923 14.7222 19.7023 14.7437C19.5894 14.8654 19.4675 14.9779 19.3448 15.0879C19.8733 15.6944 20.3829 16.3431 21.0913 16.7468C20.8304 16.8792 20.5727 17.0165 20.3126 17.1497C19.6958 16.5408 19.1011 15.9021 18.6037 15.188C18.328 14.829 18.1194 14.3838 18.2421 13.9205C18.4491 13.7923 18.6814 13.7211 18.9252 13.7252C18.9252 13.477 18.926 13.2288 18.9244 12.9806C18.3935 12.9781 17.8634 12.9789 17.3325 12.9798C17.3333 13.3662 17.3333 13.7525 17.3317 14.1398C16.7149 14.1422 16.0989 14.1381 15.4821 14.1414C15.4355 14.172 15.3414 14.2324 15.294 14.2622C15.2236 14.5112 15.1852 14.7694 15.2089 15.0284C15.5099 15.1922 15.8478 15.2451 16.1873 15.2385C16.2331 14.91 16.328 14.5079 16.6797 14.3896C16.9218 14.2622 17.1779 14.3863 17.4037 14.4856C17.5934 14.7363 17.7194 15.0333 17.6564 15.3543C17.6221 15.4412 17.5894 15.5281 17.5583 15.6166C17.4904 15.7051 17.4225 15.7937 17.3538 15.8814C17.6221 16.1734 17.8732 16.4812 18.1489 16.7658C18.1473 16.808 18.1448 16.8916 18.1432 16.933C18.2029 17.0347 18.261 17.1365 18.3207 17.2383C18.4107 17.7455 18.261 18.3097 17.8192 18.6059C17.0266 19.1429 15.9967 18.9824 15.1729 18.6068C14.6584 18.313 14.0718 18.0599 13.7536 17.5254C13.752 17.4567 13.7504 17.3889 13.7487 17.3202C13.9361 17.1737 14.1242 17.0273 14.3042 16.8701C14.3876 17.0836 14.3999 17.3649 14.6248 17.4832C15.3193 17.9531 16.2437 18.1318 17.038 17.8373C17.1157 17.7603 17.1934 17.6842 17.2728 17.6098C17.281 17.4981 17.2883 17.3864 17.2949 17.2755C17.2122 17.2755 17.047 17.2772 16.9644 17.278C16.8638 17.3591 16.7623 17.441 16.6617 17.5229C16.4646 17.5667 16.2699 17.6205 16.0727 17.6635C15.901 17.4344 15.7218 17.2093 15.5705 16.9661C15.5484 16.9628 15.5042 16.9578 15.4821 16.9545C15.9189 16.6798 16.4065 16.4779 16.9259 16.4539C16.8826 16.3968 16.7959 16.2818 16.7517 16.2247C16.3075 16.2504 15.8445 16.281 15.4257 16.0982C15.1418 15.9194 14.8506 15.7333 14.6567 15.4503C14.4751 15.2253 14.4211 14.934 14.2993 14.6784C14.1643 14.661 14.0285 14.6618 13.8935 14.656C13.887 14.92 13.8673 15.1847 13.8076 15.442C13.6023 15.4875 13.3716 15.6067 13.181 15.4553C12.7802 15.1649 12.4603 14.7479 12.2926 14.2771C12.2329 14.1216 12.3065 13.9602 12.3344 13.8072C12.48 13.7385 12.6288 13.6582 12.7941 13.6632C13.3994 13.6491 14.0064 13.683 14.6117 13.645C14.6224 13.5912 14.6428 13.4836 14.6535 13.4299C14.8334 13.3074 15.0101 13.1395 15.2416 13.1436C15.5492 13.1287 15.8576 13.1378 16.166 13.1386C16.2134 13.1055 16.3075 13.0385 16.355 13.0054C15.2547 12.9293 14.152 12.9268 13.0501 12.9417C12.601 12.9963 12.1478 12.9773 11.6971 12.9814C11.6988 13.3198 11.6979 13.6582 11.6988 13.9966C10.9674 14.0214 10.2337 13.9883 9.50481 14.0355C10.1314 14.22 10.8153 13.9776 11.4231 14.2366C11.7118 14.4914 12.1331 14.733 12.1225 15.1748C12.1732 15.6191 11.8403 15.9666 11.5286 16.2264C11.365 16.3687 11.1458 16.401 10.938 16.4134C10.7777 16.2074 10.6091 16.008 10.4414 15.8077C10.4594 15.7366 10.4791 15.6654 10.4995 15.5951C10.6271 15.2294 11.0607 15.3072 11.3192 15.0979C10.9159 14.9663 10.4938 14.9977 10.0848 15.0763C9.99644 15.1525 9.90891 15.2294 9.8222 15.3072C9.82302 15.4396 9.82384 15.5719 9.82384 15.7051C10.0701 16.1768 10.5429 16.444 11.0002 16.6674C11.0697 16.7923 11.1417 16.9156 11.2218 17.0347C11.2358 17.1986 11.1204 17.3483 10.9642 17.3814C10.7711 17.3558 10.6075 17.23 10.4341 17.1489C9.80584 16.8279 9.20214 16.4241 8.78903 15.8342C8.71541 15.6249 8.62952 15.4106 8.6467 15.1839C8.64261 14.8836 8.86266 14.6552 9.03281 14.4335C8.98863 14.3623 8.94446 14.2903 8.9011 14.2184L8.84221 14.2299C8.77922 14.057 8.68842 13.8891 8.67206 13.7029C8.68269 13.4597 8.80294 13.2139 9.00827 13.0807C9.58088 12.9277 10.1903 13.1188 10.7629 12.9665C9.87701 12.9111 8.98618 12.9459 8.09862 12.9368C8.09371 14.4029 8.1068 15.869 8.09126 17.3342C7.86221 17.1961 7.63725 17.0513 7.41148 16.9065C7.24706 16.7716 6.95747 16.6922 6.97629 16.4299C6.97302 15.279 6.98365 14.1282 6.96974 12.9773C6.77751 12.9756 6.58609 12.9765 6.39467 12.9781C6.3914 12.6571 6.39385 12.3361 6.39713 12.0151C6.52801 12.0109 6.65808 12.0076 6.78896 12.0043C6.53456 11.5087 6.51819 10.8195 6.93621 10.4075ZM7.60208 11.287C7.57345 11.5302 7.58245 11.7776 7.67488 12.0076C8.55753 12.0159 9.43773 12.0424 10.3204 12.0084C9.94572 11.5567 9.47209 11.1455 8.88556 11.0255C8.4471 10.9477 7.93829 10.9428 7.60208 11.287ZM20.1113 12.9765C20.1236 13.3207 20.1252 13.6682 20.0557 14.0074C20.2823 14.0173 20.5089 14.0049 20.7347 13.9759C20.8197 13.8535 20.9056 13.7327 20.9915 13.6111C21.2124 13.4878 21.4398 13.3496 21.6999 13.3438C22.2415 13.3322 22.7846 13.348 23.327 13.3355C23.3254 13.2181 23.3237 13.1006 23.3229 12.9823C22.8394 12.9839 22.3568 12.9723 21.8758 12.9351C21.2893 12.9947 20.6995 12.9831 20.1113 12.9765Z" fill="#FDFDFD"/>
<path d="M33.1278 10.0856C33.5262 9.99295 33.9393 10.0252 34.3385 9.9342C34.5348 10.0318 34.7115 10.1634 34.8661 10.3198C35.3283 10.8394 35.7389 11.4053 36.0833 12.0126C37.4028 11.9993 38.7231 12.1044 40.0417 12.0184C40.5317 12.0093 41.0225 12.0142 41.5134 12.0151C41.6303 12.0093 41.7481 12.006 41.8667 12.0026C41.6459 11.7536 41.443 11.4905 41.241 11.2274C40.8745 11.2257 40.5391 11.3912 40.1832 11.4541C40.0794 11.0594 39.9648 10.6673 39.8814 10.2676C40.2806 10.2387 40.6782 10.1642 41.079 10.1816C41.2467 10.1783 41.3669 10.3181 41.4823 10.4224C41.9494 10.8956 42.351 11.4359 42.6872 12.0117C42.8034 12.0109 42.9212 12.0101 43.039 12.0084C42.8664 11.6394 42.8926 11.2166 42.9359 10.822C43.1159 10.2503 43.7318 9.95985 44.2946 9.98219C45.2779 9.98054 46.1287 10.5729 46.8583 11.1794C47.1594 11.4334 47.4203 11.7321 47.7001 12.0093C48.2302 12.0208 48.7611 12.0002 49.2903 12.0465C52.196 12.0548 55.1016 12.0357 58.0064 12.0556C58.0015 12.3634 58.0031 12.6712 58.0031 12.9798C57.7471 12.9756 57.4902 12.9781 57.2342 12.9814C57.2244 14.4384 57.2538 15.8946 57.1835 17.35C56.8325 17.1018 56.4808 16.8544 56.1086 16.6409C56.075 16.056 56.093 15.4693 56.0955 14.8836C55.8812 14.8761 55.666 14.8712 55.4525 14.8604C55.4116 15.0838 55.3904 15.3246 55.212 15.4859C54.6828 15.5422 54.2598 15.1384 53.976 14.7355C53.8165 14.5195 53.886 14.2366 53.895 13.9892C54.0529 13.9213 54.2124 13.8593 54.3744 13.8005C54.3302 13.5283 54.331 13.252 54.3245 12.9773C54.259 12.9798 54.1273 12.9839 54.0611 12.9864L54.0701 12.974C53.8713 12.9789 53.6733 12.9806 53.4753 12.9839C53.3854 13.6632 53.5236 14.3466 53.4598 15.0275C53.4066 15.5264 53.4754 16.0245 53.4794 16.5242L53.4394 16.5739C53.4426 16.8271 53.4377 17.0794 53.4353 17.3318C53.0688 17.0951 52.7056 16.8527 52.3416 16.6136C52.3399 16.3654 52.3391 16.1164 52.3391 15.869C51.7084 16.1503 50.9313 16.089 50.4028 15.6224C49.8924 15.15 49.4981 14.4724 49.5758 13.7501C49.8899 13.7633 50.2041 13.7277 50.5051 13.6309C50.5386 13.5854 50.6049 13.4944 50.6384 13.4489C50.609 13.2933 50.5746 13.1395 50.5419 12.9856C50.4495 12.9823 50.3579 12.9789 50.2671 12.9765C49.894 12.9798 49.5218 12.9798 49.1496 12.9806C49.0719 14.4335 49.1316 15.888 49.0965 17.3417C48.7463 17.0811 48.3733 16.856 48.015 16.6078C48.0191 15.8466 48.0118 15.0846 48.015 14.3234C47.988 14.3044 47.9332 14.2663 47.9054 14.2473C47.8015 14.2804 47.6968 14.3118 47.5929 14.3416C47.4866 14.8612 47.5659 15.3957 47.5316 15.9219C47.1716 15.7027 46.8101 15.4867 46.4493 15.2691C46.4411 14.9216 46.4632 14.5708 46.3953 14.2275C46.2816 14.2316 46.1679 14.2357 46.055 14.2399C46.0084 14.2829 45.9168 14.3689 45.8702 14.412C45.8391 14.8165 45.8931 15.2344 46.0976 15.591C46.3037 16.0303 46.7512 16.3182 46.8633 16.808C46.9189 16.9454 46.7692 17.0314 46.7062 17.1315C46.6277 17.1241 46.5491 17.1183 46.4714 17.1125C45.7336 16.4837 45.1331 15.6787 44.7585 14.7785C44.7249 14.4211 44.6824 14.0281 44.8861 13.7112C45.1887 13.2478 45.8325 13.07 46.3389 13.2619C46.4763 13.3637 46.6137 13.4663 46.7471 13.5738C47.1144 13.3074 47.5725 13.2975 48.006 13.3024C48.0085 13.1965 48.0126 13.0906 48.0158 12.9847C47.3745 12.969 46.7315 13.0038 46.0918 12.9392C45.6068 12.9053 45.1249 12.9773 44.6407 12.9823C44.5409 12.9814 44.4419 12.9814 44.3429 12.9814C44.3364 14.4384 44.3535 15.8954 44.3355 17.3524C43.9895 17.1034 43.6345 16.8684 43.2705 16.6484C43.1249 15.8011 43.3024 14.944 43.2329 14.0926C43.1969 13.7252 43.2631 13.3579 43.2541 12.9905C43.0128 12.9806 42.7715 12.9789 42.531 12.9806C42.5203 14.4202 42.5351 15.859 42.5228 17.2987C42.378 17.2308 42.2357 17.1588 42.095 17.0852C42.0148 17.0232 41.9346 16.9628 41.8553 16.9024C41.6966 16.8014 41.542 16.6955 41.3947 16.5797C41.4152 15.9476 41.3767 15.3138 41.4299 14.6833C41.3882 14.1166 41.4046 13.5482 41.3988 12.9814C41.1248 12.9798 40.8508 12.9798 40.5775 12.9806C40.5784 13.3058 40.58 13.6301 40.5702 13.9544C40.5399 13.9917 40.4777 14.0661 40.4467 14.1033C40.4082 14.1307 40.3305 14.1861 40.2912 14.2134C39.9673 14.3673 39.6303 14.4906 39.2883 14.5956C39.0069 14.6866 38.7288 14.7876 38.4531 14.896C38.274 14.9953 38.2273 15.1682 38.2715 15.3626C38.8171 15.7548 39.5534 15.7051 40.1497 15.4652C40.3902 15.3883 40.5358 15.1698 40.6929 14.9862C40.8982 15.3891 41.1395 15.7722 41.3457 16.1759C40.9579 16.3298 40.5808 16.5209 40.1669 16.5946C40.3689 17.0074 40.58 17.4153 40.7771 17.8307C40.8336 17.9324 40.8925 18.0326 40.9538 18.1327C40.5448 18.1467 40.1407 18.083 39.7366 18.0284C39.672 17.853 39.6024 17.6793 39.5288 17.508C39.4716 17.3649 39.4143 17.2226 39.3579 17.0802C39.1853 17.4104 39.0356 17.7521 38.8998 18.0996C38.4957 18.1252 38.0948 18.1831 37.6915 18.2055C37.7382 18.1087 37.7856 18.0127 37.8339 17.9167C37.9746 17.6445 38.1145 17.3731 38.2568 17.1018C38.3689 16.8866 38.4752 16.6674 38.5726 16.4448C37.95 16.1693 37.442 15.6241 37.312 14.9365C37.3177 14.6618 37.3701 14.3813 37.5492 14.1646C37.7766 14.0272 38.0081 13.8957 38.2503 13.7848C38.6568 13.664 39.0593 13.5283 39.4577 13.3819C39.4536 13.2321 39.447 13.0824 39.4364 12.9334C38.5382 12.9144 37.6441 12.9732 36.7467 12.9814C36.7394 14.4343 36.7574 15.888 36.7394 17.34C36.3925 17.1075 36.044 16.8751 35.6841 16.6632C35.6628 16.6244 35.6219 16.5474 35.6007 16.5085C35.635 16.2173 35.6481 15.9236 35.6031 15.6332C35.2865 15.672 34.9634 15.6927 34.6518 15.6125C34.2411 15.3684 33.8828 15.0399 33.6129 14.642C33.2398 14.1671 33.4337 13.5267 33.3855 12.9715C33.3241 12.9756 33.2006 12.9839 33.1392 12.988C33.0623 12.9583 32.9863 12.9276 32.911 12.897C32.9118 12.619 32.9126 12.341 32.9094 12.063C33.6407 12.0415 34.372 12.049 35.1033 12.0093C35.154 12.0068 35.2546 12.0035 35.3054 12.001C35.0182 11.6775 34.7606 11.33 34.4792 11.0023C34.3131 11.0363 34.147 11.0752 33.9818 11.1132C33.8108 11.1728 33.6374 11.2241 33.464 11.2754C33.3928 11.0321 33.3233 10.7881 33.2636 10.5415C33.2169 10.3901 33.1728 10.237 33.1278 10.0856ZM44.0484 11.0975C43.9773 11.1852 43.9053 11.2721 43.8325 11.3581C43.8145 11.5823 43.8456 11.8066 43.938 12.0126C44.8223 12.0175 45.7057 12.0349 46.59 12.001C46.3266 11.7015 46.033 11.4243 45.6837 11.2315C45.192 10.9494 44.5793 10.9122 44.0484 11.0975ZM51.4246 12.9798C51.5841 13.367 51.625 13.8105 51.4466 14.2002C51.418 14.2382 51.3599 14.3152 51.3313 14.354C51.2209 14.436 51.1113 14.517 51.0016 14.5981C50.874 14.6585 50.7423 14.7164 50.6164 14.7752C50.838 14.896 51.0769 15.0077 51.337 14.9895C51.7101 15.0126 52.0217 14.781 52.3424 14.6246C52.3399 14.0785 52.3399 13.5316 52.3432 12.9856C52.0364 12.9798 51.7305 12.9765 51.4246 12.9798ZM34.4898 13.6077C34.4972 13.9495 34.4841 14.292 34.5266 14.632C34.8972 14.6908 35.2636 14.6138 35.5958 14.4459C35.6203 13.9569 35.6064 13.4679 35.6056 12.9789C35.2366 12.9773 34.8685 12.9765 34.4996 12.9798C34.4734 13.1874 34.4571 13.3984 34.4898 13.6077ZM55.401 12.9831C55.4002 13.2842 55.401 13.5862 55.4403 13.8857C55.6055 13.8709 55.7724 13.8543 55.9392 13.8361L56.0407 13.9155C56.0963 13.6094 56.0979 13.2975 56.0939 12.9872C55.8624 12.9798 55.6317 12.9781 55.401 12.9831Z" fill="#FDFDFD"/>
<path d="M25.0056 28.1638C26.9459 27.4721 28.9861 27.0584 31.0418 26.9542C32.4063 26.9178 33.7781 26.9104 35.1319 27.1131C38.7648 27.5838 42.2659 29.0243 45.2084 31.2268C47.6142 33.0271 49.656 35.3264 51.1522 37.9484C52.5542 40.3982 53.4843 43.1228 53.8672 45.9276C50.4118 46.0153 46.9197 46.6068 43.7654 48.0854C40.9088 49.3967 38.3909 51.4544 36.5447 54.0218C33.9941 57.5207 32.659 61.7718 32.0243 66.0319C31.7911 62.9665 31.0205 59.9243 29.6053 57.1947C28.0912 54.2501 25.8645 51.6828 23.165 49.7947C20.5433 47.9521 17.4863 46.8004 14.3516 46.2461C13.1246 46.0194 11.8812 45.8912 10.637 45.815C11.1875 42.0563 12.6927 38.4415 15.0126 35.4489C17.5599 32.1187 21.0733 29.5505 25.0056 28.1638ZM20.9498 33.0834C20.9555 33.943 20.9564 34.8035 20.9482 35.6631C21.3179 35.6722 21.6869 35.6863 22.055 35.726C22.01 36.7098 22.0631 37.6952 22.0509 38.6798C22.0362 40.2129 22.0811 41.7477 22.0255 43.28C21.668 43.2733 21.3097 43.2742 20.9523 43.275C20.9531 44.1868 20.9547 45.0985 20.9523 46.0095C21.3719 46.0103 21.7907 46.0128 22.2079 46.0541C23.0251 46.0541 23.8415 46.0533 24.6579 46.0533C25.242 46.0732 25.8228 45.9929 26.4069 46.0078C26.4085 45.0977 26.4077 44.1876 26.4093 43.2766C26.0388 43.2742 25.6682 43.2767 25.2976 43.2684C25.2976 43.1459 25.2976 43.0235 25.2984 42.9019C25.2854 42.2482 25.3762 41.5938 25.2935 40.9418C25.6821 40.9277 26.0723 40.9459 26.4609 40.9137C27.3149 40.8731 28.1689 40.9352 29.0237 40.9476C29.0221 41.2397 29.0172 41.5317 28.9886 41.8221C28.9509 42.3045 29.0278 42.7844 29.027 43.2667C28.6556 43.2791 28.2842 43.2742 27.9129 43.2742C27.9112 44.1835 27.9096 45.0936 27.9137 46.0028C29.7305 46.0078 31.5473 46.0144 33.365 46.0103C33.3625 45.0994 33.365 44.1876 33.3642 43.2758C32.9961 43.2733 32.628 43.275 32.2607 43.2725C32.2721 40.7391 32.2288 38.2048 32.2901 35.6722C32.65 35.6764 33.01 35.6731 33.3699 35.6731C33.3585 34.8076 33.3634 33.943 33.3683 33.0784C33.2456 33.0768 33.1237 33.0768 33.0018 33.0759C31.3633 33.0768 29.7256 33.0735 28.0871 33.0784C28.0437 33.0817 27.957 33.0892 27.9145 33.0925C27.9096 33.953 27.9104 34.8134 27.9129 35.6747C28.2695 35.6813 28.6294 35.6499 28.982 35.7194C28.9796 36.5435 28.9935 37.3667 28.973 38.1908C27.746 38.1891 26.5198 38.2015 25.2935 38.1569C25.3279 37.3924 25.3565 36.6254 25.3025 35.8609C25.3164 35.8137 25.3426 35.7194 25.3557 35.6722C25.7083 35.6789 26.0608 35.6772 26.4134 35.6681C26.4052 34.8068 26.4052 33.9455 26.411 33.0842C24.5908 33.0702 22.7699 33.0718 20.9498 33.0834ZM34.511 33.0958C34.4971 33.9579 34.5127 34.8209 34.5045 35.6838C34.8644 35.7285 35.2285 35.7169 35.5908 35.7211C35.599 38.2429 35.5966 40.7656 35.5925 43.2874C35.2317 43.2899 34.8718 43.2882 34.5119 43.2874C34.5021 44.2116 34.5037 45.1366 34.5102 46.0608C34.8824 46.0583 35.2538 46.0608 35.626 46.0591C37.0747 46.0028 38.5259 46.0632 39.9755 46.0227C39.919 45.6744 39.937 45.3219 39.9542 44.9719C39.9076 44.411 40.0417 43.8492 39.9297 43.2907C39.5722 43.2891 39.2155 43.2915 38.8589 43.2849C38.8629 42.5072 38.8646 41.7303 38.8597 40.9534C39.4716 40.9368 40.0843 40.9377 40.697 40.9253C41.3252 40.8508 41.9657 40.9327 42.5841 40.768C43.0447 40.596 43.4889 40.3792 43.8987 40.1037C44.3773 39.7206 44.7863 39.2548 45.1004 38.7253L45.1274 38.7037C45.3352 38.2446 45.5544 37.7779 45.6068 37.2691C45.6673 36.6279 45.5863 35.9693 45.3736 35.362C45.1029 34.5768 44.464 33.9836 43.7482 33.6079C43.632 33.5591 43.5167 33.5103 43.403 33.459C42.8557 33.2365 42.2782 33.0404 41.6794 33.095C39.29 33.095 36.9005 33.0933 34.511 33.0958Z" fill="#FDFDFD"/>
<path d="M38.8589 35.7194C39.6875 35.7111 40.517 35.7186 41.3465 35.7136C41.5101 35.7095 41.6737 35.7318 41.834 35.7649C42.0492 35.9172 42.2488 36.0901 42.441 36.2721C42.5645 36.656 42.5613 37.0623 42.5269 37.4602C42.387 37.7481 42.1686 37.9815 41.9289 38.1867C41.7735 38.2661 41.6132 38.3513 41.4332 38.3314C40.5743 38.3223 39.7162 38.3405 38.8572 38.319C38.8662 37.4528 38.8638 36.5857 38.8589 35.7194Z" fill="#FDFDFD"/>
<path d="M11.8149 56.7181C13.4968 56.5195 15.2008 56.3706 16.89 56.5816C18.5661 56.7496 20.2095 57.2509 21.6959 58.0518C23.0055 58.741 24.1761 59.6627 25.3165 60.6026C26.6073 61.6815 27.719 62.9987 28.4618 64.5244C29.4385 66.5101 29.8631 68.7258 30.0258 70.9242C26.6433 70.5957 23.3483 69.4225 20.4893 67.5691C16.5489 65.02 13.4273 61.1653 11.8149 56.7181Z" fill="#FDFDFD"/>
<path d="M41.8528 58.3605C45.1307 56.5345 49.0318 56.2035 52.6843 56.7421C50.8487 61.708 47.1716 65.945 42.5457 68.4354C39.8544 69.904 36.8498 70.7719 33.8002 70.9879C34.4636 67.7313 35.6497 64.512 37.7177 61.8917C38.8531 60.4587 40.2577 59.2416 41.8528 58.3605Z" fill="#FDFDFD"/>
</g>
<defs>
<clipPath id="clip0_2_410">
<rect width="63" height="81" fill="white" transform="translate(0.687866 0.455078)"/>
</clipPath>
</defs>
</svg>
