<svg width="132" height="27" viewBox="0 0 132 27" fill="none" xmlns="http://www.w3.org/2000/svg">
<g opacity="0.8">
<path d="M24.6323 26.2013H29.0574L32.5264 13.2903H28.1468L24.6323 26.2013Z" fill="white"/>
<path d="M47.3228 26.2013H51.7478L55.2168 13.2903H50.7917L47.3228 26.2013Z" fill="white"/>
<path d="M70.0444 26.2013H74.4261L77.8539 13.2903H73.4288L70.0444 26.2013Z" fill="white"/>
<path d="M43.1932 17.7086H47.6183C48.2253 14.8073 46.3608 13.335 42.0224 13.335C36.9903 13.335 33.6081 15.8033 32.4373 20.0059C31.4378 23.9032 33.478 26.2438 38.2044 26.2438C42.9764 26.2438 45.7949 24.7715 46.9679 21.4349H42.5428C41.8923 22.9073 40.7649 23.6434 39.2039 23.6434C37.077 23.6434 36.2098 22.3443 36.8602 19.876C37.554 17.3189 39.2039 15.8899 41.3286 15.8899C42.7162 15.8899 43.3233 16.4961 43.1932 17.7086Z" fill="white"/>
<path d="M65.923 17.7086H70.3481C70.9551 14.8073 69.0451 13.335 64.7067 13.335C59.7179 13.335 56.2923 15.8033 55.1649 20.0059C54.1242 23.9032 56.1622 26.2438 60.8908 26.2438C65.6195 26.2438 68.438 24.7715 69.6521 21.4349H65.2292C64.62 22.9073 63.4492 23.6434 61.8882 23.6434C59.7634 23.6434 58.8962 22.3443 59.5878 19.876C60.2404 17.3189 61.8882 15.8899 64.0129 15.8899C65.4026 15.8899 66.0531 16.4961 65.923 17.7086Z" fill="white"/>
<path d="M7.58198 6.14476C13.4814 0.29659 20.6382 -1.2212 23.5023 2.76491C26.3663 6.75102 23.8492 14.8077 17.9498 20.6559C12.0504 26.5473 4.89356 28.063 1.98614 24.0336C-0.832376 20.0063 1.68477 11.9908 7.58198 6.14476Z" fill="#999999"/>
<path d="M11.4824 3.0249C10.8319 3.50125 10.1815 4.0642 9.53108 4.67261C4.36885 9.78246 2.19858 16.7998 4.7591 20.3096C7.40417 23.8172 13.7372 22.5181 19.0295 17.3628C21.8935 14.5913 23.8014 11.3847 24.582 8.39674C24.7988 6.18825 24.4953 4.23741 23.4979 2.76508C21.2431 -0.352788 16.3844 -0.0951331 11.4824 3.0249Z" fill="#666666"/>
<path d="M18.9516 3.67395V3.80386C18.9083 4.54002 18.4746 5.4494 17.6941 6.22887C16.5233 7.35476 14.9623 7.7878 14.3097 7.14041C13.5725 6.44755 14.0083 4.92976 15.1791 3.71725C16.3932 2.54805 17.9542 2.15831 18.6047 2.85117C18.8215 3.06769 18.9516 3.32752 18.9516 3.67395ZM14.4419 23.5569C11.6646 25.6354 8.80271 26.6769 6.02539 26.2439C7.19616 26.2872 8.15228 24.9859 8.93279 23.2537C9.71331 21.4783 10.1469 19.8327 10.5372 18.2716C11.1009 15.8033 11.1443 14.0712 10.8407 13.6814C10.3637 13.073 9.32305 13.2051 8.10674 13.898C7.49968 14.2444 6.71917 14.0279 7.63193 12.902C8.5859 11.7761 12.2717 9.08908 13.5725 8.65604C15.049 8.26631 16.6967 8.82926 16.133 10.4315C15.7406 11.6007 10.6239 24.9426 14.4419 23.5569Z" fill="white"/>
<path d="M84.4891 24.1638L85.4864 20.4396H87.9147V18.4477H86.0501L86.9173 15.2843H87.9147V13.3335H84.617L81.1914 26.2445H87.9147V24.1638H84.4891ZM87.9147 20.4396H88.3916C90.6053 20.4396 91.646 20.8294 91.2123 22.345C90.8654 23.6874 89.7814 24.1638 87.9147 24.1638V26.2445C89.738 26.2445 91.0822 26.0713 92.4265 25.1598C93.3371 24.5535 93.9897 23.6441 94.2498 22.6048C94.7246 20.8294 93.9441 19.6147 91.9061 19.357C93.8141 19.0106 95.0304 18.0125 95.4184 16.4535C95.7653 15.2843 95.4617 14.4183 94.6379 13.8553C93.9441 13.379 92.7734 13.3335 91.2123 13.3335H87.9147V15.2843H89.6079C91.6893 15.2843 92.6433 15.5442 92.3397 16.8433C91.9495 18.0991 90.8221 18.4477 88.6973 18.4477H87.9147V20.4396Z" fill="white"/>
<path d="M100.056 17.1903V18.7903C99.7092 18.9657 99.4057 19.2689 99.2756 19.7019H96.6739C97.1054 18.4461 98.2783 17.5778 100.056 17.1903ZM100.056 24.7706C99.7526 24.8572 99.4057 24.9005 99.0588 24.9005C97.8881 24.9005 97.3677 24.422 97.6279 23.5559C97.8881 22.5599 98.6686 22.2135 100.056 22.0836V20.568C97.062 20.7845 95.4143 21.564 94.8939 23.5126C94.4169 25.2881 95.5465 26.4594 97.8881 26.4594C98.6686 26.4594 99.4057 26.3295 100.056 26.0697V24.7706ZM102.573 22.0836L102.53 22.2135C102.183 23.5559 101.27 24.4675 100.056 24.7706V26.0697C100.707 25.8077 101.27 25.4635 101.791 24.9871L101.574 26.2429H104.178C104.308 25.6345 104.438 24.9416 104.611 24.2488L105.609 20.6113C105.695 20.3081 105.739 20.005 105.739 19.7019V19.2689C105.652 17.7944 104.394 17.0149 102.053 17.0149C101.314 17.0149 100.663 17.1015 100.056 17.1903V18.7903C100.446 18.576 100.923 18.4894 101.533 18.4894C102.875 18.4894 103.397 19.0935 103.005 20.3948L102.964 20.5247H101.574C101.056 20.5247 100.533 20.568 100.056 20.568V22.0836L102.573 22.0836Z" fill="white"/>
<path d="M106.524 26.2429H109.171L110.429 21.6073C110.862 19.9617 112.38 18.7903 113.984 18.7903C115.545 18.7903 116.111 19.7019 115.591 21.5206L114.331 26.2429H116.978L118.453 20.7412C119.06 18.4028 117.889 17.0149 115.287 17.0149C113.594 17.0149 112.25 17.6211 111.079 18.8336L111.383 17.2314H108.738C108.477 18.6604 108.304 19.5287 108.215 19.8751L106.524 26.2429Z" fill="white"/>
<path d="M119.318 26.2438H121.922L123.223 21.3916L126.738 26.2438H130.337L126.345 21.0885L131.724 17.2323H128.385L123.397 20.8287L125.391 13.335H122.789L119.318 26.2438Z" fill="white"/>
</g>
</svg>
