<svg width="86" height="25" viewBox="0 0 86 25" fill="none" xmlns="http://www.w3.org/2000/svg">
<g opacity="0.8" clip-path="url(#clip0_2_15265)">
<path fill-rule="evenodd" clip-rule="evenodd" d="M0.705566 12.5C0.705566 5.59691 7.35653 0 15.5621 0C23.7667 0 30.4177 5.59691 30.4177 12.5C30.4177 19.404 23.7667 25 15.5621 25C7.35653 25 0.705566 19.404 0.705566 12.5Z" fill="#676767"/>
<path fill-rule="evenodd" clip-rule="evenodd" d="M13.757 4.01455L17.2086 2.8988L17.2254 21.1524L13.7446 22.2932L13.757 4.01455Z" fill="white"/>
<path fill-rule="evenodd" clip-rule="evenodd" d="M49.6602 19.7265C52.9773 19.7265 55.5034 17.8395 55.5034 14.5918C55.5034 11.3268 52.9773 9.43896 49.6602 9.43896C46.3449 9.43896 43.8188 11.3268 43.8188 14.5918C43.8188 17.8395 46.3449 19.7265 49.6602 19.7265ZM49.6602 17.3487C48.0605 17.3487 47.4058 16.046 47.4058 14.5918C47.4058 13.1186 48.0605 11.8176 49.6602 11.8176C51.2617 11.8176 51.9164 13.1186 51.9164 14.5918C51.9164 16.046 51.2617 17.3487 49.6602 17.3487Z" fill="white"/>
<path fill-rule="evenodd" clip-rule="evenodd" d="M55.1855 12.0432H57.1719V16.0457C57.1719 18.3854 57.924 19.7262 61.0269 19.7262C61.8949 19.7262 62.5514 19.6128 63.2062 19.5375L63.0903 17.3294C62.7434 17.3857 62.3771 17.461 62.0303 17.461C60.9314 17.461 60.6412 16.8568 60.6412 15.6675V12.0432H63.0708V9.66458H60.6412L60.6403 6.26367L57.2294 7.45559V9.66458H55.1855V12.0432Z" fill="white"/>
<path fill-rule="evenodd" clip-rule="evenodd" d="M75.2151 19.5002H78.6861V14.6304H78.7242L81.5015 19.5002H85.7043L81.9244 14.1769L85.4141 9.6654H81.6165L78.7242 13.7995H78.6861V6.27661L75.2151 7.45382V19.5002Z" fill="white"/>
<path fill-rule="evenodd" clip-rule="evenodd" d="M34.5789 19.4995H38.0508V14.6297H38.0888L40.8662 19.4995H45.0689L41.2891 14.1761L44.7787 9.66467H40.9812L38.0888 13.7987H38.0508V6.27588L34.5789 7.39595V19.4995Z" fill="white"/>
<path fill-rule="evenodd" clip-rule="evenodd" d="M73.9858 19.5463C73.8292 18.7638 73.7902 17.9805 73.7902 17.1963V13.4907C73.7902 10.4524 71.5455 9.36353 68.9505 9.36353C67.4481 9.36353 66.1404 9.573 64.8919 10.0707L64.9512 12.4009C65.9254 11.8668 67.0579 11.6556 68.1895 11.6556C69.4583 11.6556 70.4918 12.0192 70.5112 13.3755C70.0635 13.2994 69.4389 13.2422 68.8726 13.2422C66.9995 13.2422 63.624 13.6058 63.624 16.6431C63.624 18.8019 65.4193 19.7757 67.4286 19.7757C68.8726 19.7757 69.8476 19.2217 70.6484 17.9805H70.6873C70.6873 18.4964 70.7457 19.0123 70.7652 19.5463H73.9858ZM66.9013 16.3947C66.9013 15.4391 67.8383 15.0764 69.0283 15.0764C69.5556 15.0764 70.0635 15.1145 70.5112 15.1336C70.5112 16.2995 69.6724 17.4828 68.3461 17.4828C67.5259 17.4828 66.9013 17.082 66.9013 16.3947Z" fill="white"/>
<path fill-rule="evenodd" clip-rule="evenodd" d="M26.7337 13.7587C26.4099 16.3702 24.9128 19.0077 21.6435 19.0129C19.735 19.0163 18.2442 17.7378 17.2116 16.1737V14.362C18.5034 14.9896 19.7112 15.663 21.1764 15.6838C22.9813 15.7098 24.6129 15.0311 25.288 13.7587H26.7337ZM15.8057 15.3981C14.306 17.1666 12.8567 18.973 10.1413 18.973C6.3057 18.973 4.48657 15.3453 4.48657 12.3123C4.48657 9.39787 5.90843 5.94849 9.6449 5.94849C11.2658 5.94849 12.8257 6.91795 13.7556 7.94367L13.753 10.4175C12.9761 9.90597 11.2357 9.40393 10.0997 9.38575C7.73021 9.3468 5.64122 10.3517 5.6775 12.6395C5.70227 14.2149 7.29755 15.2856 8.88486 15.2856C11.3163 15.2856 12.7886 13.113 14.0193 11.464C14.3635 11.033 15.3314 9.76661 15.4827 9.5632C16.8497 7.69438 18.4317 5.9883 21.1472 5.9883C24.3457 5.9883 26.1418 8.51064 26.6497 11.1074H25.2075C24.627 10.2652 23.5096 9.75016 22.4089 9.75016C19.8961 9.75016 18.3937 12.012 17.1373 13.6774C17.1373 13.6774 16.1596 14.9809 15.8057 15.3981Z" fill="white"/>
</g>
<defs>
<clipPath id="clip0_2_15265">
<rect width="85" height="25" fill="white" transform="translate(0.705566)"/>
</clipPath>
</defs>
</svg>
