<svg viewBox="0 0 250 50" fill="none" xmlns="http://www.w3.org/2000/svg">
    <path fill-rule="evenodd" clip-rule="evenodd" d="M179.963 0.506225C178.753 0.743553 177.32 1.51496 176.702 2.26217C175.932 3.19234 175.439 4.90529 175.439 6.6495V8.07546H174.175H172.911V10.4235V12.7715H174.175H175.439V18.5511V24.3308H177.968H180.497V18.5511V12.7715H182.122H183.748V10.4235V8.07546H182.103H180.457L180.527 6.70133C180.59 5.44822 180.642 5.28729 181.123 4.87405C181.611 4.4543 181.755 4.42684 183.06 4.50234L184.47 4.58398V2.55946V0.534762L183.906 0.421877C183.134 0.267451 180.942 0.314411 179.963 0.506225ZM7.14368 2.01761C4.62717 2.59017 2.81758 3.86477 1.92173 5.69585C1.51155 6.53408 1.4142 7.00766 1.35658 8.44174C1.26971 10.6039 1.64178 11.6189 2.97977 12.8704C4.14944 13.9646 5.46522 14.5346 9.1673 15.5517C12.4924 16.465 13.2696 16.8308 13.605 17.6405C14.5081 19.8209 10.6969 20.9047 7.54356 19.3643C6.71635 18.9602 5.49701 17.8984 4.89574 17.0585C4.68587 16.7656 4.49062 16.8499 2.45762 18.1135C-0.134035 19.7242 -0.107665 19.5071 2.03118 21.6265C4.28761 23.8623 6.65421 24.7463 10.357 24.7361C16.1477 24.7206 19.5745 22.1974 19.6157 17.919C19.6372 15.6748 19.0417 14.4844 17.2079 13.1067C16.1318 12.2981 15.1119 11.9027 11.6423 10.9494C8.40799 10.0606 7.83652 9.78624 7.40341 8.91405C6.2621 6.61644 10.072 5.7867 13.0245 7.68984C13.4945 7.99291 14.149 8.4887 14.479 8.79196C14.8431 9.12646 15.1664 9.28919 15.3015 9.20593C15.9555 8.80297 19.0266 6.20392 19.0266 6.05329C19.0266 5.70741 16.9491 3.88843 15.875 3.29384C14.1312 2.32863 12.5258 1.90943 10.2667 1.82941C8.95182 1.78281 7.89558 1.84639 7.14368 2.01761ZM27.1712 2.52189C26.6082 4.00276 19.5684 24.055 19.5684 24.1779C19.5684 24.262 20.7769 24.3308 22.2541 24.3308H24.9397L25.6465 22.2989L26.3532 20.267H29.8543H33.3551L34.0174 22.2538L34.6798 24.2405L37.6901 24.29C39.3458 24.3173 40.7004 24.3045 40.7004 24.2617C40.7004 24.203 34.1356 5.55948 33.077 2.61184L32.8985 2.11515H30.1122C27.3881 2.11515 27.3224 2.12418 27.1712 2.52189ZM41.9647 13.223V24.3308H44.9449H47.925V20.8348V17.3387L50.6794 17.2355C54.5729 17.0898 56.4916 16.4867 58.064 14.9143C59.2949 13.6834 59.7335 12.4841 59.8144 10.1281C59.9202 7.04071 59.1985 5.18416 57.3716 3.84418C55.4928 2.46608 53.3122 2.11876 46.5252 2.11659L41.9647 2.11515V13.223ZM62.6184 2.31238C62.3056 2.40305 61.8059 2.75489 61.5078 3.09426C59.9712 4.84461 61.2062 7.53505 63.5454 7.53289C66.2799 7.53036 67.1719 3.75333 64.7291 2.52153C63.8679 2.08715 63.5161 2.05229 62.6184 2.31238ZM82.7881 11.8232C82.7905 16.9641 82.8663 21.4889 82.9566 21.8786C83.1893 22.8809 83.6605 23.4496 84.6896 23.9696C85.4825 24.3702 85.8544 24.4282 87.9877 24.4844C89.3102 24.519 90.6714 24.495 91.013 24.4309L91.6339 24.3144V22.6161V20.9176L90.2929 20.9535C89.1788 20.9833 88.8664 20.9255 88.4459 20.612C88.1676 20.4043 87.8851 20.0385 87.8181 19.7992C87.7513 19.5597 87.6884 17.8401 87.6785 15.9774L87.6604 12.5908H89.7375H91.8146V10.3331V8.07546H89.7375H87.6604V5.27592V2.47638H85.2221H82.7838L82.7881 11.8232ZM121.111 12.1845L121.165 21.8925L121.616 22.6955C121.941 23.2733 122.32 23.6281 122.965 23.9599C123.77 24.3731 124.114 24.4277 126.273 24.4844C127.598 24.519 128.962 24.495 129.303 24.4309L129.924 24.3144V22.6264V20.9383L128.599 20.9586C126.999 20.983 126.419 20.6817 126.141 19.6816C126.038 19.3083 125.952 17.5601 125.952 15.7968L125.951 12.5908H128.028H130.105V10.3331V8.07546H128.028H125.951V5.27592V2.47638H123.504H121.057L121.111 12.1845ZM64.877 3.11449C65.9571 4.02335 66.0373 5.46827 65.062 6.44359C64.076 7.42957 62.6708 7.34017 61.7385 6.23209C61.2487 5.64997 61.1345 4.57025 61.4881 3.86423C62.1143 2.61437 63.8311 2.23453 64.877 3.11449ZM62.5549 4.92968C62.5549 6.08905 62.6118 6.4613 62.7806 6.40585C62.9049 6.36521 63.0319 6.07387 63.0629 5.7587C63.1364 5.01475 63.3803 5.03317 63.8432 5.81776C64.0482 6.16545 64.3368 6.44992 64.4842 6.44992C64.6318 6.44992 64.7226 6.38905 64.6863 6.31446C64.65 6.23986 64.5084 5.95575 64.3717 5.68302C64.154 5.24882 64.1604 5.14587 64.4226 4.85599C64.7744 4.4673 64.8117 3.90234 64.5055 3.59619C64.3863 3.47699 63.8986 3.37945 63.4218 3.37945H62.5549V4.92968ZM63.9998 3.91895C64.3594 4.14815 64.0272 4.71113 63.4847 4.79187C63.1596 4.84009 63.0967 4.75972 63.0967 4.29517C63.0967 3.71034 63.4449 3.56531 63.9998 3.91895ZM52.6163 7.45378C53.6184 8.04042 53.9455 8.63807 53.9455 9.88161C53.9455 11.1251 53.6184 11.7228 52.6163 12.3094C52.1482 12.5836 51.5702 12.6774 49.9712 12.7386L47.925 12.817V9.88161V6.94625L49.9712 7.02463C51.5702 7.08586 52.1482 7.1796 52.6163 7.45378ZM72.6291 7.91128C71.1085 8.13181 69.8992 8.72278 68.9989 9.68528C68.0172 10.7348 67.7098 11.5873 67.7138 13.2488C67.7163 14.3629 67.7905 14.658 68.2562 15.4115C69.1634 16.8788 70.1353 17.311 74.707 18.2804C76.3804 18.6351 77.0642 19.1239 77.0642 19.9652C77.0642 20.7407 76.5999 21.1914 75.5379 21.4461C74.0088 21.8129 71.4435 21.2062 69.7742 20.0828L68.8806 19.4815L67.8888 20.8567L66.897 22.2321L67.717 22.8151C68.7857 23.5748 70.5182 24.2602 72.0406 24.5254C73.5562 24.7892 76.591 24.6487 77.8452 24.2568C80.0939 23.5538 81.4805 21.9025 81.6558 19.7186C81.8854 16.8584 80.1968 15.304 76.0721 14.5787C74.2329 14.2552 72.8893 13.8367 72.575 13.4894C72.3946 13.2902 72.3048 12.9351 72.3406 12.5627C72.4826 11.0795 74.9664 10.927 77.6695 12.2354C78.5186 12.6463 79.2715 12.9147 79.3431 12.8318C79.4144 12.7491 79.8501 12.1315 80.311 11.4598L81.1492 10.2385L80.3861 9.68239C79.9664 9.37643 79.3181 8.96932 78.9455 8.77751C77.4807 8.02416 74.5869 7.62735 72.6291 7.91128ZM99.5642 7.90008C97.4032 8.1011 95.083 9.00888 93.6753 10.204L93.0977 10.6944L94.0981 12.049C94.6482 12.794 95.1204 13.426 95.1471 13.4536C95.1738 13.4811 95.6219 13.2167 96.143 12.8659C98.2396 11.4551 101.33 11.0749 102.227 12.1176C102.483 12.4147 102.651 12.8426 102.651 13.193V13.775L100.498 14.0871C94.9647 14.8894 92.4848 16.7705 92.4704 20.1767C92.466 21.212 92.5542 21.7016 92.8446 22.2538C93.7912 24.0547 95.6597 24.8402 98.1822 24.4975C99.6594 24.2969 100.747 23.809 101.818 22.8666L102.622 22.1589L102.727 22.703C102.785 23.0022 102.879 23.491 102.937 23.789L103.041 24.3308H105.486H107.931L107.795 23.9245C107.719 23.7009 107.607 20.9172 107.545 17.7384L107.431 11.9587L106.908 10.8185C106.596 10.1383 106.103 9.43693 105.686 9.0804C104.489 8.05505 102.344 7.64144 99.5642 7.90008ZM118.42 7.89646C117.091 8.09081 115.883 8.73037 114.888 9.76656L114.03 10.6604V9.36794V8.07546H111.592H109.154V16.2031V24.3308H111.592H114.03V19.3112V14.2915L114.798 13.5402C115.861 12.4998 117.051 12.0071 118.482 12.0154L119.629 12.0219L119.631 10.8163C119.632 10.1533 119.684 9.18407 119.746 8.66246C119.836 7.91362 119.807 7.71892 119.609 7.7368C119.471 7.74908 118.936 7.82097 118.42 7.89646ZM157.36 7.89719C156.231 8.08828 155.495 8.49828 154.363 9.56914L153.404 10.4758V9.27564V8.07546H150.966H148.528V19.2736V30.4718H150.966H153.404V26.5885C153.404 24.4528 153.454 22.7053 153.514 22.7053C153.574 22.7053 153.869 22.9125 154.17 23.1655C156.614 25.222 160.808 25.0419 162.745 22.7971C164.125 21.1975 164.653 19.4123 164.668 16.2935C164.688 12.1295 163.55 9.61863 161.119 8.4598C159.882 7.8701 158.63 7.68262 157.36 7.89719ZM191.482 7.92049C187.134 8.46287 184.65 11.4 184.615 16.0397C184.599 18.1009 184.861 19.3549 185.606 20.7733C187.007 23.4415 189.998 24.8864 193.591 24.6303C197.018 24.3859 199.431 22.7201 200.567 19.8155C201.06 18.5539 201.243 15.3815 200.909 13.8794C199.972 9.66848 196.263 7.32391 191.482 7.92049ZM208.944 7.92283C206.847 8.21363 205.224 8.98594 204.103 10.2264C201.284 13.3473 201.312 19.3271 204.162 22.4181C206.768 25.2455 212.299 25.4658 215.266 22.8605C215.859 22.3401 217.48 19.881 217.321 19.7438C217.283 19.7109 216.439 19.4172 215.446 19.091C214.452 18.765 213.538 18.4607 213.414 18.415C213.29 18.3693 213.188 18.4466 213.188 18.5867C213.188 18.7269 212.943 19.2286 212.643 19.7015C211.677 21.2237 209.822 21.6655 208.462 20.697C206.379 19.214 206.423 13.156 208.525 11.8736C210.276 10.806 212.117 11.4676 212.954 13.4647C213.093 13.7963 213.304 14.0316 213.423 13.9879C213.542 13.944 214.432 13.6456 215.401 13.3249C216.369 13.0041 217.162 12.6647 217.162 12.5708C217.162 12.0322 215.98 10.1878 215.165 9.45536C213.745 8.17841 211.351 7.58888 208.944 7.92283ZM241.055 7.9232C239.042 8.15438 237.388 9.11544 236.553 10.539C235.914 11.6296 235.75 13.6511 236.203 14.8388C236.831 16.4831 238.263 17.2919 241.816 18.0093C244.139 18.4784 245.104 18.9086 245.264 19.5467C245.595 20.8632 244.701 21.5311 242.628 21.5172C240.987 21.5062 239.638 21.1256 238.229 20.2757C237.647 19.9247 237.1 19.6818 237.013 19.7356C236.925 19.7894 236.472 20.369 236.005 21.0236L235.156 22.2138L235.596 22.576C236.352 23.1978 238.52 24.1407 239.834 24.4192C240.527 24.5658 241.784 24.6859 242.628 24.6863C247.18 24.6877 249.862 22.682 249.849 19.2866C249.844 17.9831 249.384 16.9899 248.392 16.1407C247.537 15.4092 246.316 14.9775 243.712 14.4866C241.167 14.0067 240.461 13.6279 240.461 12.7435C240.461 11.11 243.097 10.8237 245.814 12.1621C246.595 12.547 247.283 12.8849 247.343 12.9131C247.403 12.9412 247.876 12.3499 248.395 11.5987L249.339 10.2333L248.919 9.88323C248.249 9.32531 246.052 8.31044 245.067 8.10399C243.796 7.8374 242.364 7.77292 241.055 7.9232ZM131.731 14.6358C131.731 21.9917 131.777 22.3305 132.95 23.5034C133.833 24.3863 135.139 24.7614 136.953 24.6536C138.62 24.5544 140.076 23.9044 141.242 22.7376L142.026 21.9543V23.1426V24.3308H144.464H146.902V16.2031V8.07546H144.464H142.026L142.025 13.6294L142.025 19.1833L141.167 19.762C140.696 20.0804 140.081 20.4258 139.801 20.5296C139.142 20.7747 137.947 20.7715 137.483 20.5235C136.689 20.0985 136.607 19.449 136.607 13.59V8.07546H134.169H131.731V14.6358ZM218.426 14.2978C218.426 18.0427 218.503 20.8796 218.62 21.4229C219.04 23.3844 220.456 24.4853 222.771 24.6509C224.762 24.7934 227.103 23.878 228.257 22.5061C228.5 22.2184 228.744 21.9828 228.8 21.9828C228.856 21.9828 228.902 22.5111 228.902 23.1568V24.3308H231.342H233.782L233.735 16.2483L233.688 8.16576L231.297 8.11537L228.907 8.06498L228.859 13.6213L228.811 19.1773L227.773 19.8913C226.915 20.4808 226.546 20.6188 225.652 20.6835C224.325 20.7794 223.763 20.4718 223.493 19.501C223.382 19.0997 223.304 16.6247 223.304 13.4488L223.303 8.07546H220.864H218.426V14.2978ZM31.8502 15.7924C31.8502 15.9649 31.3523 16.0225 29.8635 16.0225C28.7708 16.0225 27.8767 15.9521 27.8767 15.8661C27.8767 15.7243 29.4612 11.0041 29.7912 10.1626C29.8929 9.90328 30.1803 10.5636 30.8895 12.6869C31.418 14.2684 31.8502 15.666 31.8502 15.7924ZM194.166 11.6775C195.647 12.3499 196.315 14.0587 196.171 16.8084C196.104 18.098 195.983 18.6794 195.638 19.3717C194.244 22.1712 190.682 21.7061 189.781 18.6071C189.363 17.1707 189.492 14.2222 190.016 13.223C190.926 11.49 192.479 10.9115 194.166 11.6775ZM158.1 12.1848C159.139 12.7048 159.611 13.7927 159.695 15.8623C159.785 18.0588 159.461 19.296 158.569 20.1597C157.442 21.2526 155.385 21.1031 153.987 19.8265L153.404 19.294V16.4127V13.5313L154.068 12.949C154.432 12.6288 154.981 12.2578 155.287 12.1245C156.068 11.7846 157.355 11.812 158.1 12.1848ZM102.651 18.0873C102.651 19.5657 102.636 19.6213 102.122 19.9876C100.897 20.8596 98.9765 21.1562 97.9593 20.6302C97.3504 20.3154 97.1559 19.8321 97.3089 19.0159C97.5036 17.9788 98.5622 17.3065 100.752 16.8299C102.739 16.3971 102.651 16.3393 102.651 18.0873ZM0.603779 40.2151V49.0751H1.23593H1.86809V41.3558V33.6363L4.97612 41.3558L8.08397 49.0751H8.64658H9.20938L12.2667 41.4057L15.3239 33.7362L15.3711 41.4057L15.418 49.0751H16.0484H16.6786V40.225V31.3748H15.8808H15.083L11.9327 39.2768C10.2002 43.6229 8.72587 47.1787 8.65634 47.1787C8.58698 47.1787 7.12598 43.6431 5.40959 39.3219L2.2891 31.4651L1.44635 31.4101L0.603779 31.355V40.2151ZM52.2598 40.225V49.0751H52.8016C53.3317 49.0751 53.3435 49.0555 53.3435 48.1679V47.2605L54.2413 47.9703C55.5452 49.0009 56.5147 49.323 57.9938 49.2168C60.0586 49.0686 61.3729 48.1201 62.3193 46.095C62.7893 45.0891 62.8258 44.8491 62.8258 42.7536C62.8258 40.6581 62.7893 40.4181 62.3193 39.4122C61.3337 37.3032 59.7891 36.2533 57.6782 36.2572C56.3244 36.2598 55.3127 36.6488 54.1214 37.6249L53.3435 38.2624V34.8186V31.3748H52.8016H52.2598V40.225ZM22.7987 36.5007C21.4295 36.99 20.5287 37.866 19.8046 39.4128C19.3336 40.4186 19.2975 40.657 19.2975 42.7536C19.2975 44.8491 19.334 45.0891 19.8039 46.095C20.8141 48.2564 22.3197 49.2509 24.5863 49.254C26.5073 49.2565 27.8323 48.5859 28.873 47.0842C29.281 46.4954 29.3285 46.3209 29.1423 46.0966C28.7834 45.664 28.5007 45.7724 27.995 46.5366C27.3713 47.479 26.1627 48.1701 24.9119 48.299C23.5833 48.4363 22.1563 47.7729 21.3928 46.6632C20.8078 45.8132 20.2909 44.2601 20.2909 43.3529V42.7536H24.9143H29.5376L29.4083 41.6248C29.1396 39.2784 27.9489 37.3236 26.3415 36.5894C25.489 36.2 23.761 36.1568 22.7987 36.5007ZM35.4658 36.6266C35.0206 36.8285 34.2282 37.3171 33.7048 37.7121L32.7533 38.4306V37.4312V36.4321H32.1212H31.489V42.7536V49.0751H32.1212H32.7533V44.2879V39.5007L33.9725 38.5966C36.5551 36.6817 39.2363 36.7491 39.7901 38.743C39.8959 39.1245 39.9763 41.4897 39.9769 44.2437L39.9779 49.0751H40.5198H41.0616V44.3884V39.7014L41.6486 39.1456C43.915 36.9999 46.7669 36.5757 47.8732 38.2198C48.2794 38.8232 48.2862 38.919 48.2862 43.9543V49.0751H48.9184H49.5506V44.388C49.5506 41.6894 49.4671 39.3118 49.3539 38.7837C48.9863 37.0696 47.8851 36.2515 45.946 36.2515C44.5807 36.2515 43.3338 36.7151 42.009 37.7153C41.45 38.1374 40.9672 38.4073 40.9361 38.3153C40.7076 37.6386 40.0408 36.9029 39.3871 36.6062C38.3389 36.1303 36.5394 36.1397 35.4658 36.6266ZM67.447 36.8141C65.3495 37.8622 64.4513 39.6701 64.4513 42.8439C64.4513 44.6907 64.4907 44.9134 65.0094 46.0047C65.7463 47.5544 66.3404 48.2268 67.4712 48.7901C68.7518 49.4284 70.7192 49.446 72.0372 48.8308C72.9003 48.428 74.036 47.3674 74.4674 46.5617C74.6425 46.2344 74.6059 46.1546 74.1941 45.9669C73.7796 45.7782 73.694 45.7957 73.5283 46.1033C73.4238 46.2975 72.9881 46.7969 72.5602 47.2132C69.8981 49.803 65.8341 47.731 65.5847 43.6567L65.535 42.8439L70.0956 42.7957L74.6561 42.7475L74.6539 41.9829C74.6474 39.6754 73.4229 37.489 71.6833 36.679C70.3224 36.0452 68.8943 36.0909 67.447 36.8141ZM81.008 36.5565C80.5545 36.7169 79.7386 37.2889 79.0664 37.9176L77.9072 39.002V37.7172V36.4321H77.3653H76.8235V42.7536V49.0751H77.3653H77.9072V45.0041C77.9072 41.2619 77.937 40.8747 78.2758 40.2104C79.0915 38.6116 80.6747 37.5154 82.3774 37.3709C82.8988 37.3267 83.3267 37.2396 83.3282 37.1773C83.3294 37.1152 83.3796 36.8814 83.4394 36.6578C83.5418 36.2758 83.4956 36.2524 82.6695 36.2657C82.186 36.2735 81.4384 36.4044 81.008 36.5565ZM25.3981 37.346C26.7674 37.7262 27.8623 39.2128 28.1644 41.1015L28.2842 41.8505H24.2875C22.0894 41.8505 20.2928 41.7895 20.2952 41.7151C20.3367 40.441 21.4069 38.471 22.386 37.8658C23.5045 37.1746 24.2915 37.0388 25.3981 37.346ZM59.5942 37.7887C62.1644 39.2948 62.5843 44.9011 60.2983 47.1872C58.6798 48.8055 56.3905 48.6191 54.0528 46.6784L53.35 46.095L53.3467 42.7195L53.3435 39.344L54.5133 38.475C55.1567 37.9971 55.9897 37.5062 56.3646 37.3841C57.3226 37.072 58.6566 37.2391 59.5942 37.7887ZM70.5771 37.3528C70.9661 37.4609 71.5071 37.7139 71.7791 37.9151C72.4399 38.4037 73.142 39.737 73.3521 40.9023L73.5231 41.8505H69.5741H65.6253V41.4311C65.6253 39.9044 67.2158 37.7498 68.616 37.3799C69.5734 37.1271 69.7544 37.1245 70.5771 37.3528Z" fill="white"/>
</svg>