<svg viewBox="0 0 262 52" fill="none" xmlns="http://www.w3.org/2000/svg">
    <path fill-rule="evenodd" clip-rule="evenodd" d="M188.418 0.626032C187.15 0.874752 185.649 1.68319 185.001 2.46626C184.194 3.44108 183.677 5.23626 183.677 7.06419V8.5586H182.352H181.027V11.0193V13.48H182.352H183.677V19.5371V25.5943H186.327H188.977V19.5371V13.48H190.681H192.384V11.0193V8.5586H190.66H188.936L189.009 7.11851C189.075 5.80525 189.13 5.6366 189.634 5.20352C190.145 4.76362 190.295 4.73485 191.664 4.81397L193.142 4.89952V2.77783V0.655939L192.55 0.537635C191.741 0.375797 189.444 0.425011 188.418 0.626032ZM7.30303 2.20997C4.66572 2.81 2.76927 4.14579 1.83041 6.06476C1.40055 6.94324 1.29852 7.43954 1.23814 8.94247C1.14709 11.2084 1.53702 12.2722 2.93924 13.5837C4.16506 14.7304 5.544 15.3278 9.42378 16.3937C12.9085 17.3509 13.723 17.7342 14.0745 18.5828C15.0209 20.8678 11.0268 22.0037 7.7221 20.3893C6.85518 19.9659 5.57731 18.8531 4.94718 17.9729C4.72723 17.6659 4.52262 17.7543 2.39202 19.0785C-0.324032 20.7665 -0.296397 20.539 1.94512 22.7601C4.30986 25.1033 6.79006 26.0296 10.6706 26.019C16.7393 26.0027 20.3306 23.3584 20.3737 18.8746C20.3963 16.5228 19.7722 15.2752 17.8504 13.8313C16.7226 12.9839 15.6537 12.5696 12.0176 11.5705C8.62802 10.639 8.02912 10.3515 7.57522 9.43745C6.37913 7.02955 10.3719 6.15998 13.4662 8.15447C13.9587 8.47209 14.6446 8.99168 14.9905 9.30949C15.3721 9.66005 15.7109 9.83059 15.8525 9.74333C16.5379 9.32104 19.7563 6.59722 19.7563 6.43936C19.7563 6.07688 17.5791 4.17059 16.4535 3.54746C14.6259 2.53592 12.9435 2.09659 10.576 2.01274C9.19796 1.9639 8.09102 2.03053 7.30303 2.20997ZM28.2919 2.73845C27.7019 4.2904 20.3241 25.3052 20.3241 25.4339C20.3241 25.5221 21.5907 25.5943 23.1388 25.5943H25.9533L26.694 23.4648L27.4346 21.3354H31.1038H34.7727L35.4668 23.4175L36.1609 25.4996L39.3157 25.5515C41.0509 25.5801 42.4705 25.5666 42.4705 25.5218C42.4705 25.4603 35.5906 5.92185 34.4812 2.83272L34.2942 2.31218H31.374C28.5192 2.31218 28.4503 2.32165 28.2919 2.73845ZM43.7955 13.9532V25.5943H46.9187H50.0419V21.9305V18.2665L52.9285 18.1584C57.0089 18.0056 59.0197 17.3736 60.6676 15.7257C61.9576 14.4357 62.4172 13.1789 62.502 10.7098C62.6129 7.47418 61.8565 5.52852 59.9419 4.12421C57.973 2.67997 55.6877 2.31597 48.575 2.3137L43.7955 2.31218V13.9532ZM65.4407 2.51888C65.1128 2.6139 64.5891 2.98263 64.2767 3.3383C62.6663 5.17266 63.9606 7.99226 66.4121 7.98998C69.2778 7.98733 70.2127 4.029 67.6526 2.73808C66.7501 2.28285 66.3814 2.24631 65.4407 2.51888ZM86.5785 12.4863C86.581 17.8739 86.6605 22.6159 86.7551 23.0243C86.9989 24.0747 87.4928 24.6707 88.5713 25.2157C89.4023 25.6355 89.792 25.6963 92.0277 25.7552C93.4136 25.7915 94.8402 25.7663 95.1982 25.6991L95.8489 25.577V23.7972V22.0172L94.4435 22.0548C93.276 22.0861 92.9485 22.0255 92.5079 21.6969C92.2162 21.4792 91.9201 21.0959 91.8499 20.8451C91.7799 20.5941 91.714 18.7919 91.7036 16.8398L91.6847 13.2907H93.8615H96.0382V10.9247V8.5586H93.8615H91.6847V5.62468V2.69075H89.1293H86.574L86.5785 12.4863ZM126.741 12.8648L126.797 23.0389L127.27 23.8805C127.611 24.486 128.008 24.8578 128.684 25.2055C129.527 25.6386 129.888 25.6957 132.15 25.7552C133.54 25.7915 134.969 25.7663 135.327 25.6991L135.977 25.577V23.808V22.0389L134.588 22.0601C132.911 22.0857 132.304 21.7699 132.013 20.7219C131.904 20.3306 131.815 18.4985 131.814 16.6505L131.813 13.2907H133.99H136.167V10.9247V8.5586H133.99H131.813V5.62468V2.69075H129.249H126.684L126.741 12.8648ZM67.8077 3.3595C68.9396 4.31198 69.0236 5.82626 68.0015 6.8484C66.9682 7.88171 65.4956 7.78802 64.5185 6.62675C64.0051 6.01669 63.8855 4.88514 64.2561 4.14522C64.9124 2.83537 66.7115 2.4373 67.8077 3.3595ZM65.374 5.26182C65.374 6.47684 65.4337 6.86695 65.6106 6.80884C65.7409 6.76626 65.8739 6.46094 65.9065 6.13064C65.9835 5.35097 66.2391 5.37028 66.7242 6.19253C66.939 6.55691 67.2415 6.85503 67.396 6.85503C67.5506 6.85503 67.6458 6.79124 67.6078 6.71307C67.5697 6.63489 67.4213 6.33715 67.278 6.05132C67.05 5.59628 67.0566 5.48839 67.3314 5.18459C67.7001 4.77725 67.7391 4.18516 67.4183 3.86432C67.2934 3.7394 66.7823 3.63718 66.2826 3.63718H65.374V5.26182ZM66.8883 4.20258C67.2652 4.44278 66.9171 5.03278 66.3485 5.11739C66.0078 5.16793 65.9419 5.0837 65.9419 4.59686C65.9419 3.98395 66.3068 3.83196 66.8883 4.20258ZM54.9584 7.90708C56.0086 8.52188 56.3514 9.14822 56.3514 10.4514C56.3514 11.7547 56.0086 12.381 54.9584 12.9958C54.4678 13.2832 53.8621 13.3814 52.1863 13.4456L50.0419 13.5277V10.4514V7.37519L52.1863 7.45734C53.8621 7.5215 54.4678 7.61974 54.9584 7.90708ZM75.9318 8.38654C74.3382 8.61765 73.0709 9.23699 72.1273 10.2457C71.0986 11.3456 70.7764 12.2391 70.7806 13.9803C70.7832 15.1478 70.861 15.4571 71.349 16.2468C72.2998 17.7845 73.3183 18.2375 78.1095 19.2534C79.8632 19.6252 80.5799 20.1374 80.5799 21.0191C80.5799 21.8318 80.0932 22.3041 78.9802 22.571C77.3777 22.9554 74.6893 22.3196 72.9399 21.1423L72.0034 20.5121L70.964 21.9534L69.9246 23.3948L70.784 24.0058C71.904 24.8019 73.7196 25.5203 75.3151 25.7981C76.9034 26.0747 80.084 25.9274 81.3983 25.5167C83.755 24.78 85.2081 23.0493 85.3919 20.7607C85.6325 17.7632 83.8628 16.1342 79.5401 15.374C77.6126 15.035 76.2045 14.5964 75.8752 14.2324C75.6861 14.0236 75.592 13.6515 75.6295 13.2612C75.7783 11.7068 78.3813 11.547 81.2142 12.9182C82.104 13.3488 82.8931 13.6301 82.9681 13.5432C83.0429 13.4565 83.4994 12.8094 83.9825 12.1054L84.8609 10.8255L84.0612 10.2427C83.6213 9.92202 82.942 9.49537 82.5515 9.29435C81.0164 8.50484 77.9836 8.08898 75.9318 8.38654ZM104.16 8.3748C101.895 8.58547 99.4635 9.53682 97.9883 10.7893L97.3829 11.3032L98.4314 12.7229C99.0079 13.5037 99.5027 14.166 99.5307 14.1949C99.5588 14.2237 100.028 13.9466 100.574 13.579C102.772 12.1005 106.011 11.7021 106.951 12.7948C107.218 13.1062 107.395 13.5546 107.395 13.9218V14.5317L105.139 14.8588C99.3396 15.6996 96.7407 17.671 96.7255 21.2407C96.721 22.3257 96.8134 22.8388 97.1177 23.4175C98.1098 25.3048 100.068 26.128 102.711 25.769C104.26 25.5587 105.4 25.0474 106.522 24.0597L107.364 23.3181L107.474 23.8882C107.535 24.2019 107.634 24.7141 107.694 25.0264L107.804 25.5943H110.366H112.929L112.785 25.1684C112.707 24.934 112.589 22.0168 112.523 18.6854L112.404 12.6282L111.856 11.4333C111.529 10.7204 111.013 9.98543 110.576 9.61178C109.321 8.53721 107.073 8.10374 104.16 8.3748ZM123.921 8.37102C122.528 8.57469 121.262 9.24494 120.219 10.3309L119.32 11.2676V9.91312V8.5586H116.765H114.21V17.0764V25.5943H116.765H119.32V20.3337V15.073L120.125 14.2856C121.239 13.1953 122.486 12.679 123.985 12.6877L125.188 12.6945L125.19 11.431C125.191 10.7361 125.245 9.72043 125.311 9.17377C125.405 8.389 125.375 8.18495 125.167 8.20369C125.023 8.21656 124.462 8.29189 123.921 8.37102ZM164.73 8.37177C163.546 8.57204 162.776 9.00171 161.589 10.124L160.585 11.0742V9.8164V8.5586H158.029H155.474V20.2943V32.03H158.029H160.585V27.9603C160.585 25.722 160.636 23.8907 160.699 23.8907C160.762 23.8907 161.072 24.1078 161.387 24.373C163.948 26.5282 168.344 26.3395 170.374 23.9869C171.82 22.3105 172.373 20.4397 172.389 17.1711C172.409 12.8073 171.217 10.1758 168.67 8.9614C167.373 8.34338 166.061 8.1469 164.73 8.37177ZM200.49 8.39619C195.934 8.96461 193.33 12.0428 193.293 16.9051C193.276 19.0653 193.552 20.3795 194.332 21.8659C195.8 24.6622 198.935 26.1765 202.7 25.9081C206.292 25.652 208.821 23.9062 210.011 20.8621C210.528 19.54 210.719 16.2154 210.369 14.6411C209.387 10.2281 205.5 7.77098 200.49 8.39619ZM218.79 8.39865C216.592 8.7034 214.892 9.51278 213.717 10.8128C210.762 14.0835 210.792 20.3503 213.778 23.5897C216.509 26.5528 222.306 26.7837 225.416 24.0533C226.037 23.508 227.736 20.9308 227.57 20.787C227.53 20.7525 226.645 20.4448 225.604 20.1029C224.563 19.7613 223.605 19.4423 223.475 19.3944C223.344 19.3465 223.238 19.4275 223.238 19.5744C223.238 19.7213 222.981 20.2471 222.666 20.7427C221.655 22.338 219.71 22.801 218.285 21.786C216.102 20.2318 216.148 13.883 218.351 12.5391C220.185 11.4202 222.115 12.1136 222.992 14.2065C223.138 14.554 223.359 14.8007 223.484 14.7548C223.609 14.7089 224.542 14.3962 225.557 14.06C226.572 13.7238 227.402 13.3681 227.402 13.2697C227.402 12.7053 226.163 10.7723 225.309 10.0047C223.821 8.66649 221.313 8.04866 218.79 8.39865ZM252.443 8.39903C250.333 8.64131 248.599 9.6485 247.725 11.1404C247.055 12.2834 246.882 14.4018 247.358 15.6466C248.016 17.3698 249.516 18.2174 253.24 18.9693C255.674 19.4609 256.686 19.9117 256.853 20.5805C257.2 21.9602 256.263 22.6602 254.091 22.6456C252.371 22.634 250.958 22.2352 249.481 21.3444C248.871 20.9767 248.297 20.7221 248.206 20.7785C248.115 20.8349 247.639 21.4423 247.15 22.1283L246.26 23.3757L246.721 23.7552C247.513 24.4069 249.785 25.3949 251.163 25.6868C251.889 25.8405 253.206 25.9664 254.091 25.9668C258.862 25.9683 261.673 23.8663 261.659 20.3079C261.653 18.9418 261.171 17.901 260.131 17.0109C259.236 16.2443 257.956 15.7919 255.227 15.2775C252.56 14.7745 251.82 14.3776 251.82 13.4507C251.82 11.7388 254.583 11.4388 257.43 12.8414C258.248 13.2447 258.969 13.5989 259.032 13.6284C259.095 13.6579 259.591 13.0382 260.135 12.251L261.124 10.82L260.684 10.4532C259.982 9.86845 257.679 8.80486 256.647 8.5885C255.315 8.30912 253.814 8.24154 252.443 8.39903ZM137.87 15.4338C137.87 23.1428 137.919 23.4979 139.148 24.7271C140.074 25.6524 141.442 26.0455 143.343 25.9325C145.091 25.8286 146.616 25.1474 147.839 23.9246L148.66 23.1037V24.349V25.5943H151.215H153.77V17.0764V8.5586H151.215H148.66L148.659 14.3791L148.659 20.1996L147.76 20.8061C147.266 21.1398 146.621 21.5017 146.328 21.6106C145.637 21.8674 144.385 21.864 143.899 21.6041C143.067 21.1587 142.981 20.4781 142.981 14.3379V8.5586H140.426H137.87V15.4338ZM228.727 15.0797C228.727 19.0043 228.808 21.9774 228.93 22.5468C229.371 24.6024 230.855 25.7561 233.281 25.9297C235.367 26.079 237.821 25.1197 239.031 23.6819C239.284 23.3804 239.54 23.1336 239.599 23.1336C239.658 23.1336 239.706 23.6872 239.706 24.3639V25.5943H242.263H244.82L244.771 17.1238L244.722 8.65324L242.216 8.60043L239.711 8.54762L239.661 14.3706L239.611 20.1934L238.523 20.9416C237.623 21.5595 237.236 21.7041 236.3 21.7718C234.909 21.8724 234.32 21.55 234.038 20.5326C233.921 20.112 233.84 17.5182 233.839 14.1898L233.838 8.5586H231.283H228.727V15.0797ZM33.1955 16.646C33.1955 16.8268 32.6737 16.8871 31.1134 16.8871C29.9682 16.8871 29.0313 16.8133 29.0313 16.7232C29.0313 16.5746 30.6919 11.6279 31.0377 10.746C31.1443 10.4742 31.4454 11.1662 32.1887 13.3914C32.7426 15.0488 33.1955 16.5135 33.1955 16.646ZM203.303 12.3335C204.855 13.0382 205.555 14.829 205.404 17.7107C205.333 19.0622 205.207 19.6715 204.845 20.3971C203.384 23.331 199.651 22.8436 198.707 19.5958C198.269 18.0904 198.405 15.0004 198.954 13.9532C199.907 12.137 201.535 11.5308 203.303 12.3335ZM165.505 12.8652C166.594 13.4102 167.089 14.5502 167.177 16.7192C167.271 19.0211 166.931 20.3178 165.997 21.2229C164.816 22.3683 162.66 22.2115 161.195 20.8737L160.585 20.3157V17.296V14.2763L161.28 13.6661C161.662 13.3305 162.237 12.9417 162.557 12.802C163.376 12.4458 164.724 12.4745 165.505 12.8652ZM107.395 19.0511C107.395 20.6004 107.379 20.6587 106.84 21.0425C105.556 21.9564 103.544 22.2672 102.478 21.716C101.84 21.3861 101.636 20.8796 101.796 20.0242C102 18.9373 103.11 18.2328 105.404 17.7333C107.487 17.2797 107.395 17.2192 107.395 19.0511ZM0.449198 42.241V51.5263H1.1117H1.77419V43.4365V35.3464L5.03141 43.4365L8.28845 51.5263H8.87807H9.46788L12.6719 43.4887L15.8759 35.4511L15.9253 43.4887L15.9746 51.5263H16.6352H17.2956V42.2514V32.9764H16.4595H15.6234L12.3219 41.2576C10.5063 45.8124 8.96116 49.5388 8.88829 49.5388C8.8156 49.5388 7.28448 45.8336 5.4857 41.3049L2.21542 33.071L1.33221 33.0133L0.449198 32.9556V42.241ZM54.5848 42.2514V51.5263H55.1526C55.7082 51.5263 55.7205 51.5057 55.7205 50.5756V49.6246L56.6614 50.3685C58.0279 51.4485 59.044 51.786 60.594 51.6747C62.7579 51.5195 64.1353 50.5254 65.1272 48.4031C65.6197 47.349 65.658 47.0974 65.658 44.9014C65.658 42.7053 65.6197 42.4537 65.1272 41.3996C64.0943 39.1893 62.4755 38.089 60.2633 38.0931C58.8444 38.0958 57.7843 38.5035 56.5357 39.5264L55.7205 40.1946V36.5855V32.9764H55.1526H54.5848V42.2514ZM23.7095 38.3483C22.2745 38.8611 21.3306 39.7791 20.5717 41.4002C20.0781 42.4543 20.0402 42.7041 20.0402 44.9014C20.0402 47.0974 20.0785 47.349 20.571 48.4031C21.6296 50.6683 23.2075 51.7105 25.5829 51.7137C27.5961 51.7164 28.9847 51.0136 30.0754 49.4398C30.503 48.8228 30.5527 48.6399 30.3576 48.4048C29.9815 47.9515 29.6852 48.0651 29.1552 48.8659C28.5016 49.8536 27.2349 50.5778 25.9241 50.713C24.5318 50.8568 23.0362 50.1616 22.2361 48.9986C21.623 48.1078 21.0813 46.4802 21.0813 45.5294V44.9014H25.9266H30.7719L30.6364 43.7183C30.3547 41.2593 29.107 39.2107 27.4223 38.4412C26.5289 38.0331 24.718 37.9879 23.7095 38.3483ZM36.9847 38.4802C36.5181 38.6919 35.6877 39.2039 35.1391 39.6178L34.142 40.3708V39.3235V38.2764H33.4795H32.817V44.9014V51.5263H33.4795H34.142V46.5093V41.4923L35.4196 40.5448C38.1262 38.538 40.9362 38.6086 41.5165 40.6983C41.6274 41.098 41.7117 43.5767 41.7122 46.463L41.7134 51.5263H42.2812H42.8491V46.6146V41.7026L43.4643 41.1202C45.8394 38.8715 48.8282 38.4269 49.9876 40.1499C50.4133 40.7823 50.4205 40.8826 50.4205 46.1597V51.5263H51.083H51.7455V46.6142C51.7455 43.7861 51.658 41.2943 51.5394 40.7409C51.1542 38.9446 50.0001 38.0871 47.9679 38.0871C46.5371 38.0871 45.2303 38.573 43.8419 39.6212C43.256 40.0636 42.7501 40.3464 42.7175 40.2501C42.4781 39.5408 41.7792 38.7698 41.0942 38.4588C39.9956 37.9601 38.1098 37.9699 36.9847 38.4802ZM70.501 38.6767C68.3028 39.7751 67.3615 41.6699 67.3615 44.996C67.3615 46.9314 67.4028 47.1648 67.9464 48.3085C68.7187 49.9326 69.3413 50.6373 70.5264 51.2276C71.8684 51.8966 73.9303 51.9149 75.3115 51.2702C76.2161 50.8481 77.4063 49.7367 77.8583 48.8923C78.0419 48.5493 78.0035 48.4656 77.5719 48.2689C77.1375 48.0711 77.0478 48.0895 76.8742 48.4118C76.7646 48.6153 76.3081 49.1387 75.8597 49.575C73.0698 52.2892 68.8107 50.1177 68.5493 45.8478L68.4972 44.996L73.2767 44.9455L78.0561 44.8949L78.0539 44.0937C78.0471 41.6754 76.7637 39.3841 74.9407 38.5351C73.5144 37.8709 72.0177 37.9188 70.501 38.6767ZM84.7129 38.4068C84.2376 38.5749 83.3826 39.1743 82.6781 39.8332L81.4633 40.9697V39.6231V38.2764H80.8954H80.3276V44.9014V51.5263H80.8954H81.4633V47.2599C81.4633 43.3381 81.4945 42.9322 81.8496 42.236C82.7044 40.5605 84.3637 39.4117 86.1481 39.2603C86.6945 39.2139 87.143 39.1227 87.1445 39.0574C87.1458 38.9923 87.1984 38.7473 87.2611 38.513C87.3684 38.1126 87.3199 38.088 86.4542 38.102C85.9474 38.1102 85.164 38.2474 84.7129 38.4068ZM26.4337 39.2342C27.8687 39.6326 29.0161 41.1906 29.3328 43.17L29.4583 43.9549H25.2698C22.9662 43.9549 21.0834 43.891 21.0858 43.813C21.1294 42.4777 22.2509 40.4132 23.277 39.7789C24.4492 39.0545 25.274 38.9122 26.4337 39.2342ZM62.2713 39.6981C64.9648 41.2765 65.4049 47.152 63.0091 49.5477C61.3129 51.2437 58.9137 51.0484 56.4638 49.0145L55.7273 48.4031L55.7239 44.8656L55.7205 41.328L56.9465 40.4174C57.6207 39.9165 58.4937 39.4021 58.8867 39.2741C59.8906 38.947 61.2887 39.1221 62.2713 39.6981ZM73.7813 39.2414C74.189 39.3545 74.756 39.6197 75.041 39.8306C75.7336 40.3426 76.4694 41.7399 76.6895 42.9612L76.8688 43.9549H72.7302H68.5919V43.5154C68.5919 41.9154 70.2587 39.6574 71.7261 39.2697C72.7295 39.0047 72.9191 39.0021 73.7813 39.2414Z" fill="white" />
</svg>